Annaheim-500wt.ufo
<glyph name="exclam" format="1">
  <advance width="350"/>
  <unicode hex="0021"/>
  <outline>
    <contour>
      <point x="232" y="1194" type="line"/>
      <point x="232" y="1395" type="line"/>
      <point x="115" y="1395" type="line"/>
      <point x="115" y="1194" type="line"/>
      <point x="125" y="369" type="line"/>
      <point x="222" y="369" type="line"/>
    </contour>
    <contour>
      <point x="101" y="182" type="line"/>
      <point x="101" y="-8" type="line"/>
      <point x="259" y="-8" type="line"/>
      <point x="259" y="182" type="line"/>
    </contour>
  </outline>
</glyph>
<glyph name="quotedbl" format="1">
  <advance width="629"/>
  <unicode hex="0022"/>
  <outline>
    <contour>
      <point x="243" y="1229" type="line"/>
      <point x="243" y="1411" type="line"/>
      <point x="122" y="1411" type="line"/>
      <point x="122" y="1229" type="line"/>
      <point x="131" y="950" type="line"/>
      <point x="234" y="950" type="line"/>
    </contour>
    <contour>
      <point x="507" y="1217" type="line"/>
      <point x="507" y="1411" type="line"/>
      <point x="385" y="1411" type="line"/>
      <point x="385" y="1249" type="line"/>
      <point x="396" y="950" type="line"/>
      <point x="500" y="950" type="line"/>
    </contour>
  </outline>
</glyph>
<glyph name="numbersign" format="1">
  <advance width="985"/>
  <unicode hex="0023"/>
  <outline>
    <contour>
      <point x="115" y="1030" type="line"/>
      <point x="113" y="928" type="line"/>
      <point x="303" y="928" type="line"/>
      <point x="260" y="553" type="line"/>
      <point x="79" y="553" type="line"/>
      <point x="79" y="449" type="line"/>
      <point x="247" y="449" type="line"/>
      <point x="205" y="92" type="line"/>
      <point x="312" y="92" type="line"/>
      <point x="352" y="449" type="line"/>
      <point x="568" y="449" type="line"/>
      <point x="526" y="92" type="line"/>
      <point x="632" y="92" type="line"/>
      <point x="673" y="449" type="line"/>
      <point x="871" y="449" type="line"/>
      <point x="871" y="553" type="line"/>
      <point x="686" y="553" type="line"/>
      <point x="727" y="928" type="line"/>
      <point x="906" y="928" type="line"/>
      <point x="906" y="1030" type="line"/>
      <point x="739" y="1030" type="line"/>
      <point x="776" y="1364" type="line"/>
      <point x="673" y="1364" type="line"/>
      <point x="634" y="1030" type="line"/>
      <point x="419" y="1030" type="line"/>
      <point x="457" y="1364" type="line"/>
      <point x="352" y="1364" type="line"/>
      <point x="313" y="1030" type="line"/>
    </contour>
    <contour>
      <point x="403" y="928" type="line"/>
      <point x="627" y="928" type="line"/>
      <point x="583" y="553" type="line"/>
      <point x="361" y="553" type="line"/>
    </contour>
  </outline>
</glyph>
<glyph name="dollar" format="1">
  <advance width="854"/>
  <unicode hex="0024"/>
  <outline>
    <contour>
      <point x="736" y="1149" type="line"/>
      <point x="761" y="1251" type="line"/>
      <point x="666" y="1290"/>
      <point x="570" y="1311"/>
      <point x="472" y="1315" type="curve"/>
      <point x="472" y="1485" type="line"/>
      <point x="378" y="1485" type="line"/>
      <point x="378" y="1313" type="line"/>
      <point x="207" y="1294"/>
      <point x="81" y="1187"/>
      <point x="81" y="979" type="curve" smooth="yes"/>
      <point x="81" y="812"/>
      <point x="144" y="731"/>
      <point x="251" y="680" type="curve" smooth="yes"/>
      <point x="321" y="646"/>
      <point x="462" y="612"/>
      <point x="532" y="583" type="curve" smooth="yes"/>
      <point x="625" y="544"/>
      <point x="668" y="494"/>
      <point x="668" y="356" type="curve" smooth="yes"/>
      <point x="668" y="313"/>
      <point x="661" y="275"/>
      <point x="648" y="242" type="curve" smooth="yes"/>
      <point x="608" y="145"/>
      <point x="519" y="86"/>
      <point x="393" y="86" type="curve" smooth="yes"/>
      <point x="287" y="86"/>
      <point x="198" y="113"/>
      <point x="103" y="145" type="curve"/>
      <point x="80" y="43" type="line"/>
      <point x="171" y="13"/>
      <point x="261" y="-8"/>
      <point x="361" y="-16" type="curve"/>
      <point x="361" y="-188" type="line"/>
      <point x="453" y="-188" type="line"/>
      <point x="453" y="-14" type="line"/>
      <point x="501" y="-9"/>
      <point x="545" y="3"/>
      <point x="585" y="22" type="curve" smooth="yes"/>
      <point x="695" y="75"/>
      <point x="776" y="184"/>
      <point x="776" y="357" type="curve" smooth="yes"/>
      <point x="776" y="530"/>
      <point x="711" y="619"/>
      <point x="603" y="674" type="curve" smooth="yes"/>
      <point x="532" y="709"/>
      <point x="398" y="737"/>
      <point x="328" y="769" type="curve" smooth="yes"/>
      <point x="242" y="808"/>
      <point x="191" y="859"/>
      <point x="191" y="989" type="curve" smooth="yes"/>
      <point x="191" y="1139"/>
      <point x="275" y="1214"/>
      <point x="443" y="1214" type="curve" smooth="yes"/>
      <point x="552" y="1214"/>
      <point x="645" y="1187"/>
      <point x="735" y="1151" type="curve"/>
    </contour>
  </outline>
</glyph>
<glyph name="percent" format="1">
  <advance width="1208"/>
  <unicode hex="0025"/>
  <outline>
    <contour>
      <point x="882" y="586" type="line"/>
      <point x="847" y="586"/>
      <point x="814" y="579"/>
      <point x="786" y="565" type="curve" smooth="yes"/>
      <point x="700" y="525"/>
      <point x="646" y="432"/>
      <point x="646" y="298" type="curve" smooth="yes"/>
      <point x="646" y="129"/>
      <point x="730" y="11"/>
      <point x="882" y="11" type="curve" smooth="yes"/>
      <point x="917" y="11"/>
      <point x="948" y="18"/>
      <point x="977" y="32" type="curve" smooth="yes"/>
      <point x="1062" y="72"/>
      <point x="1117" y="165"/>
      <point x="1117" y="298" type="curve" smooth="yes"/>
      <point x="1117" y="341"/>
      <point x="1111" y="380"/>
      <point x="1100" y="415" type="curve" smooth="yes"/>
      <point x="1068" y="511"/>
      <point x="998" y="585"/>
      <point x="883" y="585" type="curve"/>
    </contour>
    <contour>
      <point x="1020" y="298" type="curve" smooth="yes"/>
      <point x="1020" y="194"/>
      <point x="974" y="108"/>
      <point x="881" y="108" type="curve" smooth="yes"/>
      <point x="786" y="108"/>
      <point x="744" y="195"/>
      <point x="744" y="302" type="curve" smooth="yes"/>
      <point x="744" y="405"/>
      <point x="789" y="488"/>
      <point x="881" y="488" type="curve" smooth="yes"/>
      <point x="974" y="488"/>
      <point x="1020" y="402"/>
    </contour>
    <contour>
      <point x="330" y="1357" type="line"/>
      <point x="295" y="1357"/>
      <point x="263" y="1350"/>
      <point x="234" y="1336" type="curve" smooth="yes"/>
      <point x="148" y="1296"/>
      <point x="94" y="1203"/>
      <point x="94" y="1069" type="curve" smooth="yes"/>
      <point x="94" y="900"/>
      <point x="179" y="782"/>
      <point x="330" y="782" type="curve" smooth="yes"/>
      <point x="365" y="782"/>
      <point x="397" y="789"/>
      <point x="426" y="803" type="curve" smooth="yes"/>
      <point x="510" y="843"/>
      <point x="564" y="936"/>
      <point x="564" y="1069" type="curve" smooth="yes"/>
      <point x="564" y="1236"/>
      <point x="480" y="1356"/>
      <point x="330" y="1356" type="curve"/>
    </contour>
    <contour>
      <point x="466" y="1069" type="curve" smooth="yes"/>
      <point x="466" y="966"/>
      <point x="422" y="879"/>
      <point x="330" y="879" type="curve" smooth="yes"/>
      <point x="235" y="879"/>
      <point x="193" y="964"/>
      <point x="193" y="1071" type="curve" smooth="yes"/>
      <point x="193" y="1175"/>
      <point x="237" y="1260"/>
      <point x="330" y="1260" type="curve" smooth="yes"/>
      <point x="422" y="1260"/>
      <point x="466" y="1172"/>
    </contour>
    <contour>
      <point x="807" y="1368" type="line"/>
      <point x="295" y="-10" type="line"/>
      <point x="394" y="-25" type="line"/>
      <point x="909" y="1356" type="line"/>
    </contour>
  </outline>
</glyph>
<glyph name="ampersand" format="1">
  <advance width="1078"/>
  <unicode hex="0026"/>
  <outline>
    <contour>
      <point x="853" y="522" type="line"/>
      <point x="803" y="317"/>
      <point x="733" y="84"/>
      <point x="490" y="84" type="curve" smooth="yes"/>
      <point x="295" y="84"/>
      <point x="214" y="176"/>
      <point x="214" y="297" type="curve" smooth="yes"/>
      <point x="214" y="596"/>
      <point x="725" y="695"/>
      <point x="725" y="1038" type="curve" smooth="yes"/>
      <point x="725" y="1187"/>
      <point x="627" y="1308"/>
      <point x="466" y="1308" type="curve" smooth="yes"/>
      <point x="333" y="1308"/>
      <point x="208" y="1216"/>
      <point x="208" y="1041" type="curve" smooth="yes"/>
      <point x="208" y="973"/>
      <point x="228" y="883"/>
      <point x="294" y="790" type="curve" smooth="yes"/>
      <point x="866" y="-19" type="line"/>
      <point x="950" y="41" type="line"/>
      <point x="398" y="811" type="line" smooth="yes"/>
      <point x="351" y="876"/>
      <point x="312" y="938"/>
      <point x="312" y="1044" type="curve" smooth="yes"/>
      <point x="312" y="1146"/>
      <point x="376" y="1208"/>
      <point x="469" y="1208" type="curve" smooth="yes"/>
      <point x="567" y="1208"/>
      <point x="620" y="1145"/>
      <point x="620" y="1033" type="curve" smooth="yes"/>
      <point x="620" y="751"/>
      <point x="101" y="664"/>
      <point x="101" y="291" type="curve" smooth="yes"/>
      <point x="101" y="123"/>
      <point x="228" y="-16"/>
      <point x="482" y="-16" type="curve" smooth="yes"/>
      <point x="783" y="-16"/>
      <point x="884" y="223"/>
      <point x="945" y="492" type="curve"/>
    </contour>
  </outline>
</glyph>
<glyph name="quotesingle" format="1">
  <advance width="357"/>
  <unicode hex="0027"/>
  <outline>
    <contour>
      <point x="240" y="1212" type="line"/>
      <point x="240" y="1411" type="line"/>
      <point x="117" y="1411" type="line"/>
      <point x="117" y="1239" type="line"/>
      <point x="128" y="950" type="line"/>
      <point x="231" y="950" type="line"/>
    </contour>
  </outline>
</glyph>
<glyph name="parenleft" format="1">
  <advance width="532"/>
  <unicode hex="0028"/>
  <outline>
    <contour>
      <point x="377" y="-307" type="line"/>
      <point x="442" y="-231" type="line"/>
      <point x="291" y="-6"/>
      <point x="192" y="261"/>
      <point x="192" y="648" type="curve" smooth="yes"/>
      <point x="192" y="1039"/>
      <point x="291" y="1299"/>
      <point x="442" y="1528" type="curve"/>
      <point x="377" y="1604" type="line"/>
      <point x="198" y="1366"/>
      <point x="74" y="1079"/>
      <point x="74" y="649" type="curve" smooth="yes"/>
      <point x="74" y="220"/>
      <point x="197" y="-67"/>
      <point x="377" y="-305" type="curve"/>
    </contour>
  </outline>
</glyph>
<glyph name="parenright" format="1">
  <advance width="532"/>
  <unicode hex="0029"/>
  <outline>
    <contour>
      <point x="90" y="-229" type="line"/>
      <point x="154" y="-305" type="line"/>
      <point x="331" y="-66"/>
      <point x="458" y="219"/>
      <point x="458" y="646" type="curve" smooth="yes"/>
      <point x="458" y="1076"/>
      <point x="334" y="1361"/>
      <point x="154" y="1598" type="curve"/>
      <point x="90" y="1525" type="line"/>
      <point x="241" y="1297"/>
      <point x="342" y="1035"/>
      <point x="342" y="646" type="curve" smooth="yes"/>
      <point x="342" y="260"/>
      <point x="241" y="-4"/>
      <point x="90" y="-228" type="curve"/>
    </contour>
  </outline>
</glyph>
<glyph name="asterisk" format="1">
  <advance width="769"/>
  <unicode hex="002A"/>
  <outline>
    <contour>
      <point x="354" y="1132" type="line"/>
      <point x="81" y="1221" type="line"/>
      <point x="48" y="1122" type="line"/>
      <point x="321" y="1031" type="line"/>
      <point x="153" y="801" type="line"/>
      <point x="237" y="739" type="line"/>
      <point x="406" y="969" type="line"/>
      <point x="576" y="739" type="line"/>
      <point x="660" y="801" type="line"/>
      <point x="491" y="1031" type="line"/>
      <point x="765" y="1122" type="line"/>
      <point x="732" y="1221" type="line"/>
      <point x="459" y="1132" type="line"/>
      <point x="459" y="1419" type="line"/>
      <point x="354" y="1419" type="line"/>
    </contour>
  </outline>
</glyph>
<glyph name="plus" format="1">
  <advance width="871"/>
  <unicode hex="002B"/>
  <outline>
    <contour>
      <point x="488" y="541" type="line"/>
      <point x="822" y="541" type="line"/>
      <point x="822" y="645" type="line"/>
      <point x="488" y="645" type="line"/>
      <point x="488" y="1010" type="line"/>
      <point x="383" y="1010" type="line"/>
      <point x="383" y="645" type="line"/>
      <point x="48" y="645" type="line"/>
      <point x="48" y="541" type="line"/>
      <point x="383" y="541" type="line"/>
      <point x="383" y="176" type="line"/>
      <point x="488" y="176" type="line"/>
    </contour>
  </outline>
</glyph>
<glyph name="comma" format="1">
  <advance width="378"/>
  <unicode hex="002C"/>
  <outline>
    <contour>
      <point x="119" y="215" type="line"/>
      <point x="119" y="-4" type="line"/>
      <point x="191" y="-4" type="line"/>
      <point x="186" y="-90"/>
      <point x="143" y="-162"/>
      <point x="105" y="-221" type="curve"/>
      <point x="152" y="-274" type="line"/>
      <point x="217" y="-199"/>
      <point x="288" y="-104"/>
      <point x="288" y="39" type="curve" smooth="yes"/>
      <point x="288" y="215" type="line"/>
    </contour>
  </outline>
</glyph>
<glyph name="hyphen" format="1">
  <advance width="767"/>
  <unicode hex="002D"/>
  <outline>
    <contour>
      <point x="124" y="565" type="line"/>
      <point x="124" y="449" type="line"/>
      <point x="643" y="449" type="line"/>
      <point x="643" y="565" type="line"/>
    </contour>
  </outline>
</glyph>
<glyph name="period" format="1">
  <advance width="446"/>
  <unicode hex="002E"/>
  <outline>
    <contour>
      <point x="124" y="240" type="line"/>
      <point x="124" y="0" type="line"/>
      <point x="323" y="0" type="line"/>
      <point x="323" y="240" type="line"/>
    </contour>
  </outline>
</glyph>
<glyph name="slash" format="1">
  <advance width="798"/>
  <unicode hex="002F"/>
  <outline>
    <contour>
      <point x="675" y="1497" type="line"/>
      <point x="43" y="-84" type="line"/>
      <point x="122" y="-121" type="line"/>
      <point x="756" y="1458" type="line"/>
    </contour>
  </outline>
</glyph>
<glyph name="zero" format="1">
  <advance width="962"/>
  <unicode hex="0030"/>
  <outline>
    <contour>
      <point x="483" y="1208" type="curve" smooth="yes"/>
      <point x="726" y="1208"/>
      <point x="738" y="931"/>
      <point x="738" y="650" type="curve" smooth="yes"/>
      <point x="738" y="362"/>
      <point x="718" y="84"/>
      <point x="480" y="84" type="curve" smooth="yes"/>
      <point x="237" y="84"/>
      <point x="224" y="369"/>
      <point x="224" y="646" type="curve" smooth="yes"/>
      <point x="224" y="947"/>
      <point x="245" y="1208"/>
    </contour>
    <contour>
      <point x="108" y="646" type="curve" smooth="yes"/>
      <point x="108" y="284"/>
      <point x="161" y="-16"/>
      <point x="482" y="-16" type="curve" smooth="yes"/>
      <point x="801" y="-16"/>
      <point x="854" y="284"/>
      <point x="854" y="646" type="curve" smooth="yes"/>
      <point x="854" y="1011"/>
      <point x="802" y="1308"/>
      <point x="482" y="1308" type="curve" smooth="yes"/>
      <point x="158" y="1308"/>
      <point x="108" y="1014"/>
    </contour>
  </outline>
</glyph>
<glyph name="one" format="1">
  <advance width="718"/>
  <unicode hex="0031"/>
  <outline>
    <contour>
      <point x="81" y="1154" type="line"/>
      <point x="119" y="1061" type="line"/>
      <point x="346" y="1167" type="line"/>
      <point x="346" y="84" type="line"/>
      <point x="132" y="84" type="line"/>
      <point x="132" y="-16" type="line"/>
      <point x="646" y="-16" type="line"/>
      <point x="646" y="84" type="line"/>
      <point x="460" y="84" type="line"/>
      <point x="460" y="1285" type="line"/>
      <point x="361" y="1285" type="line"/>
      <point x="80" y="1155" type="line"/>
    </contour>
  </outline>
</glyph>
<glyph name="two" format="1">
  <advance width="871"/>
  <unicode hex="0032"/>
  <outline>
    <contour>
      <point x="400" y="1208" type="curve" smooth="yes"/>
      <point x="608" y="1208"/>
      <point x="669" y="1096"/>
      <point x="669" y="970" type="curve" smooth="yes"/>
      <point x="669" y="597"/>
      <point x="101" y="483"/>
      <point x="94" y="0" type="curve"/>
      <point x="776" y="0" type="line"/>
      <point x="776" y="100" type="line"/>
      <point x="221" y="100" type="line"/>
      <point x="276" y="428"/>
      <point x="787" y="580"/>
      <point x="787" y="971" type="curve" smooth="yes"/>
      <point x="787" y="1144"/>
      <point x="671" y="1308"/>
      <point x="416" y="1308" type="curve" smooth="yes"/>
      <point x="276" y="1308"/>
      <point x="203" y="1285"/>
      <point x="108" y="1254" type="curve"/>
      <point x="135" y="1157" type="line"/>
      <point x="135" y="1157"/>
      <point x="266" y="1208"/>
    </contour>
  </outline>
</glyph>
<glyph name="three" format="1">
  <advance width="914"/>
  <unicode hex="0033"/>
  <outline>
    <contour>
      <point x="513" y="691" type="curve"/>
      <point x="657" y="734"/>
      <point x="763" y="810"/>
      <point x="763" y="994" type="curve" smooth="yes"/>
      <point x="763" y="1200"/>
      <point x="615" y="1308"/>
      <point x="392" y="1308" type="curve" smooth="yes"/>
      <point x="279" y="1308"/>
      <point x="182" y="1287"/>
      <point x="76" y="1252" type="curve"/>
      <point x="103" y="1157" type="line"/>
      <point x="164" y="1178"/>
      <point x="276" y="1208"/>
      <point x="397" y="1208" type="curve" smooth="yes"/>
      <point x="553" y="1208"/>
      <point x="647" y="1131"/>
      <point x="647" y="985" type="curve" smooth="yes"/>
      <point x="647" y="796"/>
      <point x="513" y="749"/>
      <point x="233" y="713" type="curve"/>
      <point x="242" y="610" type="line"/>
      <point x="289" y="621"/>
      <point x="342" y="627"/>
      <point x="394" y="627" type="curve" smooth="yes"/>
      <point x="546" y="627"/>
      <point x="699" y="545"/>
      <point x="699" y="360" type="curve" smooth="yes"/>
      <point x="699" y="149"/>
      <point x="555" y="83"/>
      <point x="390" y="83" type="curve" smooth="yes"/>
      <point x="294" y="83"/>
      <point x="196" y="105"/>
      <point x="103" y="135" type="curve"/>
      <point x="76" y="40" type="line"/>
      <point x="169" y="5"/>
      <point x="279" y="-16"/>
      <point x="385" y="-16" type="curve" smooth="yes"/>
      <point x="608" y="-16"/>
      <point x="815" y="79"/>
      <point x="815" y="349" type="curve" smooth="yes"/>
      <point x="815" y="536"/>
      <point x="670" y="677"/>
    </contour>
  </outline>
</glyph>
<glyph name="four" format="1">
  <advance width="896"/>
  <unicode hex="0034"/>
  <outline>
    <contour>
      <point x="833" y="367" type="line"/>
      <point x="667" y="367" type="line"/>
      <point x="667" y="797" type="line"/>
      <point x="565" y="797" type="line"/>
      <point x="565" y="367" type="line"/>
      <point x="180" y="367" type="line"/>
      <point x="474" y="1298" type="line"/>
      <point x="368" y="1298" type="line"/>
      <point x="66" y="356" type="line"/>
      <point x="66" y="260" type="line"/>
      <point x="565" y="260" type="line"/>
      <point x="565" y="-20" type="line"/>
      <point x="667" y="-20" type="line"/>
      <point x="667" y="260" type="line"/>
      <point x="833" y="260" type="line"/>
    </contour>
  </outline>
</glyph>
<glyph name="five" format="1">
  <advance width="914"/>
  <unicode hex="0035"/>
  <outline>
    <contour>
      <point x="716" y="380" type="curve" smooth="yes"/>
      <point x="716" y="204"/>
      <point x="603" y="84"/>
      <point x="418" y="84" type="curve" smooth="yes"/>
      <point x="263" y="84"/>
      <point x="125" y="136"/>
      <point x="125" y="136" type="curve"/>
      <point x="98" y="40" type="line"/>
      <point x="98" y="40"/>
      <point x="236" y="-16"/>
      <point x="411" y="-16" type="curve" smooth="yes"/>
      <point x="653" y="-16"/>
      <point x="832" y="120"/>
      <point x="832" y="378" type="curve" smooth="yes"/>
      <point x="832" y="646"/>
      <point x="668" y="794"/>
      <point x="469" y="794" type="curve" smooth="yes"/>
      <point x="392" y="794"/>
      <point x="313" y="772"/>
      <point x="233" y="726" type="curve"/>
      <point x="248" y="1184" type="line"/>
      <point x="764" y="1184" type="line"/>
      <point x="764" y="1284" type="line"/>
      <point x="147" y="1284" type="line"/>
      <point x="147" y="1284"/>
      <point x="136" y="853"/>
      <point x="132" y="637" type="curve"/>
      <point x="206" y="608" type="line"/>
      <point x="283" y="666"/>
      <point x="371" y="697"/>
      <point x="452" y="697" type="curve" smooth="yes"/>
      <point x="595" y="697"/>
      <point x="716" y="600"/>
    </contour>
  </outline>
</glyph>
<glyph name="six" format="1">
  <advance width="962"/>
  <unicode hex="0036"/>
  <outline>
    <contour>
      <point x="227" y="715" type="curve"/>
      <point x="242" y="1010"/>
      <point x="423" y="1208"/>
      <point x="708" y="1208" type="curve"/>
      <point x="707" y="1308" type="line"/>
      <point x="315" y="1295"/>
      <point x="104" y="1028"/>
      <point x="104" y="543" type="curve" smooth="yes"/>
      <point x="104" y="209"/>
      <point x="199" y="-16"/>
      <point x="475" y="-16" type="curve" smooth="yes"/>
      <point x="708" y="-16"/>
      <point x="844" y="147"/>
      <point x="844" y="421" type="curve" smooth="yes"/>
      <point x="844" y="667"/>
      <point x="715" y="825"/>
      <point x="530" y="825" type="curve" smooth="yes"/>
      <point x="440" y="825"/>
      <point x="335" y="791"/>
    </contour>
    <contour>
      <point x="220" y="613" type="line"/>
      <point x="344" y="693"/>
      <point x="448" y="728"/>
      <point x="528" y="728" type="curve" smooth="yes"/>
      <point x="658" y="728"/>
      <point x="728" y="607"/>
      <point x="728" y="422" type="curve" smooth="yes"/>
      <point x="728" y="212"/>
      <point x="653" y="84"/>
      <point x="476" y="84" type="curve" smooth="yes"/>
      <point x="289" y="84"/>
      <point x="220" y="255"/>
      <point x="220" y="529" type="curve" smooth="yes"/>
    </contour>
  </outline>
</glyph>
<glyph name="seven" format="1">
  <advance width="795"/>
  <unicode hex="0037"/>
  <outline>
    <contour>
      <point x="67" y="1300" type="line"/>
      <point x="67" y="1299"/>
      <point x="66" y="1184"/>
      <point x="66" y="1184" type="curve"/>
      <point x="616" y="1184" type="line"/>
      <point x="604" y="1140"/>
      <point x="586" y="1090"/>
      <point x="562" y="1035" type="curve" smooth="yes"/>
      <point x="479" y="845"/>
      <point x="381" y="651"/>
      <point x="309" y="445" type="curve" smooth="yes"/>
      <point x="264" y="316"/>
      <point x="221" y="167"/>
      <point x="218" y="3" type="curve"/>
      <point x="340" y="3" type="line"/>
      <point x="340" y="64"/>
      <point x="348" y="128"/>
      <point x="362" y="195" type="curve" smooth="yes"/>
      <point x="435" y="544"/>
      <point x="596" y="836"/>
      <point x="719" y="1129" type="curve"/>
      <point x="727" y="1150"/>
      <point x="730" y="1167"/>
      <point x="730" y="1181" type="curve" smooth="yes"/>
      <point x="730" y="1301" type="line"/>
    </contour>
  </outline>
</glyph>
<glyph name="eight" format="1">
  <advance width="974"/>
  <unicode hex="0038"/>
  <outline>
    <contour>
      <point x="838" y="991" type="line"/>
      <point x="838" y="1042"/>
      <point x="830" y="1088"/>
      <point x="815" y="1129" type="curve" smooth="yes"/>
      <point x="767" y="1258"/>
      <point x="653" y="1326"/>
      <point x="488" y="1326" type="curve" smooth="yes"/>
      <point x="279" y="1326"/>
      <point x="135" y="1219"/>
      <point x="135" y="988" type="curve" smooth="yes"/>
      <point x="135" y="826"/>
      <point x="225" y="734"/>
      <point x="329" y="675" type="curve"/>
      <point x="180" y="612"/>
      <point x="105" y="499"/>
      <point x="105" y="336" type="curve" smooth="yes"/>
      <point x="105" y="90"/>
      <point x="253" y="-27"/>
      <point x="482" y="-27" type="curve" smooth="yes"/>
      <point x="710" y="-27"/>
      <point x="869" y="84"/>
      <point x="869" y="336" type="curve" smooth="yes"/>
      <point x="869" y="505"/>
      <point x="793" y="619"/>
      <point x="641" y="678" type="curve"/>
      <point x="748" y="733"/>
      <point x="838" y="825"/>
      <point x="838" y="990" type="curve"/>
    </contour>
    <contour>
      <point x="486" y="87" type="curve" smooth="yes"/>
      <point x="324" y="87"/>
      <point x="225" y="164"/>
      <point x="225" y="343" type="curve" smooth="yes"/>
      <point x="225" y="521"/>
      <point x="342" y="603"/>
      <point x="488" y="620" type="curve"/>
      <point x="638" y="603"/>
      <point x="749" y="519"/>
      <point x="749" y="343" type="curve" smooth="yes"/>
      <point x="749" y="167"/>
      <point x="646" y="87"/>
    </contour>
    <contour>
      <point x="486" y="734" type="curve"/>
      <point x="346" y="750"/>
      <point x="250" y="828"/>
      <point x="250" y="988" type="curve" smooth="yes"/>
      <point x="250" y="1147"/>
      <point x="338" y="1218"/>
      <point x="486" y="1218" type="curve" smooth="yes"/>
      <point x="643" y="1218"/>
      <point x="722" y="1141"/>
      <point x="722" y="986" type="curve" smooth="yes"/>
      <point x="722" y="823"/>
      <point x="629" y="751"/>
    </contour>
  </outline>
</glyph>
<glyph name="nine" format="1">
  <advance width="935"/>
  <unicode hex="0039"/>
  <outline>
    <contour>
      <point x="278" y="59" type="line"/>
      <point x="343" y="6" type="line"/>
      <point x="352" y="7"/>
      <point x="362" y="7"/>
      <point x="372" y="7" type="curve" smooth="yes"/>
      <point x="404" y="7" type="line" smooth="yes"/>
      <point x="434" y="7"/>
      <point x="459" y="10"/>
      <point x="485" y="18" type="curve"/>
      <point x="533" y="43"/>
      <point x="576" y="78"/>
      <point x="611" y="115" type="curve" smooth="yes"/>
      <point x="660" y="167"/>
      <point x="685" y="214"/>
      <point x="720" y="279" type="curve" smooth="yes"/>
      <point x="776" y="380"/>
      <point x="810" y="504"/>
      <point x="821" y="661" type="curve"/>
      <point x="830" y="738"/>
      <point x="833" y="817"/>
      <point x="831" y="898" type="curve"/>
      <point x="822" y="1048"/>
      <point x="784" y="1172"/>
      <point x="705" y="1240" type="curve"/>
      <point x="651" y="1294"/>
      <point x="566" y="1328"/>
      <point x="462" y="1328" type="curve" smooth="yes"/>
      <point x="426" y="1328"/>
      <point x="394" y="1324"/>
      <point x="364" y="1316" type="curve" smooth="yes"/>
      <point x="192" y="1269"/>
      <point x="84" y="1132"/>
      <point x="84" y="892" type="curve" smooth="yes"/>
      <point x="84" y="846"/>
      <point x="88" y="804"/>
      <point x="96" y="767" type="curve" smooth="yes"/>
      <point x="138" y="586"/>
      <point x="242" y="475"/>
      <point x="445" y="475" type="curve" smooth="yes"/>
      <point x="538" y="475"/>
      <point x="624" y="521"/>
      <point x="702" y="612" type="curve"/>
      <point x="679" y="394"/>
      <point x="596" y="224"/>
      <point x="451" y="139" type="curve"/>
      <point x="393" y="113"/>
      <point x="318" y="103"/>
      <point x="280" y="57" type="curve"/>
    </contour>
    <contour>
      <point x="714" y="864" type="line"/>
      <point x="712" y="826"/>
      <point x="704" y="791"/>
      <point x="690" y="759" type="curve" smooth="yes"/>
      <point x="654" y="670"/>
      <point x="580" y="599"/>
      <point x="472" y="592" type="curve"/>
      <point x="395" y="583"/>
      <point x="322" y="613"/>
      <point x="284" y="647" type="curve" smooth="yes"/>
      <point x="229" y="696"/>
      <point x="205" y="782"/>
      <point x="205" y="894" type="curve" smooth="yes"/>
      <point x="205" y="949"/>
      <point x="210" y="993"/>
      <point x="221" y="1026" type="curve" smooth="yes"/>
      <point x="257" y="1138"/>
      <point x="327" y="1212"/>
      <point x="462" y="1212" type="curve" smooth="yes"/>
      <point x="657" y="1212"/>
      <point x="716" y="1079"/>
      <point x="716" y="864" type="curve"/>
    </contour>
  </outline>
</glyph>
<glyph name="colon" format="1">
  <advance width="446"/>
  <unicode hex="003A"/>
  <outline>
    <contour>
      <point x="124" y="841" type="line"/>
      <point x="124" y="601" type="line"/>
      <point x="323" y="601" type="line"/>
      <point x="323" y="841" type="line"/>
    </contour>
    <contour>
      <point x="124" y="287" type="line"/>
      <point x="124" y="47" type="line"/>
      <point x="323" y="47" type="line"/>
      <point x="323" y="287" type="line"/>
    </contour>
  </outline>
</glyph>
<glyph name="semicolon" format="1">
  <advance width="386"/>
  <unicode hex="003B"/>
  <outline>
    <contour>
      <point x="112" y="862" type="line"/>
      <point x="112" y="649" type="line"/>
      <point x="287" y="649" type="line"/>
      <point x="287" y="862" type="line"/>
    </contour>
    <contour>
      <point x="117" y="305" type="line"/>
      <point x="117" y="86" type="line"/>
      <point x="191" y="86" type="line"/>
      <point x="184" y="1"/>
      <point x="143" y="-73"/>
      <point x="105" y="-133" type="curve"/>
      <point x="151" y="-186" type="line"/>
      <point x="216" y="-111"/>
      <point x="288" y="-15"/>
      <point x="288" y="129" type="curve" smooth="yes"/>
      <point x="288" y="305" type="line"/>
    </contour>
  </outline>
</glyph>
<glyph name="less" format="1">
  <advance width="921"/>
  <unicode hex="003C"/>
  <outline>
    <contour>
      <point x="753" y="61" type="line"/>
      <point x="808" y="150" type="line"/>
      <point x="167" y="596" type="line"/>
      <point x="810" y="1030" type="line"/>
      <point x="753" y="1116" type="line"/>
      <point x="42" y="629" type="line"/>
      <point x="42" y="563" type="line"/>
    </contour>
  </outline>
</glyph>
<glyph name="equal" format="1">
  <advance width="1022"/>
  <unicode hex="003D"/>
  <outline>
    <contour>
      <point x="124" y="371" type="line"/>
      <point x="898" y="371" type="line"/>
      <point x="898" y="467" type="line"/>
      <point x="124" y="467" type="line"/>
    </contour>
    <contour>
      <point x="124" y="684" type="line"/>
      <point x="898" y="684" type="line"/>
      <point x="898" y="780" type="line"/>
      <point x="124" y="780" type="line"/>
    </contour>
  </outline>
</glyph>
<glyph name="greater" format="1">
  <advance width="922"/>
  <unicode hex="003E"/>
  <outline>
    <contour>
      <point x="167" y="61" type="line"/>
      <point x="880" y="563" type="line"/>
      <point x="880" y="629" type="line"/>
      <point x="167" y="1116" type="line"/>
      <point x="111" y="1030" type="line"/>
      <point x="755" y="596" type="line"/>
      <point x="111" y="150" type="line"/>
    </contour>
  </outline>
</glyph>
<glyph name="question" format="1">
  <advance width="807"/>
  <unicode hex="003F"/>
  <outline>
    <contour>
      <point x="319" y="334" type="line"/>
      <point x="354" y="337"/>
      <point x="389" y="334"/>
      <point x="423" y="337" type="curve"/>
      <point x="421" y="371"/>
      <point x="419" y="408"/>
      <point x="419" y="443" type="curve" smooth="yes"/>
      <point x="419" y="549"/>
      <point x="437" y="588"/>
      <point x="488" y="643" type="curve" smooth="yes"/>
      <point x="508" y="665"/>
      <point x="535" y="693"/>
      <point x="571" y="728" type="curve"/>
      <point x="659" y="820"/>
      <point x="734" y="896"/>
      <point x="734" y="1082" type="curve" smooth="yes"/>
      <point x="734" y="1107"/>
      <point x="732" y="1130"/>
      <point x="727" y="1151" type="curve" smooth="yes"/>
      <point x="696" y="1301"/>
      <point x="585" y="1390"/>
      <point x="417" y="1390" type="curve" smooth="yes"/>
      <point x="320" y="1390"/>
      <point x="252" y="1360"/>
      <point x="195" y="1322" type="curve"/>
      <point x="156" y="1294"/>
      <point x="105" y="1253"/>
      <point x="70" y="1209" type="curve"/>
      <point x="130" y="1119" type="line"/>
      <point x="156" y="1146"/>
      <point x="179" y="1168"/>
      <point x="202" y="1185" type="curve" smooth="yes"/>
      <point x="265" y="1233"/>
      <point x="315" y="1270"/>
      <point x="421" y="1270" type="curve" smooth="yes"/>
      <point x="462" y="1270"/>
      <point x="495" y="1262"/>
      <point x="521" y="1247" type="curve" smooth="yes"/>
      <point x="579" y="1214"/>
      <point x="615" y="1170"/>
      <point x="615" y="1075" type="curve" smooth="yes"/>
      <point x="615" y="1042"/>
      <point x="607" y="1010"/>
      <point x="593" y="979" type="curve" smooth="yes"/>
      <point x="544" y="876"/>
      <point x="460" y="796"/>
      <point x="393" y="711" type="curve" smooth="yes"/>
      <point x="351" y="657"/>
      <point x="308" y="602"/>
      <point x="308" y="510" type="curve" smooth="yes"/>
      <point x="308" y="473" type="line" smooth="yes"/>
      <point x="308" y="426"/>
      <point x="311" y="370"/>
      <point x="320" y="336" type="curve"/>
    </contour>
    <contour>
      <point x="291" y="195" type="line"/>
      <point x="291" y="-6" type="line"/>
      <point x="459" y="-6" type="line"/>
      <point x="459" y="195" type="line"/>
    </contour>
  </outline>
</glyph>
<glyph name="at" format="1">
  <advance width="1157"/>
  <unicode hex="0040"/>
  <outline>
    <contour>
      <point x="486" y="436" type="line"/>
      <point x="486" y="608"/>
      <point x="517" y="760"/>
      <point x="663" y="760" type="curve" smooth="yes"/>
      <point x="723" y="760"/>
      <point x="783" y="748"/>
      <point x="825" y="727" type="curve"/>
      <point x="824" y="712"/>
      <point x="823" y="691"/>
      <point x="823" y="664" type="curve" smooth="yes"/>
      <point x="822" y="569"/>
      <point x="819" y="462"/>
      <point x="810" y="375" type="curve" smooth="yes"/>
      <point x="804" y="329"/>
      <point x="796" y="269"/>
      <point x="774" y="247" type="curve"/>
      <point x="737" y="222"/>
      <point x="694" y="198"/>
      <point x="639" y="198" type="curve" smooth="yes"/>
      <point x="524" y="198"/>
      <point x="487" y="307"/>
      <point x="487" y="437" type="curve"/>
    </contour>
    <contour>
      <point x="741" y="860" type="line"/>
      <point x="730" y="860"/>
      <point x="727" y="851"/>
      <point x="722" y="840" type="curve"/>
      <point x="685" y="856"/>
      <point x="639" y="867"/>
      <point x="590" y="858" type="curve"/>
      <point x="555" y="850"/>
      <point x="523" y="834"/>
      <point x="495" y="810" type="curve" smooth="yes"/>
      <point x="417" y="742"/>
      <point x="369" y="623"/>
      <point x="369" y="470" type="curve" smooth="yes"/>
      <point x="369" y="305"/>
      <point x="414" y="172"/>
      <point x="518" y="128" type="curve"/>
      <point x="599" y="95"/>
      <point x="656" y="128"/>
      <point x="706" y="174" type="curve"/>
      <point x="768" y="124"/>
      <point x="851" y="100"/>
      <point x="945" y="129" type="curve"/>
      <point x="1012" y="351"/>
      <point x="1054" y="616"/>
      <point x="1054" y="911" type="curve"/>
      <point x="1052" y="948"/>
      <point x="1039" y="982"/>
      <point x="1017" y="1014" type="curve" smooth="yes"/>
      <point x="945" y="1114"/>
      <point x="810" y="1175"/>
      <point x="647" y="1173" type="curve"/>
      <point x="567" y="1173"/>
      <point x="495" y="1157"/>
      <point x="428" y="1125" type="curve" smooth="yes"/>
      <point x="222" y="1026"/>
      <point x="102" y="792"/>
      <point x="102" y="462" type="curve" smooth="yes"/>
      <point x="102" y="357"/>
      <point x="114" y="265"/>
      <point x="137" y="186" type="curve" smooth="yes"/>
      <point x="201" y="-32"/>
      <point x="345" y="-198"/>
      <point x="593" y="-203" type="curve" smooth="yes"/>
      <point x="714" y="-205"/>
      <point x="815" y="-183"/>
      <point x="925" y="-139" type="curve"/>
      <point x="891" y="-33" type="line"/>
      <point x="802" y="-66"/>
      <point x="710" y="-92"/>
      <point x="600" y="-92" type="curve" smooth="yes"/>
      <point x="540" y="-92"/>
      <point x="486" y="-79"/>
      <point x="438" y="-54" type="curve" smooth="yes"/>
      <point x="285" y="27"/>
      <point x="211" y="216"/>
      <point x="211" y="469" type="curve" smooth="yes"/>
      <point x="211" y="721"/>
      <point x="297" y="905"/>
      <point x="439" y="999" type="curve" smooth="yes"/>
      <point x="508" y="1045"/>
      <point x="589" y="1074"/>
      <point x="694" y="1057" type="curve"/>
      <point x="796" y="1039"/>
      <point x="885" y="983"/>
      <point x="912" y="883" type="curve"/>
      <point x="921" y="842"/>
      <point x="924" y="739"/>
      <point x="883" y="735" type="curve"/>
      <point x="872" y="716"/>
      <point x="864" y="702"/>
      <point x="859" y="694" type="curve" smooth="yes"/>
      <point x="855" y="686"/>
      <point x="852" y="679"/>
      <point x="852" y="672" type="curve"/>
      <point x="833" y="682"/>
      <point x="815" y="691"/>
      <point x="794" y="698" type="curve"/>
      <point x="783" y="755"/>
      <point x="774" y="806"/>
      <point x="764" y="862" type="curve"/>
      <point x="761" y="862"/>
      <point x="758" y="862"/>
      <point x="756" y="863" type="curve"/>
      <point x="751" y="863"/>
      <point x="747" y="864"/>
      <point x="742" y="864" type="curve"/>
    </contour>
  </outline>
</glyph>
<glyph name="A" format="1">
  <advance width="1104"/>
  <unicode hex="0041"/>
  <outline>
    <contour>
      <point x="785" y="420" type="line"/>
      <point x="330" y="420" type="line"/>
      <point x="561" y="1214" type="line"/>
    </contour>
    <contour>
      <point x="479" y="1284" type="line"/>
      <point x="79" y="0" type="line"/>
      <point x="200" y="0" type="line"/>
      <point x="300" y="328" type="line"/>
      <point x="816" y="328" type="line"/>
      <point x="913" y="0" type="line"/>
      <point x="1024" y="0" type="line"/>
      <point x="642" y="1284" type="line"/>
    </contour>
  </outline>
</glyph>
<glyph name="B" format="1">
  <advance width="1016"/>
  <unicode hex="0042"/>
  <outline>
    <contour>
      <point x="240" y="723" type="line"/>
      <point x="240" y="1184" type="line"/>
      <point x="459" y="1184" type="line" smooth="yes"/>
      <point x="656" y="1184"/>
      <point x="751" y="1139"/>
      <point x="751" y="971" type="curve" smooth="yes"/>
      <point x="751" y="776"/>
      <point x="632" y="723"/>
      <point x="475" y="723" type="curve" smooth="yes"/>
    </contour>
    <contour>
      <point x="790" y="381" type="curve"/>
      <point x="790" y="140"/>
      <point x="649" y="100"/>
      <point x="439" y="100" type="curve" smooth="yes"/>
      <point x="242" y="100" type="line"/>
      <point x="242" y="628" type="line"/>
      <point x="483" y="628" type="line" smooth="yes"/>
      <point x="670" y="628"/>
      <point x="791" y="570"/>
    </contour>
    <contour>
      <point x="650" y="682" type="curve"/>
      <point x="789" y="720"/>
      <point x="868" y="804"/>
      <point x="868" y="971" type="curve" smooth="yes"/>
      <point x="868" y="1229"/>
      <point x="720" y="1284"/>
      <point x="435" y="1284" type="curve" smooth="yes"/>
      <point x="124" y="1284" type="line"/>
      <point x="124" y="0" type="line"/>
      <point x="432" y="0" type="line" smooth="yes"/>
      <point x="739" y="0"/>
      <point x="911" y="61"/>
      <point x="911" y="377" type="curve" smooth="yes"/>
      <point x="911" y="567"/>
      <point x="813" y="659"/>
    </contour>
  </outline>
</glyph>
<glyph name="C" format="1">
  <advance width="1021"/>
  <unicode hex="0043"/>
  <outline>
    <contour>
      <point x="226" y="640" type="curve" smooth="yes"/>
      <point x="226" y="1069"/>
      <point x="338" y="1208"/>
      <point x="568" y="1208" type="curve" smooth="yes"/>
      <point x="656" y="1208"/>
      <point x="725" y="1188"/>
      <point x="788" y="1162" type="curve"/>
      <point x="788" y="965" type="line"/>
      <point x="899" y="965" type="line"/>
      <point x="899" y="1223" type="line"/>
      <point x="803" y="1267"/>
      <point x="696" y="1308"/>
      <point x="561" y="1308" type="curve" smooth="yes"/>
      <point x="197" y="1308"/>
      <point x="105" y="1003"/>
      <point x="105" y="643" type="curve" smooth="yes"/>
      <point x="105" y="172"/>
      <point x="281" y="-16"/>
      <point x="555" y="-16" type="curve" smooth="yes"/>
      <point x="664" y="-16"/>
      <point x="789" y="13"/>
      <point x="924" y="67" type="curve"/>
      <point x="890" y="158" type="line"/>
      <point x="762" y="110"/>
      <point x="653" y="83"/>
      <point x="562" y="83" type="curve" smooth="yes"/>
      <point x="338" y="83"/>
      <point x="226" y="244"/>
    </contour>
  </outline>
</glyph>
<glyph name="D" format="1">
  <advance width="1049"/>
  <unicode hex="0044"/>
  <outline>
    <contour>
      <point x="123" y="0" type="line"/>
      <point x="396" y="0" type="line" smooth="yes"/>
      <point x="814" y="0"/>
      <point x="945" y="237"/>
      <point x="945" y="637" type="curve" smooth="yes"/>
      <point x="945" y="1097"/>
      <point x="813" y="1284"/>
      <point x="396" y="1284" type="curve" smooth="yes"/>
      <point x="123" y="1284" type="line"/>
    </contour>
    <contour>
      <point x="240" y="1184" type="line"/>
      <point x="396" y="1184" type="line" smooth="yes"/>
      <point x="772" y="1184"/>
      <point x="825" y="989"/>
      <point x="825" y="637" type="curve" smooth="yes"/>
      <point x="825" y="323"/>
      <point x="772" y="100"/>
      <point x="396" y="100" type="curve" smooth="yes"/>
      <point x="240" y="100" type="line"/>
    </contour>
  </outline>
</glyph>
<glyph name="E" format="1">
  <advance width="861"/>
  <unicode hex="0045"/>
  <outline>
    <contour>
      <point x="124" y="1284" type="line"/>
      <point x="124" y="0" type="line"/>
      <point x="803" y="0" type="line"/>
      <point x="797" y="100" type="line"/>
      <point x="242" y="100" type="line"/>
      <point x="242" y="649" type="line"/>
      <point x="743" y="649" type="line"/>
      <point x="743" y="745" type="line"/>
      <point x="242" y="745" type="line"/>
      <point x="242" y="1184" type="line"/>
      <point x="794" y="1184" type="line"/>
      <point x="799" y="1284" type="line"/>
    </contour>
  </outline>
</glyph>
<glyph name="F" format="1">
  <advance width="818"/>
  <unicode hex="0046"/>
  <outline>
    <contour>
      <point x="124" y="1284" type="line"/>
      <point x="124" y="0" type="line"/>
      <point x="241" y="0" type="line"/>
      <point x="241" y="603" type="line"/>
      <point x="708" y="603" type="line"/>
      <point x="708" y="697" type="line"/>
      <point x="241" y="697" type="line"/>
      <point x="241" y="1184" type="line"/>
      <point x="781" y="1184" type="line"/>
      <point x="791" y="1284" type="line"/>
    </contour>
  </outline>
</glyph>
<glyph name="G" format="1">
  <advance width="1071"/>
  <unicode hex="0047"/>
  <outline>
    <contour>
      <point x="846" y="184" type="line"/>
      <point x="864" y="39" type="line"/>
      <point x="967" y="61" type="line"/>
      <point x="967" y="666" type="line"/>
      <point x="579" y="666" type="line"/>
      <point x="579" y="551" type="line"/>
      <point x="846" y="551" type="line"/>
    </contour>
    <contour>
      <point x="227" y="652" type="curve" smooth="yes"/>
      <point x="227" y="1048"/>
      <point x="339" y="1209"/>
      <point x="563" y="1209" type="curve" smooth="yes"/>
      <point x="654" y="1209"/>
      <point x="763" y="1182"/>
      <point x="891" y="1134" type="curve"/>
      <point x="925" y="1225" type="line"/>
      <point x="790" y="1279"/>
      <point x="665" y="1308"/>
      <point x="556" y="1308" type="curve" smooth="yes"/>
      <point x="282" y="1308"/>
      <point x="106" y="1120"/>
      <point x="106" y="649" type="curve" smooth="yes"/>
      <point x="106" y="289"/>
      <point x="198" y="-16"/>
      <point x="562" y="-16" type="curve" smooth="yes"/>
      <point x="721" y="-16"/>
      <point x="844" y="13"/>
      <point x="958" y="58" type="curve"/>
      <point x="958" y="317" type="line"/>
      <point x="846" y="317" type="line"/>
      <point x="846" y="124" type="line"/>
      <point x="765" y="101"/>
      <point x="681" y="84"/>
      <point x="569" y="84" type="curve" smooth="yes"/>
      <point x="339" y="84"/>
      <point x="227" y="223"/>
    </contour>
  </outline>
</glyph>
<glyph name="H" format="1">
  <advance width="1072"/>
  <unicode hex="0048"/>
  <outline>
    <contour>
      <point x="123" y="1284" type="line"/>
      <point x="123" y="0" type="line"/>
      <point x="237" y="0" type="line"/>
      <point x="237" y="615" type="line"/>
      <point x="835" y="615" type="line"/>
      <point x="835" y="0" type="line"/>
      <point x="949" y="0" type="line"/>
      <point x="949" y="1284" type="line"/>
      <point x="835" y="1284" type="line"/>
      <point x="835" y="720" type="line"/>
      <point x="237" y="720" type="line"/>
      <point x="237" y="1284" type="line"/>
    </contour>
  </outline>
</glyph>
<glyph name="I" format="1">
  <advance width="664"/>
  <unicode hex="0049"/>
  <outline>
    <contour>
      <point x="84" y="0" type="line"/>
      <point x="84" y="95" type="line"/>
      <point x="278" y="95" type="line"/>
      <point x="278" y="1189" type="line"/>
      <point x="84" y="1189" type="line"/>
      <point x="84" y="1284" type="line"/>
      <point x="576" y="1284" type="line"/>
      <point x="576" y="1189" type="line"/>
      <point x="392" y="1189" type="line"/>
      <point x="392" y="95" type="line"/>
      <point x="580" y="95" type="line"/>
      <point x="580" y="0" type="line"/>
    </contour>
  </outline>
</glyph>
<glyph name="J" format="1">
  <advance width="593"/>
  <unicode hex="004A"/>
  <outline>
    <contour>
      <point x="355" y="91" type="line" smooth="yes"/>
      <point x="355" y="-49"/>
      <point x="328" y="-139"/>
      <point x="208" y="-139" type="curve" smooth="yes"/>
      <point x="157" y="-139"/>
      <point x="107" y="-128"/>
      <point x="60" y="-111" type="curve"/>
      <point x="44" y="-202" type="line"/>
      <point x="104" y="-225"/>
      <point x="160" y="-234"/>
      <point x="212" y="-234" type="curve" smooth="yes"/>
      <point x="388" y="-234"/>
      <point x="473" y="-108"/>
      <point x="473" y="91" type="curve"/>
      <point x="473" y="1284" type="line"/>
      <point x="153" y="1284" type="line"/>
      <point x="153" y="1182" type="line"/>
      <point x="355" y="1182" type="line"/>
    </contour>
  </outline>
</glyph>
<glyph name="K" format="1">
  <advance width="1024"/>
  <unicode hex="004B"/>
  <outline>
    <contour>
      <point x="922" y="0" type="line"/>
      <point x="485" y="721" type="line"/>
      <point x="910" y="1284" type="line"/>
      <point x="772" y="1284" type="line"/>
      <point x="379" y="764" type="line"/>
      <point x="238" y="595" type="line"/>
      <point x="238" y="1284" type="line"/>
      <point x="123" y="1284" type="line"/>
      <point x="123" y="0" type="line"/>
      <point x="238" y="0" type="line"/>
      <point x="238" y="480" type="line"/>
      <point x="398" y="658" type="line"/>
      <point x="793" y="-1" type="line"/>
    </contour>
  </outline>
</glyph>
<glyph name="L" format="1">
  <advance width="791"/>
  <unicode hex="004C"/>
  <outline>
    <contour>
      <point x="130" y="0" type="line"/>
      <point x="767" y="0" type="line"/>
      <point x="767" y="100" type="line"/>
      <point x="245" y="100" type="line"/>
      <point x="245" y="1284" type="line"/>
      <point x="130" y="1284" type="line"/>
    </contour>
  </outline>
</glyph>
<glyph name="M" format="1">
  <advance width="1141"/>
  <unicode hex="004D"/>
  <outline>
    <contour>
      <point x="879" y="1284" type="line"/>
      <point x="575" y="433" type="line"/>
      <point x="263" y="1284" type="line"/>
      <point x="123" y="1284" type="line"/>
      <point x="123" y="0" type="line"/>
      <point x="235" y="0" type="line"/>
      <point x="235" y="1066" type="line"/>
      <point x="497" y="350" type="line"/>
      <point x="643" y="350" type="line"/>
      <point x="906" y="1064" type="line"/>
      <point x="906" y="0" type="line"/>
      <point x="1018" y="0" type="line"/>
      <point x="1018" y="1284" type="line"/>
    </contour>
  </outline>
</glyph>
<glyph name="N" format="1">
  <advance width="1088"/>
  <unicode hex="004E"/>
  <outline>
    <contour>
      <point x="123" y="1284" type="line"/>
      <point x="123" y="0" type="line"/>
      <point x="237" y="0" type="line"/>
      <point x="237" y="1105" type="line"/>
      <point x="838" y="0" type="line"/>
      <point x="965" y="0" type="line"/>
      <point x="965" y="1284" type="line"/>
      <point x="850" y="1284" type="line"/>
      <point x="850" y="197" type="line"/>
      <point x="255" y="1284" type="line"/>
    </contour>
  </outline>
</glyph>
<glyph name="O" format="1">
  <advance width="1090"/>
  <unicode hex="004F"/>
  <outline>
    <contour>
      <point x="545" y="84" type="curve" smooth="yes"/>
      <point x="330" y="84"/>
      <point x="223" y="236"/>
      <point x="223" y="645" type="curve" smooth="yes"/>
      <point x="223" y="1058"/>
      <point x="333" y="1208"/>
      <point x="545" y="1208" type="curve" smooth="yes"/>
      <point x="757" y="1208"/>
      <point x="867" y="1058"/>
      <point x="867" y="645" type="curve" smooth="yes"/>
      <point x="867" y="236"/>
      <point x="760" y="84"/>
    </contour>
    <contour>
      <point x="545" y="-16" type="curve" smooth="yes"/>
      <point x="901" y="-16"/>
      <point x="983" y="279"/>
      <point x="983" y="648" type="curve" smooth="yes"/>
      <point x="983" y="1017"/>
      <point x="901" y="1308"/>
      <point x="545" y="1308" type="curve" smooth="yes"/>
      <point x="189" y="1308"/>
      <point x="107" y="1017"/>
      <point x="107" y="648" type="curve" smooth="yes"/>
      <point x="107" y="279"/>
      <point x="189" y="-16"/>
    </contour>
  </outline>
</glyph>
<glyph name="P" format="1">
  <advance width="931"/>
  <unicode hex="0050"/>
  <outline>
    <contour>
      <point x="761" y="900" type="curve" smooth="yes"/>
      <point x="761" y="639"/>
      <point x="614" y="622"/>
      <point x="335" y="622" type="curve" smooth="yes"/>
      <point x="238" y="622" type="line"/>
      <point x="238" y="1184" type="line"/>
      <point x="361" y="1184" type="line" smooth="yes"/>
      <point x="629" y="1184"/>
      <point x="761" y="1157"/>
    </contour>
    <contour>
      <point x="876" y="902" type="curve" smooth="yes"/>
      <point x="876" y="1231"/>
      <point x="680" y="1284"/>
      <point x="339" y="1284" type="curve" smooth="yes"/>
      <point x="124" y="1284" type="line"/>
      <point x="124" y="0" type="line"/>
      <point x="238" y="0" type="line"/>
      <point x="238" y="522" type="line"/>
      <point x="358" y="522" type="line" smooth="yes"/>
      <point x="688" y="522"/>
      <point x="876" y="585"/>
    </contour>
  </outline>
</glyph>
<glyph name="Q" format="1">
  <advance width="1105"/>
  <unicode hex="0051"/>
  <outline>
    <contour>
      <point x="939" y="-104" type="line"/>
      <point x="613" y="351" type="line"/>
      <point x="541" y="295" type="line"/>
      <point x="868" y="-162" type="line"/>
    </contour>
    <component base="O" xOffset="-3"/>
  </outline>
</glyph>
<glyph name="R" format="1">
  <advance width="1031"/>
  <unicode hex="0052"/>
  <outline>
    <contour>
      <point x="933" y="10" type="line"/>
      <point x="809" y="204"/>
      <point x="705" y="426"/>
      <point x="602" y="640" type="curve"/>
      <point x="501" y="622" type="line"/>
      <point x="595" y="406"/>
      <point x="690" y="173"/>
      <point x="815" y="-12" type="curve"/>
    </contour>
    <contour>
      <point x="760" y="920" type="curve" smooth="yes"/>
      <point x="760" y="677"/>
      <point x="610" y="662"/>
      <point x="324" y="662" type="curve" smooth="yes"/>
      <point x="237" y="662" type="line"/>
      <point x="237" y="1184" type="line"/>
      <point x="350" y="1184" type="line" smooth="yes"/>
      <point x="625" y="1184"/>
      <point x="760" y="1159"/>
    </contour>
    <contour>
      <point x="875" y="922" type="curve" smooth="yes"/>
      <point x="875" y="1233"/>
      <point x="675" y="1284"/>
      <point x="328" y="1284" type="curve" smooth="yes"/>
      <point x="123" y="1284" type="line"/>
      <point x="123" y="0" type="line"/>
      <point x="237" y="0" type="line"/>
      <point x="237" y="567" type="line"/>
      <point x="347" y="567" type="line" smooth="yes"/>
      <point x="683" y="567"/>
      <point x="875" y="621"/>
    </contour>
  </outline>
</glyph>
<glyph name="S" format="1">
  <advance width="956"/>
  <unicode hex="0053"/>
  <outline>
    <contour>
      <point x="811" y="1145" type="curve"/>
      <point x="832" y="1239" type="line"/>
      <point x="740" y="1281"/>
      <point x="620" y="1308"/>
      <point x="504" y="1308" type="curve" smooth="yes"/>
      <point x="296" y="1308"/>
      <point x="101" y="1221"/>
      <point x="101" y="972" type="curve" smooth="yes"/>
      <point x="101" y="724"/>
      <point x="281" y="666"/>
      <point x="473" y="609" type="curve" smooth="yes"/>
      <point x="629" y="562"/>
      <point x="743" y="518"/>
      <point x="743" y="336" type="curve" smooth="yes"/>
      <point x="743" y="148"/>
      <point x="606" y="84"/>
      <point x="450" y="84" type="curve" smooth="yes"/>
      <point x="336" y="84"/>
      <point x="212" y="118"/>
      <point x="123" y="165" type="curve"/>
      <point x="98" y="68" type="line"/>
      <point x="195" y="16"/>
      <point x="325" y="-17"/>
      <point x="450" y="-17" type="curve" smooth="yes"/>
      <point x="663" y="-17"/>
      <point x="863" y="79"/>
      <point x="863" y="337" type="curve" smooth="yes"/>
      <point x="863" y="604"/>
      <point x="700" y="654"/>
      <point x="505" y="718" type="curve" smooth="yes"/>
      <point x="361" y="765"/>
      <point x="221" y="795"/>
      <point x="221" y="972" type="curve" smooth="yes"/>
      <point x="221" y="1153"/>
      <point x="355" y="1208"/>
      <point x="504" y="1208" type="curve" smooth="yes"/>
      <point x="615" y="1208"/>
      <point x="733" y="1177"/>
    </contour>
  </outline>
</glyph>
<glyph name="T" format="1">
  <advance width="928"/>
  <unicode hex="0054"/>
  <outline>
    <contour>
      <point x="59" y="1284" type="line"/>
      <point x="59" y="1184" type="line"/>
      <point x="403" y="1184" type="line"/>
      <point x="403" y="0" type="line"/>
      <point x="521" y="0" type="line"/>
      <point x="521" y="1184" type="line"/>
      <point x="870" y="1184" type="line"/>
      <point x="870" y="1284" type="line"/>
    </contour>
  </outline>
</glyph>
<glyph name="U" format="1">
  <advance width="1059"/>
  <unicode hex="0055"/>
  <outline>
    <contour>
      <point x="530" y="-16" type="curve" smooth="yes"/>
      <point x="942" y="-16"/>
      <point x="942" y="324"/>
      <point x="942" y="675" type="curve" smooth="yes"/>
      <point x="942" y="1284" type="line"/>
      <point x="823" y="1284" type="line"/>
      <point x="823" y="675" type="line" smooth="yes"/>
      <point x="823" y="341"/>
      <point x="823" y="84"/>
      <point x="530" y="84" type="curve" smooth="yes"/>
      <point x="237" y="84"/>
      <point x="237" y="341"/>
      <point x="237" y="675" type="curve" smooth="yes"/>
      <point x="237" y="1284" type="line"/>
      <point x="118" y="1284" type="line"/>
      <point x="118" y="675" type="line" smooth="yes"/>
      <point x="118" y="324"/>
      <point x="118" y="-16"/>
    </contour>
  </outline>
</glyph>
<glyph name="V" format="1">
  <advance width="1014"/>
  <unicode hex="0056"/>
  <outline>
    <contour>
      <point x="586" y="0" type="line"/>
      <point x="652" y="244"/>
      <point x="715" y="479"/>
      <point x="934" y="1285" type="curve"/>
      <point x="813" y="1285" type="line"/>
      <point x="708" y="875"/>
      <point x="617" y="524"/>
      <point x="507" y="114" type="curve"/>
      <point x="397" y="524"/>
      <point x="306" y="875"/>
      <point x="201" y="1285" type="curve"/>
      <point x="80" y="1285" type="line"/>
      <point x="299" y="479"/>
      <point x="362" y="244"/>
      <point x="428" y="0" type="curve"/>
    </contour>
  </outline>
</glyph>
<glyph name="W" format="1">
  <advance width="1321"/>
  <unicode hex="0057"/>
  <outline>
    <contour>
      <point x="428" y="221" type="line"/>
      <point x="397" y="131" type="line"/>
      <point x="354" y="475" type="line"/>
      <point x="310" y="776"/>
      <point x="266" y="1071"/>
      <point x="223" y="1373" type="curve"/>
      <point x="103" y="1373" type="line"/>
      <point x="309" y="-1" type="line"/>
      <point x="481" y="-1" type="line"/>
      <point x="541" y="264"/>
      <point x="604" y="526"/>
      <point x="660" y="794" type="curve"/>
      <point x="664" y="794" type="line"/>
      <point x="697" y="630" type="line"/>
      <point x="839" y="-1" type="line"/>
      <point x="1014" y="-1" type="line"/>
      <point x="1218" y="1373" type="line"/>
      <point x="1101" y="1373" type="line"/>
      <point x="1058" y="1070"/>
      <point x="1012" y="775"/>
      <point x="968" y="474" type="curve"/>
      <point x="926" y="130" type="line"/>
      <point x="894" y="220" type="line"/>
      <point x="836" y="470"/>
      <point x="782" y="724"/>
      <point x="721" y="970" type="curve"/>
      <point x="605" y="970" type="line"/>
      <point x="562" y="796"/>
      <point x="524" y="617"/>
      <point x="483" y="441" type="curve"/>
      <point x="463" y="368"/>
      <point x="445" y="295"/>
      <point x="428" y="219" type="curve" smooth="yes"/>
    </contour>
  </outline>
</glyph>
<glyph name="X" format="1">
  <advance width="1041"/>
  <unicode hex="0058"/>
  <outline>
    <contour>
      <point x="439" y="707" type="line"/>
      <point x="339" y="494" type="line" smooth="yes"/>
      <point x="260" y="328"/>
      <point x="186" y="165"/>
      <point x="108" y="-1" type="curve"/>
      <point x="249" y="-1" type="line"/>
      <point x="510" y="595" type="line"/>
      <point x="513" y="595" type="line"/>
      <point x="788" y="-1" type="line"/>
      <point x="935" y="-1" type="line"/>
      <point x="854" y="164"/>
      <point x="776" y="327"/>
      <point x="697" y="493" type="curve"/>
      <point x="590" y="706" type="line"/>
      <point x="688" y="906" type="line"/>
      <point x="762" y="1063"/>
      <point x="834" y="1216"/>
      <point x="907" y="1373" type="curve"/>
      <point x="769" y="1373" type="line"/>
      <point x="519" y="814" type="line"/>
      <point x="516" y="814"/>
      <point x="509" y="825"/>
      <point x="498" y="848" type="curve" smooth="yes"/>
      <point x="419" y="1009"/>
      <point x="344" y="1209"/>
      <point x="267" y="1373" type="curve"/>
      <point x="123" y="1373" type="line"/>
      <point x="229" y="1150"/>
      <point x="333" y="926"/>
      <point x="440" y="705" type="curve" smooth="yes"/>
    </contour>
  </outline>
</glyph>
<glyph name="Y" format="1">
  <advance width="1027"/>
  <unicode hex="0059"/>
  <outline>
    <contour>
      <point x="452" y="586" type="line"/>
      <point x="452" y="0" type="line"/>
      <point x="570" y="0" type="line"/>
      <point x="570" y="588" type="line"/>
      <point x="584" y="617"/>
      <point x="600" y="650"/>
      <point x="619" y="688" type="curve" smooth="yes"/>
      <point x="731" y="912"/>
      <point x="848" y="1145"/>
      <point x="956" y="1374" type="curve"/>
      <point x="820" y="1374" type="line"/>
      <point x="741" y="1203"/>
      <point x="650" y="1012"/>
      <point x="575" y="840" type="curve"/>
      <point x="514" y="711" type="line"/>
      <point x="512" y="711" type="line"/>
      <point x="453" y="840" type="line"/>
      <point x="378" y="1012"/>
      <point x="285" y="1200"/>
      <point x="208" y="1374" type="curve"/>
      <point x="72" y="1374" type="line"/>
      <point x="192" y="1110"/>
      <point x="333" y="847"/>
      <point x="453" y="586" type="curve"/>
    </contour>
  </outline>
</glyph>
<glyph name="Z" format="1">
  <advance width="941"/>
  <unicode hex="005A"/>
  <outline>
    <contour>
      <point x="114" y="1374" type="line"/>
      <point x="114" y="1257" type="line"/>
      <point x="699" y="1257" type="line"/>
      <point x="499" y="869"/>
      <point x="291" y="473"/>
      <point x="85" y="88" type="curve"/>
      <point x="96" y="0" type="line"/>
      <point x="858" y="0" type="line"/>
      <point x="858" y="115" type="line"/>
      <point x="232" y="115" type="line"/>
      <point x="429" y="492"/>
      <point x="630" y="891"/>
      <point x="830" y="1266" type="curve"/>
      <point x="824" y="1374" type="line"/>
    </contour>
  </outline>
</glyph>
<glyph name="bracketleft" format="1">
  <advance width="539"/>
  <unicode hex="005B"/>
  <outline>
    <contour>
      <point x="124" y="1591" type="line"/>
      <point x="124" y="-287" type="line"/>
      <point x="495" y="-287" type="line"/>
      <point x="495" y="-184" type="line"/>
      <point x="237" y="-184" type="line"/>
      <point x="242" y="133" type="line"/>
      <point x="242" y="1298" type="line"/>
      <point x="237" y="1487" type="line"/>
      <point x="495" y="1487" type="line"/>
      <point x="495" y="1591" type="line"/>
    </contour>
  </outline>
</glyph>
<glyph name="backslash" format="1">
  <advance width="785"/>
  <unicode hex="005C"/>
  <outline>
    <contour>
      <point x="118" y="1473" type="line"/>
      <point x="42" y="1432" type="line"/>
      <point x="668" y="-96" type="line"/>
      <point x="743" y="-55" type="line"/>
    </contour>
  </outline>
</glyph>
<glyph name="bracketright" format="1">
  <advance width="538"/>
  <unicode hex="005D"/>
  <outline>
    <contour>
      <point x="44" y="1591" type="line"/>
      <point x="44" y="1487" type="line"/>
      <point x="302" y="1487" type="line"/>
      <point x="297" y="1178" type="line"/>
      <point x="297" y="137" type="line"/>
      <point x="302" y="-184" type="line"/>
      <point x="44" y="-184" type="line"/>
      <point x="44" y="-287" type="line"/>
      <point x="415" y="-287" type="line"/>
      <point x="415" y="1591" type="line"/>
    </contour>
  </outline>
</glyph>
<glyph name="underscore" format="1">
  <advance width="1116"/>
  <unicode hex="005F"/>
  <outline>
    <contour>
      <point x="124" y="-219" type="line"/>
      <point x="992" y="-219" type="line"/>
      <point x="992" y="-125" type="line"/>
      <point x="124" y="-125" type="line"/>
    </contour>
  </outline>
</glyph>
<glyph name="a" format="1">
  <advance width="936"/>
  <unicode hex="0061"/>
  <outline>
    <contour>
      <point x="190" y="858" type="line"/>
      <point x="299" y="886"/>
      <point x="398" y="905"/>
      <point x="470" y="905" type="curve" smooth="yes"/>
      <point x="602" y="905"/>
      <point x="671" y="837"/>
      <point x="671" y="577" type="curve"/>
      <point x="340" y="577"/>
      <point x="98" y="577"/>
      <point x="98" y="278" type="curve" smooth="yes"/>
      <point x="98" y="69"/>
      <point x="229" y="-16"/>
      <point x="384" y="-16" type="curve" smooth="yes"/>
      <point x="485" y="-16"/>
      <point x="597" y="21"/>
      <point x="688" y="84" type="curve"/>
      <point x="709" y="35"/>
      <point x="728" y="-15"/>
      <point x="728" y="-15" type="curve"/>
      <point x="832" y="12" type="line"/>
      <point x="832" y="12"/>
      <point x="783" y="153"/>
      <point x="783" y="209" type="curve" smooth="yes"/>
      <point x="783" y="623" type="line" smooth="yes"/>
      <point x="783" y="923"/>
      <point x="645" y="1000"/>
      <point x="475" y="1000" type="curve" smooth="yes"/>
      <point x="376" y="1000"/>
      <point x="264" y="974"/>
      <point x="168" y="951" type="curve"/>
    </contour>
    <contour>
      <point x="214" y="275" type="curve" smooth="yes"/>
      <point x="214" y="480"/>
      <point x="394" y="480"/>
      <point x="673" y="480" type="curve"/>
      <point x="673" y="169" type="line"/>
      <point x="604" y="127"/>
      <point x="489" y="79"/>
      <point x="392" y="79" type="curve" smooth="yes"/>
      <point x="294" y="79"/>
      <point x="214" y="127"/>
    </contour>
  </outline>
</glyph>
<glyph name="b" format="1">
  <advance width="928"/>
  <unicode hex="0062"/>
  <outline>
    <contour>
      <point x="244" y="810" type="line"/>
      <point x="352" y="873"/>
      <point x="438" y="905"/>
      <point x="509" y="905" type="curve" smooth="yes"/>
      <point x="673" y="905"/>
      <point x="744" y="750"/>
      <point x="744" y="491" type="curve" smooth="yes"/>
      <point x="744" y="212"/>
      <point x="676" y="78"/>
      <point x="492" y="78" type="curve" smooth="yes"/>
      <point x="419" y="78"/>
      <point x="353" y="95"/>
      <point x="244" y="137" type="curve"/>
    </contour>
    <contour>
      <point x="230" y="50" type="line"/>
      <point x="335" y="6"/>
      <point x="418" y="-16"/>
      <point x="499" y="-16" type="curve" smooth="yes"/>
      <point x="738" y="-16"/>
      <point x="859" y="166"/>
      <point x="859" y="493" type="curve" smooth="yes"/>
      <point x="859" y="854"/>
      <point x="711" y="1000"/>
      <point x="523" y="1000" type="curve" smooth="yes"/>
      <point x="431" y="1000"/>
      <point x="342" y="966"/>
      <point x="244" y="905" type="curve"/>
      <point x="244" y="1373" type="line"/>
      <point x="133" y="1373" type="line"/>
      <point x="133" y="168" type="line"/>
      <point x="120" y="-2" type="line"/>
      <point x="220" y="-10" type="line"/>
    </contour>
  </outline>
</glyph>
<glyph name="c" format="1">
  <advance width="890"/>
  <unicode hex="0063"/>
  <outline>
    <contour>
      <point x="488" y="90" type="line" smooth="yes"/>
      <point x="278" y="90"/>
      <point x="222" y="261"/>
      <point x="222" y="494" type="curve" smooth="yes"/>
      <point x="222" y="736"/>
      <point x="277" y="889"/>
      <point x="489" y="889" type="curve" smooth="yes"/>
      <point x="554" y="889"/>
      <point x="603" y="878"/>
      <point x="651" y="859" type="curve"/>
      <point x="651" y="672" type="line"/>
      <point x="756" y="682" type="line"/>
      <point x="756" y="940" type="line"/>
      <point x="685" y="974"/>
      <point x="600" y="1001"/>
      <point x="493" y="1001" type="curve" smooth="yes"/>
      <point x="212" y="1001"/>
      <point x="105" y="806"/>
      <point x="105" y="496" type="curve" smooth="yes"/>
      <point x="105" y="326"/>
      <point x="134" y="196"/>
      <point x="200" y="111" type="curve"/>
      <point x="255" y="32"/>
      <point x="360" y="-20"/>
      <point x="489" y="-20" type="curve" smooth="yes"/>
      <point x="618" y="-20"/>
      <point x="727" y="30"/>
      <point x="782" y="115" type="curve"/>
      <point x="729" y="197" type="line"/>
      <point x="679" y="129"/>
      <point x="594" y="90"/>
      <point x="486" y="90" type="curve" smooth="yes"/>
    </contour>
  </outline>
</glyph>
<glyph name="d" format="1">
  <advance width="928"/>
  <unicode hex="0064"/>
  <outline>
    <contour>
      <point x="436" y="79" type="curve" smooth="yes"/>
      <point x="258" y="79"/>
      <point x="184" y="234"/>
      <point x="184" y="493" type="curve" smooth="yes"/>
      <point x="184" y="772"/>
      <point x="252" y="906"/>
      <point x="436" y="906" type="curve" smooth="yes"/>
      <point x="509" y="906"/>
      <point x="575" y="889"/>
      <point x="684" y="847" type="curve"/>
      <point x="684" y="137" type="line"/>
      <point x="575" y="95"/>
      <point x="509" y="79"/>
    </contour>
    <contour>
      <point x="429" y="-16" type="curve" smooth="yes"/>
      <point x="510" y="-16"/>
      <point x="593" y="6"/>
      <point x="698" y="50" type="curve"/>
      <point x="708" y="-10" type="line"/>
      <point x="808" y="-2" type="line"/>
      <point x="795" y="168" type="line"/>
      <point x="795" y="1373" type="line"/>
      <point x="684" y="1373" type="line"/>
      <point x="686" y="939" type="line"/>
      <point x="581" y="983"/>
      <point x="510" y="1000"/>
      <point x="429" y="1000" type="curve" smooth="yes"/>
      <point x="190" y="1000"/>
      <point x="69" y="818"/>
      <point x="69" y="491" type="curve" smooth="yes"/>
      <point x="69" y="130"/>
      <point x="226" y="-16"/>
    </contour>
  </outline>
</glyph>
<glyph name="e" format="1">
  <advance width="929"/>
  <unicode hex="0065"/>
  <outline>
    <contour>
      <point x="718" y="558" type="curve" smooth="yes"/>
      <point x="222" y="558" type="line"/>
      <point x="225" y="805"/>
      <point x="363" y="906"/>
      <point x="490" y="906" type="curve" smooth="yes"/>
      <point x="633" y="906"/>
      <point x="722" y="802"/>
      <point x="722" y="608" type="curve" smooth="yes"/>
      <point x="722" y="585"/>
      <point x="718" y="556"/>
    </contour>
    <contour>
      <point x="221" y="471" type="line"/>
      <point x="808" y="471" type="line"/>
      <point x="821" y="519"/>
      <point x="826" y="559"/>
      <point x="826" y="604" type="curve" smooth="yes"/>
      <point x="826" y="827"/>
      <point x="710" y="1000"/>
      <point x="487" y="1000" type="curve" smooth="yes"/>
      <point x="234" y="1000"/>
      <point x="102" y="775"/>
      <point x="102" y="496" type="curve" smooth="yes"/>
      <point x="102" y="241"/>
      <point x="220" y="-16"/>
      <point x="506" y="-16" type="curve" smooth="yes"/>
      <point x="596" y="-16"/>
      <point x="695" y="13"/>
      <point x="792" y="73" type="curve"/>
      <point x="749" y="158" type="line"/>
      <point x="668" y="106"/>
      <point x="583" y="78"/>
      <point x="505" y="78" type="curve" smooth="yes"/>
      <point x="346" y="78"/>
      <point x="235" y="199"/>
      <point x="221" y="446" type="curve" smooth="yes"/>
    </contour>
  </outline>
</glyph>
<glyph name="f" format="1">
  <advance width="756"/>
  <unicode hex="0066"/>
  <outline>
    <contour>
      <point x="246" y="985" type="line"/>
      <point x="246" y="1238"/>
      <point x="287" y="1394"/>
      <point x="505" y="1394" type="curve" smooth="yes"/>
      <point x="556" y="1394"/>
      <point x="612" y="1386"/>
      <point x="690" y="1359" type="curve"/>
      <point x="670" y="1274" type="line"/>
      <point x="599" y="1292"/>
      <point x="545" y="1302"/>
      <point x="503" y="1302" type="curve" smooth="yes"/>
      <point x="399" y="1302"/>
      <point x="357" y="1234"/>
      <point x="357" y="985" type="curve"/>
      <point x="606" y="985" type="line"/>
      <point x="606" y="890" type="line"/>
      <point x="357" y="890" type="line"/>
      <point x="357" y="100" type="line"/>
      <point x="551" y="100" type="line"/>
      <point x="551" y="0" type="line"/>
      <point x="86" y="0" type="line"/>
      <point x="86" y="100" type="line"/>
      <point x="246" y="100" type="line"/>
      <point x="246" y="890" type="line"/>
      <point x="71" y="890" type="line"/>
      <point x="71" y="985" type="line"/>
    </contour>
  </outline>
</glyph>
<glyph name="g" format="1">
  <advance width="954"/>
  <unicode hex="0067"/>
  <outline>
    <contour>
      <point x="470" y="111" type="line"/>
      <point x="268" y="111"/>
      <point x="222" y="267"/>
      <point x="222" y="498" type="curve" smooth="yes"/>
      <point x="222" y="737"/>
      <point x="279" y="889"/>
      <point x="489" y="889" type="curve" smooth="yes"/>
      <point x="585" y="889"/>
      <point x="656" y="848"/>
      <point x="716" y="805" type="curve"/>
      <point x="722" y="698"/>
      <point x="725" y="605"/>
      <point x="725" y="478" type="curve" smooth="yes"/>
      <point x="725" y="212" type="line"/>
      <point x="665" y="153"/>
      <point x="578" y="110"/>
      <point x="470" y="110" type="curve"/>
    </contour>
    <contour>
      <point x="468" y="-296" type="line"/>
      <point x="348" y="-296"/>
      <point x="244" y="-255"/>
      <point x="181" y="-187" type="curve"/>
      <point x="133" y="-271" type="line"/>
      <point x="197" y="-362"/>
      <point x="328" y="-409"/>
      <point x="471" y="-409" type="curve" smooth="yes"/>
      <point x="588" y="-409"/>
      <point x="676" y="-373"/>
      <point x="736" y="-314" type="curve" smooth="yes"/>
      <point x="760" y="-291"/>
      <point x="782" y="-258"/>
      <point x="800" y="-216" type="curve" smooth="yes"/>
      <point x="828" y="-149"/>
      <point x="835" y="-52"/>
      <point x="835" y="50" type="curve" smooth="yes"/>
      <point x="831" y="984" type="line"/>
      <point x="733" y="984" type="line"/>
      <point x="726" y="892" type="line"/>
      <point x="643" y="951"/>
      <point x="558" y="1011"/>
      <point x="418" y="994" type="curve"/>
      <point x="188" y="971"/>
      <point x="103" y="773"/>
      <point x="103" y="493" type="curve" smooth="yes"/>
      <point x="103" y="194"/>
      <point x="189" y="-3"/>
      <point x="453" y="-3" type="curve" smooth="yes"/>
      <point x="573" y="-3"/>
      <point x="655" y="53"/>
      <point x="724" y="120" type="curve"/>
      <point x="724" y="-17" type="line" smooth="yes"/>
      <point x="724" y="-209"/>
      <point x="640" y="-296"/>
      <point x="467" y="-296" type="curve"/>
    </contour>
  </outline>
</glyph>
<glyph name="h" format="1">
  <advance width="895"/>
  <unicode hex="0068"/>
  <outline>
    <contour>
      <point x="234" y="1308" type="line"/>
      <point x="123" y="1308" type="line"/>
      <point x="123" y="0" type="line"/>
      <point x="234" y="0" type="line"/>
      <point x="234" y="815" type="line"/>
      <point x="326" y="860"/>
      <point x="437" y="905"/>
      <point x="525" y="905" type="curve" smooth="yes"/>
      <point x="627" y="905"/>
      <point x="704" y="847"/>
      <point x="704" y="669" type="curve" smooth="yes"/>
      <point x="704" y="0" type="line"/>
      <point x="815" y="0" type="line"/>
      <point x="815" y="663" type="line" smooth="yes"/>
      <point x="815" y="901"/>
      <point x="697" y="1000"/>
      <point x="538" y="1000" type="curve" smooth="yes"/>
      <point x="448" y="1000"/>
      <point x="337" y="968"/>
      <point x="234" y="911" type="curve" smooth="yes"/>
    </contour>
  </outline>
</glyph>
<glyph name="i" format="1">
  <advance width="535"/>
  <unicode hex="0069"/>
  <outline>
    <contour>
      <point x="64" y="0" type="line"/>
      <point x="475" y="0" type="line"/>
      <point x="475" y="95" type="line"/>
      <point x="330" y="95" type="line"/>
      <point x="330" y="985" type="line"/>
      <point x="73" y="985" type="line"/>
      <point x="73" y="890" type="line"/>
      <point x="218" y="890" type="line"/>
      <point x="219" y="95" type="line"/>
      <point x="64" y="95" type="line"/>
    </contour>
    <contour>
      <point x="187" y="1264" type="curve" smooth="yes"/>
      <point x="187" y="1208"/>
      <point x="218" y="1176"/>
      <point x="268" y="1176" type="curve" smooth="yes"/>
      <point x="321" y="1176"/>
      <point x="348" y="1206"/>
      <point x="348" y="1266" type="curve" smooth="yes"/>
      <point x="348" y="1324"/>
      <point x="321" y="1356"/>
      <point x="268" y="1356" type="curve" smooth="yes"/>
      <point x="217" y="1356"/>
      <point x="187" y="1321"/>
    </contour>
  </outline>
</glyph>
<glyph name="j" format="1">
  <advance width="578"/>
  <unicode hex="006A"/>
  <outline>
    <contour>
      <point x="193" y="-200" type="curve" smooth="yes"/>
      <point x="142" y="-200"/>
      <point x="92" y="-189"/>
      <point x="45" y="-172" type="curve"/>
      <point x="29" y="-263" type="line"/>
      <point x="89" y="-286"/>
      <point x="145" y="-295"/>
      <point x="197" y="-295" type="curve" smooth="yes"/>
      <point x="373" y="-295"/>
      <point x="458" y="-169"/>
      <point x="458" y="30" type="curve" smooth="yes"/>
      <point x="458" y="985" type="line"/>
      <point x="131" y="985" type="line"/>
      <point x="131" y="890" type="line"/>
      <point x="347" y="890" type="line"/>
      <point x="347" y="28" type="line" smooth="yes"/>
      <point x="347" y="-112"/>
      <point x="313" y="-200"/>
    </contour>
    <contour>
      <point x="470" y="1262" type="curve" smooth="yes"/>
      <point x="470" y="1325"/>
      <point x="447" y="1356"/>
      <point x="389" y="1356" type="curve" smooth="yes"/>
      <point x="335" y="1356"/>
      <point x="308" y="1326"/>
      <point x="308" y="1266" type="curve" smooth="yes"/>
      <point x="308" y="1205"/>
      <point x="335" y="1174"/>
      <point x="389" y="1174" type="curve" smooth="yes"/>
      <point x="447" y="1174"/>
      <point x="470" y="1199"/>
    </contour>
  </outline>
</glyph>
<glyph name="k" format="1">
  <advance width="852"/>
  <unicode hex="006B"/>
  <outline>
    <contour>
      <point x="227" y="475" type="line"/>
      <point x="234" y="984" type="line"/>
      <point x="234" y="1386" type="line"/>
      <point x="123" y="1386" type="line"/>
      <point x="123" y="0" type="line"/>
      <point x="234" y="0" type="line"/>
      <point x="234" y="426" type="line"/>
      <point x="304" y="484" type="line"/>
      <point x="307" y="477"/>
      <point x="316" y="462"/>
      <point x="332" y="438" type="curve" smooth="yes"/>
      <point x="439" y="297"/>
      <point x="672" y="0"/>
      <point x="672" y="0" type="curve"/>
      <point x="807" y="0" type="line"/>
      <point x="807" y="0"/>
      <point x="532" y="356"/>
      <point x="392" y="527" type="curve"/>
      <point x="526" y="681"/>
      <point x="778" y="992"/>
      <point x="778" y="992" type="curve"/>
      <point x="646" y="992" type="line"/>
      <point x="646" y="992"/>
      <point x="368" y="644"/>
      <point x="228" y="477" type="curve" smooth="yes"/>
    </contour>
  </outline>
</glyph>
<glyph name="l" format="1">
  <advance width="569"/>
  <unicode hex="006C"/>
  <outline>
    <contour>
      <point x="84" y="95" type="line"/>
      <point x="84" y="0" type="line"/>
      <point x="502" y="0" type="line"/>
      <point x="502" y="95" type="line"/>
      <point x="349" y="95" type="line"/>
      <point x="349" y="1308" type="line"/>
      <point x="87" y="1308" type="line"/>
      <point x="87" y="1213" type="line"/>
      <point x="239" y="1213" type="line"/>
      <point x="239" y="95" type="line"/>
    </contour>
  </outline>
</glyph>
<glyph name="m" format="1">
  <advance width="1202"/>
  <unicode hex="006D"/>
  <outline>
    <contour>
      <point x="231" y="908" type="curve"/>
      <point x="226" y="985" type="line"/>
      <point x="125" y="985" type="line"/>
      <point x="125" y="0" type="line"/>
      <point x="236" y="0" type="line"/>
      <point x="236" y="820" type="line"/>
      <point x="308" y="870"/>
      <point x="375" y="905"/>
      <point x="429" y="905" type="curve" smooth="yes"/>
      <point x="500" y="905"/>
      <point x="547" y="843"/>
      <point x="547" y="668" type="curve" smooth="yes"/>
      <point x="547" y="210" type="line"/>
      <point x="658" y="210" type="line"/>
      <point x="658" y="663" type="line"/>
      <point x="649" y="814" type="line"/>
      <point x="725" y="865"/>
      <point x="798" y="905"/>
      <point x="854" y="905" type="curve" smooth="yes"/>
      <point x="923" y="905"/>
      <point x="969" y="845"/>
      <point x="969" y="672" type="curve" smooth="yes"/>
      <point x="969" y="0" type="line"/>
      <point x="1080" y="0" type="line"/>
      <point x="1080" y="671" type="line" smooth="yes"/>
      <point x="1080" y="904"/>
      <point x="992" y="1000"/>
      <point x="872" y="1000" type="curve" smooth="yes"/>
      <point x="794" y="1000"/>
      <point x="704" y="960"/>
      <point x="614" y="891" type="curve"/>
      <point x="575" y="966"/>
      <point x="515" y="1000"/>
      <point x="446" y="1000" type="curve" smooth="yes"/>
      <point x="378" y="1000"/>
      <point x="302" y="967"/>
    </contour>
  </outline>
</glyph>
<glyph name="n" format="1">
  <advance width="933"/>
  <unicode hex="006E"/>
  <outline>
    <contour>
      <point x="229" y="908" type="curve"/>
      <point x="224" y="985" type="line"/>
      <point x="123" y="985" type="line"/>
      <point x="123" y="0" type="line"/>
      <point x="234" y="0" type="line"/>
      <point x="234" y="817" type="line"/>
      <point x="326" y="862"/>
      <point x="437" y="905"/>
      <point x="525" y="905" type="curve" smooth="yes"/>
      <point x="627" y="905"/>
      <point x="704" y="847"/>
      <point x="704" y="669" type="curve" smooth="yes"/>
      <point x="704" y="0" type="line"/>
      <point x="815" y="0" type="line"/>
      <point x="815" y="663" type="line" smooth="yes"/>
      <point x="815" y="901"/>
      <point x="697" y="1000"/>
      <point x="538" y="1000" type="curve" smooth="yes"/>
      <point x="446" y="1000"/>
      <point x="334" y="967"/>
    </contour>
  </outline>
</glyph>
<glyph name="o" format="1">
  <advance width="958"/>
  <unicode hex="006F"/>
  <outline>
    <contour>
      <point x="479" y="79" type="curve" smooth="yes"/>
      <point x="266" y="79"/>
      <point x="222" y="250"/>
      <point x="222" y="492" type="curve" smooth="yes"/>
      <point x="222" y="734"/>
      <point x="266" y="905"/>
      <point x="479" y="905" type="curve" smooth="yes"/>
      <point x="692" y="905"/>
      <point x="736" y="734"/>
      <point x="736" y="492" type="curve" smooth="yes"/>
      <point x="736" y="250"/>
      <point x="692" y="79"/>
    </contour>
    <contour>
      <point x="479" y="-16" type="curve" smooth="yes"/>
      <point x="759" y="-16"/>
      <point x="851" y="183"/>
      <point x="851" y="492" type="curve" smooth="yes"/>
      <point x="851" y="801"/>
      <point x="759" y="1000"/>
      <point x="479" y="1000" type="curve" smooth="yes"/>
      <point x="199" y="1000"/>
      <point x="107" y="801"/>
      <point x="107" y="492" type="curve" smooth="yes"/>
      <point x="107" y="183"/>
      <point x="199" y="-16"/>
    </contour>
  </outline>
</glyph>
<glyph name="p" format="1">
  <advance width="919"/>
  <unicode hex="0070"/>
  <outline>
    <contour>
      <point x="244" y="813" type="line"/>
      <point x="352" y="876"/>
      <point x="429" y="905"/>
      <point x="500" y="905" type="curve" smooth="yes"/>
      <point x="664" y="905"/>
      <point x="735" y="750"/>
      <point x="735" y="491" type="curve" smooth="yes"/>
      <point x="735" y="212"/>
      <point x="667" y="78"/>
      <point x="483" y="78" type="curve" smooth="yes"/>
      <point x="416" y="78"/>
      <point x="345" y="96"/>
      <point x="244" y="131" type="curve"/>
    </contour>
    <contour>
      <point x="850" y="493" type="curve" smooth="yes"/>
      <point x="850" y="854"/>
      <point x="702" y="1000"/>
      <point x="514" y="1000" type="curve" smooth="yes"/>
      <point x="422" y="1000"/>
      <point x="333" y="966"/>
      <point x="235" y="905" type="curve"/>
      <point x="220" y="994" type="line"/>
      <point x="120" y="986" type="line"/>
      <point x="133" y="816" type="line"/>
      <point x="133" y="-389" type="line"/>
      <point x="244" y="-389" type="line"/>
      <point x="244" y="38" type="line"/>
      <point x="341" y="1"/>
      <point x="415" y="-16"/>
      <point x="490" y="-16" type="curve" smooth="yes"/>
      <point x="729" y="-16"/>
      <point x="850" y="166"/>
    </contour>
  </outline>
</glyph>
<glyph name="q" format="1">
  <advance width="920"/>
  <unicode hex="0071"/>
  <outline>
    <contour>
      <point x="69" y="493" type="curve" smooth="yes"/>
      <point x="69" y="166"/>
      <point x="190" y="-16"/>
      <point x="429" y="-16" type="curve" smooth="yes"/>
      <point x="504" y="-16"/>
      <point x="578" y="1"/>
      <point x="675" y="38" type="curve"/>
      <point x="675" y="-389" type="line"/>
      <point x="786" y="-389" type="line"/>
      <point x="786" y="816" type="line"/>
      <point x="799" y="986" type="line"/>
      <point x="699" y="994" type="line"/>
      <point x="684" y="905" type="line"/>
      <point x="586" y="966"/>
      <point x="497" y="1000"/>
      <point x="405" y="1000" type="curve" smooth="yes"/>
      <point x="217" y="1000"/>
      <point x="69" y="854"/>
    </contour>
    <contour>
      <point x="675" y="131" type="line"/>
      <point x="574" y="96"/>
      <point x="503" y="78"/>
      <point x="436" y="78" type="curve" smooth="yes"/>
      <point x="252" y="78"/>
      <point x="184" y="212"/>
      <point x="184" y="491" type="curve" smooth="yes"/>
      <point x="184" y="750"/>
      <point x="255" y="905"/>
      <point x="419" y="905" type="curve" smooth="yes"/>
      <point x="490" y="905"/>
      <point x="567" y="876"/>
      <point x="675" y="813" type="curve"/>
    </contour>
  </outline>
</glyph>
<glyph name="r" format="1">
  <advance width="558"/>
  <unicode hex="0072"/>
  <outline>
    <contour>
      <point x="236" y="0" type="line"/>
      <point x="236" y="804" type="line"/>
      <point x="287" y="847"/>
      <point x="398" y="891"/>
      <point x="514" y="891" type="curve"/>
      <point x="514" y="1000" type="line"/>
      <point x="420" y="996"/>
      <point x="306" y="953"/>
      <point x="237" y="899" type="curve"/>
      <point x="232" y="985" type="line"/>
      <point x="125" y="985" type="line"/>
      <point x="125" y="0" type="line"/>
    </contour>
  </outline>
</glyph>
<glyph name="s" format="1">
  <advance width="818"/>
  <unicode hex="0073"/>
  <outline>
    <contour>
      <point x="405" y="79" type="curve" smooth="yes"/>
      <point x="326" y="79"/>
      <point x="235" y="102"/>
      <point x="157" y="132" type="curve"/>
      <point x="135" y="40" type="line"/>
      <point x="210" y="5"/>
      <point x="303" y="-16"/>
      <point x="393" y="-16" type="curve" smooth="yes"/>
      <point x="563" y="-16"/>
      <point x="721" y="60"/>
      <point x="721" y="260" type="curve" smooth="yes"/>
      <point x="721" y="611"/>
      <point x="209" y="489"/>
      <point x="209" y="735" type="curve" smooth="yes"/>
      <point x="209" y="862"/>
      <point x="318" y="905"/>
      <point x="431" y="905" type="curve" smooth="yes"/>
      <point x="515" y="905"/>
      <point x="602" y="882"/>
      <point x="652" y="852" type="curve"/>
      <point x="674" y="944" type="line"/>
      <point x="598" y="979"/>
      <point x="505" y="1000"/>
      <point x="416" y="1000" type="curve" smooth="yes"/>
      <point x="250" y="1000"/>
      <point x="98" y="928"/>
      <point x="98" y="742" type="curve" smooth="yes"/>
      <point x="98" y="381"/>
      <point x="610" y="538"/>
      <point x="610" y="254" type="curve" smooth="yes"/>
      <point x="610" y="124"/>
      <point x="508" y="79"/>
    </contour>
  </outline>
</glyph>
<glyph name="t" format="1">
  <advance width="719"/>
  <unicode hex="0074"/>
  <outline>
    <contour>
      <point x="332" y="890" type="line"/>
      <point x="640" y="890" type="line"/>
      <point x="640" y="985" type="line"/>
      <point x="332" y="985" type="line"/>
      <point x="332" y="1267" type="line"/>
      <point x="245" y="1251" type="line"/>
      <point x="225" y="985" type="line"/>
      <point x="68" y="985" type="line"/>
      <point x="68" y="890" type="line"/>
      <point x="221" y="890" type="line"/>
      <point x="221" y="398" type="line" smooth="yes"/>
      <point x="221" y="145"/>
      <point x="254" y="-17"/>
      <point x="472" y="-17" type="curve" smooth="yes"/>
      <point x="523" y="-17"/>
      <point x="587" y="-9"/>
      <point x="665" y="18" type="curve"/>
      <point x="645" y="107" type="line"/>
      <point x="574" y="89"/>
      <point x="520" y="79"/>
      <point x="478" y="79" type="curve" smooth="yes"/>
      <point x="374" y="79"/>
      <point x="332" y="147"/>
      <point x="332" y="396" type="curve" smooth="yes"/>
    </contour>
  </outline>
</glyph>
<glyph name="u" format="1">
  <advance width="927"/>
  <unicode hex="0075"/>
  <outline>
    <contour>
      <point x="704" y="0" type="line"/>
      <point x="805" y="0" type="line"/>
      <point x="805" y="985" type="line"/>
      <point x="694" y="985" type="line"/>
      <point x="694" y="169" type="line"/>
      <point x="602" y="124"/>
      <point x="497" y="79"/>
      <point x="409" y="79" type="curve" smooth="yes"/>
      <point x="307" y="79"/>
      <point x="230" y="137"/>
      <point x="230" y="315" type="curve" smooth="yes"/>
      <point x="230" y="985" type="line"/>
      <point x="119" y="985" type="line"/>
      <point x="119" y="321" type="line" smooth="yes"/>
      <point x="119" y="83"/>
      <point x="237" y="-16"/>
      <point x="396" y="-16" type="curve" smooth="yes"/>
      <point x="488" y="-16"/>
      <point x="594" y="17"/>
      <point x="699" y="76" type="curve"/>
    </contour>
  </outline>
</glyph>
<glyph name="v" format="1">
  <advance width="880"/>
  <unicode hex="0076"/>
  <outline>
    <contour>
      <point x="446" y="112" type="line"/>
      <point x="197" y="985" type="line"/>
      <point x="80" y="985" type="line"/>
      <point x="378" y="0" type="line"/>
      <point x="515" y="0" type="line"/>
      <point x="797" y="985" type="line"/>
      <point x="681" y="985" type="line"/>
    </contour>
  </outline>
</glyph>
<glyph name="w" format="1">
  <advance width="1141"/>
  <unicode hex="0077"/>
  <outline>
    <contour>
      <point x="105" y="985" type="line"/>
      <point x="258" y="0" type="line"/>
      <point x="440" y="0" type="line"/>
      <point x="482" y="189"/>
      <point x="526" y="376"/>
      <point x="567" y="567" type="curve"/>
      <point x="572" y="567" type="line"/>
      <point x="602" y="424" type="line"/>
      <point x="697" y="0" type="line"/>
      <point x="882" y="0" type="line"/>
      <point x="1036" y="985" type="line"/>
      <point x="926" y="985" type="line"/>
      <point x="799" y="106" type="line"/>
      <point x="758" y="188" type="line"/>
      <point x="627" y="727" type="line"/>
      <point x="513" y="727" type="line"/>
      <point x="415" y="322" type="line"/>
      <point x="404" y="277"/>
      <point x="393" y="232"/>
      <point x="382" y="188" type="curve"/>
      <point x="343" y="106" type="line"/>
      <point x="302" y="401"/>
      <point x="257" y="692"/>
      <point x="214" y="985" type="curve"/>
    </contour>
  </outline>
</glyph>
<glyph name="x" format="1">
  <advance width="952"/>
  <unicode hex="0078"/>
  <outline>
    <contour>
      <point x="125" y="985" type="line"/>
      <point x="419" y="504" type="line"/>
      <point x="113" y="0" type="line"/>
      <point x="241" y="0" type="line"/>
      <point x="476" y="410" type="line"/>
      <point x="714" y="0" type="line"/>
      <point x="841" y="0" type="line"/>
      <point x="536" y="504" type="line"/>
      <point x="822" y="985" type="line"/>
      <point x="698" y="985" type="line"/>
      <point x="476" y="596" type="line"/>
      <point x="251" y="985" type="line"/>
    </contour>
  </outline>
</glyph>
<glyph name="y" format="1">
  <advance width="948"/>
  <unicode hex="0079"/>
  <outline>
    <contour>
      <point x="211" y="-265" type="line"/>
      <point x="194" y="-358" type="line"/>
      <point x="246" y="-378"/>
      <point x="301" y="-393"/>
      <point x="361" y="-393" type="curve" smooth="yes"/>
      <point x="396" y="-393"/>
      <point x="426" y="-385"/>
      <point x="453" y="-370" type="curve" smooth="yes"/>
      <point x="543" y="-316"/>
      <point x="579" y="-190"/>
      <point x="610" y="-65" type="curve"/>
      <point x="873" y="986" type="line"/>
      <point x="753" y="986" type="line"/>
      <point x="548" y="144" type="line"/>
      <point x="451" y="147" type="line"/>
      <point x="369" y="438"/>
      <point x="294" y="703"/>
      <point x="215" y="986" type="curve"/>
      <point x="89" y="986" type="line"/>
      <point x="191" y="667"/>
      <point x="283" y="383"/>
      <point x="367" y="87" type="curve"/>
      <point x="534" y="86" type="line"/>
      <point x="507" y="-36" type="line"/>
      <point x="496" y="-83"/>
      <point x="484" y="-123"/>
      <point x="473" y="-156" type="curve" smooth="yes"/>
      <point x="450" y="-224"/>
      <point x="425" y="-291"/>
      <point x="348" y="-291" type="curve" smooth="yes"/>
      <point x="300" y="-291"/>
      <point x="259" y="-278"/>
      <point x="212" y="-264" type="curve"/>
    </contour>
  </outline>
</glyph>
<glyph name="z" format="1">
  <advance width="780"/>
  <unicode hex="007A"/>
  <outline>
    <contour>
      <point x="124" y="985" type="line"/>
      <point x="124" y="890" type="line"/>
      <point x="548" y="890" type="line"/>
      <point x="91" y="102" type="line"/>
      <point x="105" y="0" type="line"/>
      <point x="689" y="0" type="line"/>
      <point x="689" y="95" type="line"/>
      <point x="214" y="95" type="line"/>
      <point x="674" y="900" type="line"/>
      <point x="664" y="985" type="line"/>
    </contour>
  </outline>
</glyph>
<glyph name="braceleft" format="1">
  <advance width="619"/>
  <unicode hex="007B"/>
  <outline>
    <contour>
      <point x="215" y="1037" type="line"/>
      <point x="215" y="958"/>
      <point x="214" y="874"/>
      <point x="209" y="801" type="curve"/>
      <point x="162" y="770"/>
      <point x="114" y="739"/>
      <point x="63" y="712" type="curve"/>
      <point x="63" y="603" type="line"/>
      <point x="114" y="574"/>
      <point x="162" y="547"/>
      <point x="209" y="514" type="curve"/>
      <point x="213" y="444"/>
      <point x="214" y="362"/>
      <point x="214" y="285" type="curve" smooth="yes"/>
      <point x="214" y="152"/>
      <point x="200" y="-4"/>
      <point x="220" y="-119" type="curve"/>
      <point x="230" y="-304"/>
      <point x="371" y="-297"/>
      <point x="542" y="-297" type="curve"/>
      <point x="550" y="-195" type="line"/>
      <point x="428" y="-195"/>
      <point x="325" y="-191"/>
      <point x="323" y="-55" type="curve"/>
      <point x="323" y="-35"/>
      <point x="322" y="-9"/>
      <point x="322" y="24" type="curve" smooth="yes"/>
      <point x="320" y="203"/>
      <point x="331" y="392"/>
      <point x="326" y="567" type="curve"/>
      <point x="305" y="583"/>
      <point x="270" y="600"/>
      <point x="245" y="614" type="curve" smooth="yes"/>
      <point x="224" y="626"/>
      <point x="188" y="643"/>
      <point x="179" y="664" type="curve"/>
      <point x="230" y="691"/>
      <point x="279" y="718"/>
      <point x="326" y="749" type="curve"/>
      <point x="331" y="946"/>
      <point x="311" y="1162"/>
      <point x="324" y="1353" type="curve"/>
      <point x="326" y="1485"/>
      <point x="431" y="1492"/>
      <point x="551" y="1492" type="curve"/>
      <point x="543" y="1594" type="line"/>
      <point x="368" y="1594"/>
      <point x="231" y="1598"/>
      <point x="221" y="1414" type="curve"/>
      <point x="213" y="1375"/>
      <point x="214" y="1319"/>
      <point x="214" y="1266" type="curve" smooth="yes"/>
      <point x="214" y="1194"/>
      <point x="215" y="1113"/>
      <point x="215" y="1038" type="curve"/>
    </contour>
  </outline>
</glyph>
<glyph name="bar" format="1">
  <advance width="362"/>
  <unicode hex="007C"/>
  <outline>
    <contour>
      <point x="124" y="1526" type="line"/>
      <point x="124" y="-436" type="line"/>
      <point x="240" y="-436" type="line"/>
      <point x="240" y="1526" type="line"/>
    </contour>
  </outline>
</glyph>
<glyph name="braceright" format="1">
  <advance width="620"/>
  <unicode hex="007D"/>
  <outline>
    <contour>
      <point x="441" y="664" type="line"/>
      <point x="437" y="657"/>
      <point x="429" y="649"/>
      <point x="417" y="640" type="curve" smooth="yes"/>
      <point x="381" y="615"/>
      <point x="329" y="591"/>
      <point x="293" y="567" type="curve"/>
      <point x="288" y="364"/>
      <point x="308" y="144"/>
      <point x="296" y="-55" type="curve"/>
      <point x="292" y="-188"/>
      <point x="192" y="-195"/>
      <point x="69" y="-195" type="curve"/>
      <point x="77" y="-297" type="line"/>
      <point x="123" y="-297"/>
      <point x="166" y="-296"/>
      <point x="204" y="-295" type="curve" smooth="yes"/>
      <point x="323" y="-291"/>
      <point x="391" y="-247"/>
      <point x="399" y="-119" type="curve"/>
      <point x="410" y="-37"/>
      <point x="407" y="65"/>
      <point x="406" y="161" type="curve" smooth="yes"/>
      <point x="405" y="284" type="line" smooth="yes"/>
      <point x="404" y="361"/>
      <point x="405" y="443"/>
      <point x="410" y="513" type="curve"/>
      <point x="458" y="547"/>
      <point x="505" y="574"/>
      <point x="556" y="603" type="curve"/>
      <point x="556" y="710" type="line"/>
      <point x="504" y="738"/>
      <point x="457" y="766"/>
      <point x="410" y="799" type="curve"/>
      <point x="403" y="910"/>
      <point x="406" y="1038"/>
      <point x="407" y="1155" type="curve" smooth="yes"/>
      <point x="408" y="1242"/>
      <point x="412" y="1340"/>
      <point x="400" y="1411" type="curve"/>
      <point x="397" y="1457"/>
      <point x="387" y="1492"/>
      <point x="371" y="1516" type="curve" smooth="yes"/>
      <point x="318" y="1595"/>
      <point x="203" y="1590"/>
      <point x="77" y="1590" type="curve"/>
      <point x="70" y="1488" type="line"/>
      <point x="95" y="1488"/>
      <point x="120" y="1488"/>
      <point x="146" y="1487" type="curve" smooth="yes"/>
      <point x="233" y="1485"/>
      <point x="293" y="1448"/>
      <point x="297" y="1349" type="curve" smooth="yes"/>
      <point x="298" y="1332"/>
      <point x="299" y="1308"/>
      <point x="299" y="1278" type="curve" smooth="yes"/>
      <point x="301" y="1103"/>
      <point x="290" y="917"/>
      <point x="294" y="744" type="curve"/>
      <point x="341" y="713"/>
      <point x="391" y="686"/>
      <point x="442" y="659" type="curve"/>
    </contour>
  </outline>
</glyph>
<glyph name="asciitilde" format="1">
  <advance width="1015"/>
  <unicode hex="007E"/>
  <outline>
    <contour>
      <point x="95" y="530" type="line"/>
      <point x="173" y="469" type="line"/>
      <point x="203" y="514"/>
      <point x="230" y="547"/>
      <point x="255" y="568" type="curve" smooth="yes"/>
      <point x="279" y="589"/>
      <point x="303" y="599"/>
      <point x="328" y="599" type="curve" smooth="yes"/>
      <point x="341" y="599"/>
      <point x="356" y="595"/>
      <point x="374" y="587" type="curve" smooth="yes"/>
      <point x="439" y="558"/>
      <point x="499" y="512"/>
      <point x="562" y="479" type="curve" smooth="yes"/>
      <point x="600" y="459"/>
      <point x="643" y="437"/>
      <point x="693" y="437" type="curve" smooth="yes"/>
      <point x="718" y="437"/>
      <point x="741" y="441"/>
      <point x="761" y="450" type="curve" smooth="yes"/>
      <point x="833" y="482"/>
      <point x="877" y="552"/>
      <point x="920" y="620" type="curve"/>
      <point x="844" y="679" type="line"/>
      <point x="815" y="639"/>
      <point x="789" y="608"/>
      <point x="767" y="586" type="curve" smooth="yes"/>
      <point x="744" y="564"/>
      <point x="721" y="553"/>
      <point x="697" y="553" type="curve" smooth="yes"/>
      <point x="685" y="553"/>
      <point x="670" y="557"/>
      <point x="652" y="565" type="curve" smooth="yes"/>
      <point x="586" y="595"/>
      <point x="517" y="640"/>
      <point x="451" y="674" type="curve" smooth="yes"/>
      <point x="415" y="693"/>
      <point x="369" y="717"/>
      <point x="324" y="717" type="curve" smooth="yes"/>
      <point x="302" y="717"/>
      <point x="282" y="712"/>
      <point x="262" y="702" type="curve" smooth="yes"/>
      <point x="191" y="668"/>
      <point x="142" y="598"/>
      <point x="98" y="530" type="curve"/>
    </contour>
  </outline>
</glyph>
<glyph name="exclamdown" format="1">
  <advance width="346"/>
  <unicode hex="00A1"/>
  <outline>
    <contour>
      <point x="246" y="1137" type="line"/>
      <point x="91" y="1137" type="line"/>
      <point x="91" y="946" type="line"/>
      <point x="246" y="946" type="line"/>
    </contour>
    <contour>
      <point x="223" y="758" type="curve"/>
      <point x="127" y="758" type="line"/>
      <point x="116" y="-117" type="line"/>
      <point x="116" y="-268" type="line"/>
      <point x="234" y="-268" type="line"/>
      <point x="234" y="-31" type="line"/>
      <point x="230" y="229"/>
      <point x="226" y="498"/>
    </contour>
  </outline>
</glyph>
<glyph name="cent" format="1">
  <advance width="790"/>
  <unicode hex="00A2"/>
  <outline>
    <contour>
      <point x="406" y="-16" type="line"/>
      <point x="406" y="-147" type="line"/>
      <point x="504" y="-147" type="line"/>
      <point x="504" y="-16" type="line"/>
      <point x="581" y="-7"/>
      <point x="646" y="13"/>
      <point x="712" y="41" type="curve"/>
      <point x="684" y="143" type="line"/>
      <point x="608" y="113"/>
      <point x="536" y="86"/>
      <point x="453" y="86" type="curve" smooth="yes"/>
      <point x="409" y="86"/>
      <point x="370" y="95"/>
      <point x="338" y="114" type="curve" smooth="yes"/>
      <point x="235" y="173"/>
      <point x="190" y="311"/>
      <point x="190" y="487" type="curve" smooth="yes"/>
      <point x="190" y="707"/>
      <point x="258" y="881"/>
      <point x="453" y="881" type="curve" smooth="yes"/>
      <point x="530" y="881"/>
      <point x="595" y="866"/>
      <point x="657" y="844" type="curve"/>
      <point x="680" y="946" type="line"/>
      <point x="626" y="965"/>
      <point x="566" y="977"/>
      <point x="500" y="984" type="curve"/>
      <point x="500" y="1125" type="line"/>
      <point x="402" y="1125" type="line"/>
      <point x="402" y="982" type="line"/>
      <point x="190" y="957"/>
      <point x="85" y="792"/>
      <point x="85" y="486" type="curve" smooth="yes"/>
      <point x="85" y="208"/>
      <point x="181" y="11"/>
      <point x="406" y="-15" type="curve"/>
    </contour>
  </outline>
</glyph>
<glyph name="sterling" format="1">
  <advance width="969"/>
  <unicode hex="00A3"/>
  <outline>
    <contour>
      <point x="346" y="41" type="line"/>
      <point x="394" y="41"/>
      <point x="449" y="22"/>
      <point x="492" y="9" type="curve" smooth="yes"/>
      <point x="537" y="-4"/>
      <point x="593" y="-23"/>
      <point x="643" y="-23" type="curve" smooth="yes"/>
      <point x="742" y="-23"/>
      <point x="819" y="8"/>
      <point x="880" y="55" type="curve"/>
      <point x="839" y="162" type="line"/>
      <point x="797" y="127"/>
      <point x="737" y="95"/>
      <point x="666" y="92" type="curve"/>
      <point x="658" y="91"/>
      <point x="650" y="91"/>
      <point x="641" y="92" type="curve" smooth="yes"/>
      <point x="607" y="96"/>
      <point x="576" y="104"/>
      <point x="544" y="112" type="curve" smooth="yes"/>
      <point x="493" y="126"/>
      <point x="440" y="147"/>
      <point x="387" y="150" type="curve"/>
      <point x="372" y="153"/>
      <point x="359" y="150"/>
      <point x="344" y="150" type="curve"/>
      <point x="315" y="147"/>
      <point x="289" y="140"/>
      <point x="265" y="129" type="curve"/>
      <point x="265" y="130"/>
      <point x="264" y="131"/>
      <point x="263" y="132" type="curve"/>
      <point x="336" y="207"/>
      <point x="390" y="286"/>
      <point x="393" y="419" type="curve"/>
      <point x="390" y="487"/>
      <point x="371" y="556"/>
      <point x="364" y="615" type="curve"/>
      <point x="679" y="615" type="line"/>
      <point x="684" y="724" type="line"/>
      <point x="342" y="724" type="line"/>
      <point x="325" y="791"/>
      <point x="317" y="865"/>
      <point x="320" y="950" type="curve"/>
      <point x="323" y="1123"/>
      <point x="375" y="1209"/>
      <point x="524" y="1217" type="curve"/>
      <point x="594" y="1217" type="line"/>
      <point x="675" y="1211"/>
      <point x="723" y="1178"/>
      <point x="769" y="1128" type="curve"/>
      <point x="811" y="1221" type="line"/>
      <point x="756" y="1291"/>
      <point x="693" y="1325"/>
      <point x="583" y="1328" type="curve"/>
      <point x="560" y="1330"/>
      <point x="539" y="1330"/>
      <point x="518" y="1328" type="curve"/>
      <point x="310" y="1320"/>
      <point x="210" y="1189"/>
      <point x="207" y="947" type="curve"/>
      <point x="206" y="872"/>
      <point x="214" y="798"/>
      <point x="232" y="726" type="curve"/>
      <point x="99" y="726" type="line"/>
      <point x="99" y="617" type="line"/>
      <point x="254" y="617" type="line"/>
      <point x="272" y="540"/>
      <point x="281" y="477"/>
      <point x="281" y="429" type="curve"/>
      <point x="279" y="257"/>
      <point x="186" y="178"/>
      <point x="94" y="97" type="curve"/>
      <point x="144" y="-15" type="line"/>
      <point x="206" y="13"/>
      <point x="262" y="42"/>
      <point x="347" y="42" type="curve"/>
    </contour>
  </outline>
</glyph>
<glyph name="yen" format="1">
  <advance width="1016"/>
  <unicode hex="00A5"/>
  <outline>
    <contour>
      <point x="565" y="377" type="line"/>
      <point x="845" y="377" type="line"/>
      <point x="845" y="481" type="line"/>
      <point x="565" y="481" type="line"/>
      <point x="565" y="582" type="line"/>
      <point x="576" y="645" type="line"/>
      <point x="845" y="645" type="line"/>
      <point x="845" y="750" type="line"/>
      <point x="623" y="750" type="line"/>
      <point x="940" y="1366" type="line"/>
      <point x="815" y="1366" type="line"/>
      <point x="715" y="1162"/>
      <point x="610" y="963"/>
      <point x="514" y="755" type="curve"/>
      <point x="509" y="755" type="line"/>
      <point x="466" y="843" type="line"/>
      <point x="380" y="1018"/>
      <point x="294" y="1193"/>
      <point x="208" y="1368" type="curve"/>
      <point x="75" y="1368" type="line"/>
      <point x="396" y="752" type="line"/>
      <point x="171" y="752" type="line"/>
      <point x="171" y="647" type="line"/>
      <point x="442" y="647" type="line"/>
      <point x="455" y="584" type="line"/>
      <point x="455" y="483" type="line"/>
      <point x="171" y="483" type="line"/>
      <point x="171" y="379" type="line"/>
      <point x="455" y="379" type="line"/>
      <point x="455" y="2" type="line"/>
      <point x="565" y="2" type="line"/>
    </contour>
  </outline>
</glyph>
<glyph name="section" format="1">
  <advance width="858"/>
  <unicode hex="00A7"/>
  <outline>
    <contour>
      <point x="566" y="446" type="line"/>
      <point x="527" y="465"/>
      <point x="483" y="483"/>
      <point x="439" y="500" type="curve"/>
      <point x="330" y="545" type="line"/>
      <point x="263" y="570"/>
      <point x="212" y="601"/>
      <point x="212" y="698" type="curve" smooth="yes"/>
      <point x="212" y="780"/>
      <point x="260" y="827"/>
      <point x="313" y="859" type="curve"/>
      <point x="376" y="827"/>
      <point x="457" y="802"/>
      <point x="523" y="771" type="curve" smooth="yes"/>
      <point x="582" y="743"/>
      <point x="652" y="706"/>
      <point x="655" y="617" type="curve"/>
      <point x="655" y="535"/>
      <point x="601" y="489"/>
      <point x="566" y="444" type="curve"/>
    </contour>
    <contour>
      <point x="728" y="199" type="line"/>
      <point x="728" y="293"/>
      <point x="700" y="354"/>
      <point x="647" y="395" type="curve"/>
      <point x="709" y="446"/>
      <point x="763" y="511"/>
      <point x="763" y="616" type="curve" smooth="yes"/>
      <point x="763" y="791"/>
      <point x="673" y="836"/>
      <point x="553" y="884" type="curve" smooth="yes"/>
      <point x="504" y="904"/>
      <point x="446" y="929"/>
      <point x="378" y="959" type="curve" smooth="yes"/>
      <point x="305" y="990"/>
      <point x="236" y="1025"/>
      <point x="236" y="1133" type="curve" smooth="yes"/>
      <point x="236" y="1261"/>
      <point x="313" y="1303"/>
      <point x="439" y="1303" type="curve" smooth="yes"/>
      <point x="541" y="1303"/>
      <point x="611" y="1273"/>
      <point x="682" y="1225" type="curve"/>
      <point x="728" y="1313" type="line"/>
      <point x="657" y="1377"/>
      <point x="566" y="1407"/>
      <point x="437" y="1407" type="curve" smooth="yes"/>
      <point x="254" y="1407"/>
      <point x="125" y="1327"/>
      <point x="125" y="1124" type="curve" smooth="yes"/>
      <point x="125" y="1013"/>
      <point x="169" y="948"/>
      <point x="240" y="903" type="curve"/>
      <point x="165" y="861"/>
      <point x="101" y="796"/>
      <point x="101" y="682" type="curve" smooth="yes"/>
      <point x="101" y="578"/>
      <point x="133" y="527"/>
      <point x="193" y="489" type="curve" smooth="yes"/>
      <point x="288" y="428"/>
      <point x="398" y="393"/>
      <point x="510" y="339" type="curve"/>
      <point x="574" y="310"/>
      <point x="617" y="284"/>
      <point x="617" y="187" type="curve" smooth="yes"/>
      <point x="617" y="66"/>
      <point x="535" y="26"/>
      <point x="420" y="26" type="curve" smooth="yes"/>
      <point x="301" y="26"/>
      <point x="220" y="63"/>
      <point x="145" y="116" type="curve"/>
      <point x="102" y="26" type="line"/>
      <point x="183" y="-51"/>
      <point x="277" y="-79"/>
      <point x="418" y="-79" type="curve" smooth="yes"/>
      <point x="605" y="-79"/>
      <point x="729" y="0"/>
      <point x="729" y="200" type="curve"/>
    </contour>
  </outline>
</glyph>
<glyph name="copyright" format="1">
  <advance width="1017"/>
  <unicode hex="00A9"/>
  <outline>
    <contour>
      <point x="522" y="1098" type="line"/>
      <point x="458" y="1098"/>
      <point x="401" y="1086"/>
      <point x="349" y="1063" type="curve" smooth="yes"/>
      <point x="193" y="993"/>
      <point x="104" y="824"/>
      <point x="104" y="580" type="curve" smooth="yes"/>
      <point x="104" y="499"/>
      <point x="113" y="426"/>
      <point x="132" y="362" type="curve" smooth="yes"/>
      <point x="184" y="184"/>
      <point x="307" y="59"/>
      <point x="516" y="59" type="curve" smooth="yes"/>
      <point x="670" y="59"/>
      <point x="776" y="121"/>
      <point x="845" y="225" type="curve"/>
      <point x="852" y="247"/>
      <point x="857" y="271"/>
      <point x="860" y="297" type="curve"/>
      <point x="843" y="293"/>
      <point x="826" y="302"/>
      <point x="807" y="324" type="curve"/>
      <point x="767" y="375"/>
      <point x="741" y="472"/>
      <point x="741" y="575" type="curve" smooth="yes"/>
      <point x="741" y="667"/>
      <point x="744" y="744"/>
      <point x="751" y="806" type="curve" smooth="yes"/>
      <point x="757" y="868"/>
      <point x="762" y="915"/>
      <point x="763" y="948" type="curve"/>
      <point x="769" y="955"/>
      <point x="782" y="972"/>
      <point x="793" y="962" type="curve"/>
      <point x="750" y="1020"/>
      <point x="687" y="1052"/>
      <point x="605" y="1058" type="curve"/>
      <point x="585" y="1080"/>
      <point x="557" y="1097"/>
      <point x="522" y="1097" type="curve"/>
    </contour>
    <contour>
      <point x="789" y="718" type="line"/>
      <point x="792" y="852"/>
      <point x="721" y="956"/>
      <point x="619" y="976" type="curve"/>
      <point x="589" y="987"/>
      <point x="554" y="996"/>
      <point x="517" y="996" type="curve" smooth="yes"/>
      <point x="293" y="996"/>
      <point x="186" y="829"/>
      <point x="186" y="577" type="curve" smooth="yes"/>
      <point x="186" y="325"/>
      <point x="301" y="175"/>
      <point x="526" y="175" type="curve" smooth="yes"/>
      <point x="562" y="175"/>
      <point x="593" y="181"/>
      <point x="619" y="194" type="curve"/>
      <point x="616" y="215"/>
      <point x="611" y="233"/>
      <point x="605" y="251" type="curve"/>
      <point x="582" y="242"/>
      <point x="553" y="237"/>
      <point x="523" y="237" type="curve" smooth="yes"/>
      <point x="503" y="237"/>
      <point x="495" y="245"/>
      <point x="493" y="266" type="curve" smooth="yes"/>
      <point x="489" y="310"/>
      <point x="498" y="346"/>
      <point x="506" y="395" type="curve"/>
      <point x="563" y="526"/>
      <point x="630" y="635"/>
      <point x="713" y="733" type="curve"/>
      <point x="742" y="733"/>
      <point x="767" y="727"/>
      <point x="789" y="719" type="curve"/>
    </contour>
    <contour>
      <point x="911" y="578" type="line"/>
      <point x="911" y="879"/>
      <point x="787" y="1083"/>
      <point x="519" y="1083" type="curve" smooth="yes"/>
      <point x="456" y="1083"/>
      <point x="401" y="1072"/>
      <point x="352" y="1049" type="curve" smooth="yes"/>
      <point x="203" y="980"/>
      <point x="123" y="815"/>
      <point x="123" y="579" type="curve" smooth="yes"/>
      <point x="123" y="279"/>
      <point x="250" y="79"/>
      <point x="519" y="79" type="curve" smooth="yes"/>
      <point x="580" y="79"/>
      <point x="635" y="90"/>
      <point x="683" y="113" type="curve" smooth="yes"/>
      <point x="831" y="182"/>
      <point x="911" y="346"/>
      <point x="911" y="579" type="curve"/>
    </contour>
  </outline>
</glyph>
<glyph name="ordfeminine" format="1">
  <advance width="694"/>
  <unicode hex="00AA"/>
  <outline>
    <contour>
      <point x="337" y="1264" type="line"/>
      <point x="358" y="1264" type="line" smooth="yes"/>
      <point x="461" y="1264"/>
      <point x="470" y="1200"/>
      <point x="473" y="1083" type="curve"/>
      <point x="424" y="1083"/>
      <point x="383" y="1085"/>
      <point x="326" y="1085" type="curve"/>
      <point x="192" y="1079"/>
      <point x="105" y="1031"/>
      <point x="105" y="881" type="curve" smooth="yes"/>
      <point x="105" y="752"/>
      <point x="174" y="680"/>
      <point x="293" y="680" type="curve" smooth="yes"/>
      <point x="373" y="680"/>
      <point x="436" y="721"/>
      <point x="480" y="762" type="curve"/>
      <point x="483" y="729"/>
      <point x="493" y="700"/>
      <point x="513" y="683" type="curve"/>
      <point x="535" y="683"/>
      <point x="555" y="688"/>
      <point x="582" y="693" type="curve"/>
      <point x="575" y="789" type="line"/>
      <point x="561" y="801"/>
      <point x="563" y="814"/>
      <point x="563" y="845" type="curve" smooth="yes"/>
      <point x="563" y="1074" type="line" smooth="yes"/>
      <point x="563" y="1152"/>
      <point x="558" y="1218"/>
      <point x="536" y="1269" type="curve"/>
      <point x="504" y="1326"/>
      <point x="445" y="1353"/>
      <point x="356" y="1353" type="curve" smooth="yes"/>
      <point x="252" y="1353"/>
      <point x="182" y="1324"/>
      <point x="126" y="1265" type="curve"/>
      <point x="168" y="1197" type="line"/>
      <point x="204" y="1246"/>
      <point x="266" y="1259"/>
      <point x="336" y="1265" type="curve"/>
    </contour>
    <contour>
      <point x="315" y="769" type="line"/>
      <point x="233" y="769"/>
      <point x="197" y="796"/>
      <point x="197" y="886" type="curve" smooth="yes"/>
      <point x="197" y="917"/>
      <point x="201" y="940"/>
      <point x="211" y="955" type="curve" smooth="yes"/>
      <point x="252" y="1018"/>
      <point x="381" y="1000"/>
      <point x="473" y="1007" type="curve"/>
      <point x="473" y="863" type="line"/>
      <point x="442" y="809"/>
      <point x="387" y="769"/>
      <point x="314" y="769" type="curve"/>
    </contour>
  </outline>
</glyph>
<glyph name="guillemotleft" format="1">
  <advance width="923"/>
  <unicode hex="00AB"/>
  <outline>
    <contour>
      <point x="432" y="160" type="line"/>
      <point x="462" y="279" type="line"/>
      <point x="188" y="545" type="line"/>
      <point x="462" y="817" type="line"/>
      <point x="432" y="936" type="line"/>
      <point x="97" y="600" type="line"/>
      <point x="75" y="520" type="line"/>
    </contour>
    <contour>
      <point x="775" y="160" type="line"/>
      <point x="803" y="279" type="line"/>
      <point x="530" y="545" type="line"/>
      <point x="803" y="817" type="line"/>
      <point x="775" y="936" type="line"/>
      <point x="438" y="600" type="line"/>
      <point x="416" y="520" type="line"/>
    </contour>
  </outline>
</glyph>
<glyph name="logicalnot" format="1">
  <advance width="1018"/>
  <unicode hex="00AC"/>
  <outline>
    <contour>
      <point x="776" y="322" type="line"/>
      <point x="894" y="322" type="line"/>
      <point x="894" y="831" type="line"/>
      <point x="43" y="831" type="line"/>
      <point x="43" y="725" type="line"/>
      <point x="776" y="725" type="line"/>
    </contour>
  </outline>
</glyph>
<glyph name="registered" format="1">
  <advance width="1175"/>
  <unicode hex="00AE"/>
  <outline>
    <contour>
      <point x="1071" y="874" type="line"/>
      <point x="1071" y="951"/>
      <point x="1059" y="1022"/>
      <point x="1035" y="1087" type="curve" smooth="yes"/>
      <point x="967" y="1271"/>
      <point x="816" y="1405"/>
      <point x="587" y="1405" type="curve" smooth="yes"/>
      <point x="517" y="1405"/>
      <point x="452" y="1392"/>
      <point x="393" y="1366" type="curve" smooth="yes"/>
      <point x="228" y="1293"/>
      <point x="104" y="1127"/>
      <point x="104" y="874" type="curve" smooth="yes"/>
      <point x="104" y="796"/>
      <point x="116" y="724"/>
      <point x="139" y="659" type="curve" smooth="yes"/>
      <point x="206" y="475"/>
      <point x="358" y="340"/>
      <point x="587" y="340" type="curve" smooth="yes"/>
      <point x="658" y="340"/>
      <point x="723" y="353"/>
      <point x="782" y="379" type="curve" smooth="yes"/>
      <point x="949" y="452"/>
      <point x="1072" y="619"/>
      <point x="1072" y="873" type="curve"/>
    </contour>
    <contour>
      <point x="982" y="871" type="line"/>
      <point x="982" y="806"/>
      <point x="972" y="746"/>
      <point x="952" y="692" type="curve" smooth="yes"/>
      <point x="897" y="542"/>
      <point x="774" y="428"/>
      <point x="587" y="428" type="curve" smooth="yes"/>
      <point x="529" y="428"/>
      <point x="476" y="439"/>
      <point x="427" y="461" type="curve" smooth="yes"/>
      <point x="292" y="523"/>
      <point x="193" y="664"/>
      <point x="193" y="874" type="curve" smooth="yes"/>
      <point x="193" y="939"/>
      <point x="202" y="999"/>
      <point x="222" y="1053" type="curve" smooth="yes"/>
      <point x="277" y="1205"/>
      <point x="400" y="1319"/>
      <point x="588" y="1319" type="curve" smooth="yes"/>
      <point x="645" y="1319"/>
      <point x="698" y="1308"/>
      <point x="747" y="1286" type="curve" smooth="yes"/>
      <point x="885" y="1224"/>
      <point x="984" y="1083"/>
      <point x="984" y="871" type="curve"/>
    </contour>
    <contour>
      <point x="569" y="1187" type="curve"/>
      <point x="412" y="1187" type="line"/>
      <point x="412" y="564" type="line"/>
      <point x="490" y="564" type="line"/>
      <point x="490" y="808" type="line"/>
      <point x="598" y="808" type="line"/>
      <point x="640" y="729"/>
      <point x="680" y="645"/>
      <point x="715" y="558" type="curve"/>
      <point x="794" y="572" type="line"/>
      <point x="773" y="622" type="line" smooth="yes"/>
      <point x="743" y="692"/>
      <point x="708" y="759"/>
      <point x="674" y="822" type="curve"/>
      <point x="751" y="839"/>
      <point x="799" y="899"/>
      <point x="799" y="1000" type="curve" smooth="yes"/>
      <point x="799" y="1153"/>
      <point x="707" y="1187"/>
    </contour>
    <contour>
      <point x="722" y="996" type="line"/>
      <point x="722" y="972"/>
      <point x="719" y="953"/>
      <point x="714" y="939" type="curve" smooth="yes"/>
      <point x="693" y="884"/>
      <point x="624" y="887"/>
      <point x="550" y="887" type="curve" smooth="yes"/>
      <point x="490" y="887" type="line"/>
      <point x="490" y="1112" type="line"/>
      <point x="555" y="1112" type="line" smooth="yes"/>
      <point x="587" y="1112"/>
      <point x="613" y="1111"/>
      <point x="634" y="1109" type="curve" smooth="yes"/>
      <point x="697" y="1103"/>
      <point x="722" y="1074"/>
      <point x="722" y="997" type="curve"/>
    </contour>
  </outline>
</glyph>
<glyph name="degree" format="1">
  <advance width="682"/>
  <unicode hex="00B0"/>
  <outline>
    <contour>
      <point x="343" y="918" type="line"/>
      <point x="379" y="918"/>
      <point x="411" y="924"/>
      <point x="440" y="937" type="curve" smooth="yes"/>
      <point x="518" y="972"/>
      <point x="578" y="1049"/>
      <point x="578" y="1169" type="curve" smooth="yes"/>
      <point x="578" y="1204"/>
      <point x="572" y="1237"/>
      <point x="562" y="1268" type="curve" smooth="yes"/>
      <point x="529" y="1358"/>
      <point x="456" y="1421"/>
      <point x="344" y="1421" type="curve" smooth="yes"/>
      <point x="307" y="1421"/>
      <point x="274" y="1415"/>
      <point x="244" y="1402" type="curve" smooth="yes"/>
      <point x="164" y="1368"/>
      <point x="104" y="1290"/>
      <point x="104" y="1169" type="curve" smooth="yes"/>
      <point x="104" y="1132"/>
      <point x="110" y="1098"/>
      <point x="121" y="1067" type="curve" smooth="yes"/>
      <point x="155" y="978"/>
      <point x="229" y="917"/>
      <point x="342" y="917" type="curve"/>
    </contour>
    <contour>
      <point x="478" y="1168" type="curve" smooth="yes"/>
      <point x="478" y="1074"/>
      <point x="424" y="1011"/>
      <point x="339" y="1011" type="curve" smooth="yes"/>
      <point x="254" y="1011"/>
      <point x="205" y="1075"/>
      <point x="205" y="1170" type="curve" smooth="yes"/>
      <point x="205" y="1265"/>
      <point x="254" y="1328"/>
      <point x="339" y="1328" type="curve" smooth="yes"/>
      <point x="427" y="1328"/>
      <point x="478" y="1264"/>
    </contour>
  </outline>
</glyph>
<glyph name="plusminus" format="1">
  <advance width="995"/>
  <unicode hex="00B1"/>
  <outline>
    <contour>
      <point x="551" y="1042" type="line"/>
      <point x="444" y="1042" type="line"/>
      <point x="444" y="719" type="line"/>
      <point x="61" y="719" type="line"/>
      <point x="61" y="610" type="line"/>
      <point x="444" y="610" type="line"/>
      <point x="444" y="299" type="line"/>
      <point x="551" y="299" type="line"/>
      <point x="551" y="610" type="line"/>
      <point x="934" y="610" type="line"/>
      <point x="934" y="719" type="line"/>
      <point x="551" y="719" type="line"/>
    </contour>
    <contour>
      <point x="61" y="188" type="line"/>
      <point x="61" y="82" type="line"/>
      <point x="934" y="82" type="line"/>
      <point x="934" y="188" type="line"/>
    </contour>
  </outline>
</glyph>
<glyph name="mu" format="1">
  <advance width="907"/>
  <unicode hex="00B5"/>
  <outline>
    <contour>
      <point x="117" y="-309" type="line"/>
      <point x="215" y="-328" type="line"/>
      <point x="245" y="-257"/>
      <point x="252" y="-174"/>
      <point x="252" y="-68" type="curve"/>
      <point x="246" y="55" type="line"/>
      <point x="281" y="10"/>
      <point x="348" y="-23"/>
      <point x="425" y="-23" type="curve" smooth="yes"/>
      <point x="552" y="-23"/>
      <point x="635" y="46"/>
      <point x="717" y="100" type="curve"/>
      <point x="723" y="0" type="line"/>
      <point x="823" y="0" type="line"/>
      <point x="823" y="985" type="line"/>
      <point x="714" y="985" type="line"/>
      <point x="714" y="414" type="line" smooth="yes"/>
      <point x="714" y="319"/>
      <point x="705" y="254"/>
      <point x="695" y="180" type="curve"/>
      <point x="617" y="131"/>
      <point x="547" y="92"/>
      <point x="438" y="92" type="curve" smooth="yes"/>
      <point x="298" y="92"/>
      <point x="255" y="187"/>
      <point x="255" y="344" type="curve" smooth="yes"/>
      <point x="255" y="985" type="line"/>
      <point x="144" y="985" type="line"/>
      <point x="144" y="-66" type="line" smooth="yes"/>
      <point x="144" y="-165"/>
      <point x="137" y="-235"/>
      <point x="116" y="-309" type="curve"/>
    </contour>
  </outline>
</glyph>
<glyph name="paragraph" format="1">
  <advance width="965"/>
  <unicode hex="00B6"/>
  <outline>
    <contour>
      <point x="841" y="0" type="line"/>
      <point x="841" y="1434" type="line"/>
      <point x="776" y="1434" type="line"/>
      <point x="776" y="0" type="line"/>
    </contour>
    <contour>
      <point x="76" y="981" type="curve"/>
      <point x="76" y="901"/>
      <point x="84" y="834"/>
      <point x="100" y="781" type="curve" smooth="yes"/>
      <point x="151" y="610"/>
      <point x="288" y="558"/>
      <point x="481" y="541" type="curve"/>
      <point x="481" y="0" type="line"/>
      <point x="546" y="0" type="line"/>
      <point x="546" y="1434" type="line"/>
      <point x="481" y="1434" type="line" smooth="yes"/>
      <point x="201" y="1434"/>
      <point x="76" y="1293"/>
    </contour>
    <contour>
      <point x="481" y="1368" type="line"/>
      <point x="481" y="606" type="line"/>
      <point x="421" y="611"/>
      <point x="369" y="620"/>
      <point x="326" y="633" type="curve" smooth="yes"/>
      <point x="193" y="674"/>
      <point x="141" y="780"/>
      <point x="141" y="972" type="curve" smooth="yes"/>
      <point x="141" y="1055"/>
      <point x="148" y="1122"/>
      <point x="164" y="1173" type="curve" smooth="yes"/>
      <point x="208" y="1321"/>
      <point x="310" y="1363"/>
      <point x="481" y="1367" type="curve"/>
    </contour>
  </outline>
</glyph>
<glyph name="periodcentered" format="1">
  <advance width="384"/>
  <unicode hex="00B7"/>
  <outline>
    <contour>
      <point x="276" y="614" type="curve" smooth="yes"/>
      <point x="276" y="695"/>
      <point x="248" y="735"/>
      <point x="191" y="735" type="curve" smooth="yes"/>
      <point x="136" y="735"/>
      <point x="108" y="696"/>
      <point x="108" y="618" type="curve" smooth="yes"/>
      <point x="108" y="541"/>
      <point x="136" y="502"/>
      <point x="191" y="502" type="curve" smooth="yes"/>
      <point x="256" y="502"/>
      <point x="276" y="539"/>
    </contour>
  </outline>
</glyph>
<glyph name="ordmasculine" format="1">
  <advance width="717"/>
  <unicode hex="00BA"/>
  <outline>
    <contour>
      <point x="518" y="1016" type="curve" smooth="yes"/>
      <point x="518" y="858"/>
      <point x="495" y="768"/>
      <point x="357" y="768" type="curve" smooth="yes"/>
      <point x="225" y="768"/>
      <point x="199" y="864"/>
      <point x="199" y="1016" type="curve" smooth="yes"/>
      <point x="199" y="1172"/>
      <point x="222" y="1264"/>
      <point x="357" y="1264" type="curve" smooth="yes"/>
      <point x="492" y="1264"/>
      <point x="518" y="1172"/>
    </contour>
    <contour>
      <point x="357" y="1350" type="line"/>
      <point x="314" y="1350"/>
      <point x="278" y="1343"/>
      <point x="249" y="1329" type="curve" smooth="yes"/>
      <point x="147" y="1279"/>
      <point x="107" y="1183"/>
      <point x="107" y="1015" type="curve" smooth="yes"/>
      <point x="107" y="896"/>
      <point x="129" y="805"/>
      <point x="181" y="751" type="curve"/>
      <point x="218" y="708"/>
      <point x="278" y="679"/>
      <point x="357" y="679" type="curve" smooth="yes"/>
      <point x="401" y="679"/>
      <point x="437" y="686"/>
      <point x="466" y="700" type="curve" smooth="yes"/>
      <point x="569" y="751"/>
      <point x="610" y="847"/>
      <point x="610" y="1017" type="curve" smooth="yes"/>
      <point x="610" y="1227"/>
      <point x="544" y="1349"/>
      <point x="357" y="1349" type="curve"/>
    </contour>
  </outline>
</glyph>
<glyph name="guillemotright" format="1">
  <advance width="924"/>
  <unicode hex="00BB"/>
  <outline>
    <contour>
      <point x="461" y="279" type="line"/>
      <point x="491" y="160" type="line"/>
      <point x="848" y="520" type="line"/>
      <point x="820" y="608" type="line"/>
      <point x="491" y="936" type="line"/>
      <point x="461" y="817" type="line"/>
      <point x="736" y="545" type="line"/>
    </contour>
    <contour>
      <point x="120" y="279" type="line"/>
      <point x="148" y="160" type="line"/>
      <point x="507" y="520" type="line"/>
      <point x="486" y="600" type="line"/>
      <point x="148" y="936" type="line"/>
      <point x="120" y="817" type="line"/>
      <point x="393" y="545" type="line"/>
    </contour>
  </outline>
</glyph>
<glyph name="questiondown" format="1">
  <advance width="806"/>
  <unicode hex="00BF"/>
  <outline>
    <contour>
      <point x="492" y="768" type="line"/>
      <point x="439" y="768" type="line" smooth="yes"/>
      <point x="422" y="768"/>
      <point x="405" y="767"/>
      <point x="388" y="766" type="curve"/>
      <point x="388" y="729"/>
      <point x="390" y="694"/>
      <point x="390" y="659" type="curve" smooth="yes"/>
      <point x="390" y="552"/>
      <point x="372" y="512"/>
      <point x="321" y="457" type="curve" smooth="yes"/>
      <point x="301" y="435"/>
      <point x="273" y="407"/>
      <point x="238" y="373" type="curve"/>
      <point x="150" y="282"/>
      <point x="74" y="205"/>
      <point x="74" y="20" type="curve" smooth="yes"/>
      <point x="74" y="-5"/>
      <point x="76" y="-28"/>
      <point x="80" y="-49" type="curve" smooth="yes"/>
      <point x="113" y="-199"/>
      <point x="224" y="-286"/>
      <point x="393" y="-286" type="curve" smooth="yes"/>
      <point x="465" y="-286"/>
      <point x="522" y="-270"/>
      <point x="570" y="-244" type="curve" smooth="yes"/>
      <point x="634" y="-208"/>
      <point x="691" y="-164"/>
      <point x="736" y="-105" type="curve"/>
      <point x="675" y="-15" type="line"/>
      <point x="651" y="-41"/>
      <point x="627" y="-62"/>
      <point x="605" y="-79" type="curve" smooth="yes"/>
      <point x="540" y="-127"/>
      <point x="494" y="-163"/>
      <point x="385" y="-163" type="curve" smooth="yes"/>
      <point x="346" y="-163"/>
      <point x="313" y="-156"/>
      <point x="287" y="-142" type="curve" smooth="yes"/>
      <point x="229" y="-111"/>
      <point x="192" y="-63"/>
      <point x="192" y="31" type="curve" smooth="yes"/>
      <point x="192" y="64"/>
      <point x="199" y="96"/>
      <point x="213" y="127" type="curve" smooth="yes"/>
      <point x="262" y="231"/>
      <point x="347" y="311"/>
      <point x="413" y="396" type="curve" smooth="yes"/>
      <point x="448" y="441"/>
      <point x="492" y="496"/>
      <point x="497" y="565" type="curve"/>
      <point x="500" y="585"/>
      <point x="501" y="607"/>
      <point x="500" y="631" type="curve"/>
      <point x="500" y="679"/>
      <point x="496" y="734"/>
      <point x="489" y="770" type="curve"/>
    </contour>
    <contour>
      <point x="516" y="911" type="line"/>
      <point x="516" y="1112" type="line"/>
      <point x="348" y="1112" type="line"/>
      <point x="348" y="911" type="line"/>
    </contour>
  </outline>
</glyph>
<glyph name="Agrave" format="1">
  <advance width="1104"/>
  <unicode hex="00C0"/>
  <outline>
    <contour>
      <point x="567" y="1268" type="line"/>
      <point x="783" y="440" type="line"/>
      <point x="322" y="440" type="line"/>
      <point x="531" y="1214" type="line"/>
    </contour>
    <contour>
      <point x="468" y="1374" type="line"/>
      <point x="76" y="0" type="line"/>
      <point x="199" y="0" type="line"/>
      <point x="330" y="328" type="line"/>
      <point x="815" y="328" type="line"/>
      <point x="905" y="0" type="line"/>
      <point x="1031" y="0" type="line"/>
      <point x="647" y="1374" type="line"/>
    </contour>
    <contour>
      <point x="741" y="1632" type="line"/>
      <point x="417" y="1876" type="line"/>
      <point x="341" y="1788" type="line"/>
      <point x="693" y="1565" type="line"/>
    </contour>
  </outline>
</glyph>
<glyph name="Aacute" format="1">
  <advance width="1105"/>
  <unicode hex="00C1"/>
  <outline>
    <contour>
      <point x="563" y="1268" type="line"/>
      <point x="779" y="440" type="line"/>
      <point x="318" y="440" type="line"/>
      <point x="527" y="1214" type="line"/>
    </contour>
    <contour>
      <point x="464" y="1374" type="line"/>
      <point x="72" y="0" type="line"/>
      <point x="195" y="0" type="line"/>
      <point x="287" y="328" type="line"/>
      <point x="811" y="328" type="line"/>
      <point x="901" y="0" type="line"/>
      <point x="1027" y="0" type="line"/>
      <point x="643" y="1374" type="line"/>
    </contour>
    <contour>
      <point x="383" y="1632" type="line"/>
      <point x="431" y="1563" type="line"/>
      <point x="781" y="1786" type="line"/>
      <point x="705" y="1874" type="line"/>
    </contour>
  </outline>
</glyph>
<glyph name="Acircumflex" format="1">
  <advance width="1114"/>
  <unicode hex="00C2"/>
  <outline>
    <contour>
      <point x="570" y="1268" type="line"/>
      <point x="786" y="440" type="line"/>
      <point x="325" y="440" type="line"/>
      <point x="534" y="1214" type="line"/>
    </contour>
    <contour>
      <point x="471" y="1374" type="line"/>
      <point x="79" y="0" type="line"/>
      <point x="202" y="0" type="line"/>
      <point x="281" y="328" type="line"/>
      <point x="818" y="328" type="line"/>
      <point x="908" y="0" type="line"/>
      <point x="1034" y="0" type="line"/>
      <point x="650" y="1374" type="line"/>
    </contour>
    <contour>
      <point x="561" y="1761" type="line"/>
      <point x="702" y="1548" type="line"/>
      <point x="816" y="1548" type="line"/>
      <point x="605" y="1837" type="line"/>
      <point x="514" y="1837" type="line"/>
      <point x="306" y="1548" type="line"/>
      <point x="420" y="1548" type="line"/>
    </contour>
  </outline>
</glyph>
<glyph name="Atilde" format="1">
  <advance width="1097"/>
  <unicode hex="00C3"/>
  <outline>
    <contour>
      <point x="562" y="1268" type="line"/>
      <point x="778" y="440" type="line"/>
      <point x="317" y="440" type="line"/>
      <point x="526" y="1214" type="line"/>
    </contour>
    <contour>
      <point x="463" y="1374" type="line"/>
      <point x="71" y="0" type="line"/>
      <point x="194" y="0" type="line"/>
      <point x="286" y="328" type="line"/>
      <point x="810" y="328" type="line"/>
      <point x="900" y="0" type="line"/>
      <point x="1026" y="0" type="line"/>
      <point x="642" y="1374" type="line"/>
    </contour>
    <contour>
      <point x="275" y="1679" type="line"/>
      <point x="344" y="1632" type="line"/>
      <point x="362" y="1657"/>
      <point x="380" y="1677"/>
      <point x="396" y="1692" type="curve" smooth="yes"/>
      <point x="412" y="1707"/>
      <point x="427" y="1715"/>
      <point x="442" y="1715" type="curve" smooth="yes"/>
      <point x="453" y="1715"/>
      <point x="468" y="1710"/>
      <point x="486" y="1699" type="curve" smooth="yes"/>
      <point x="504" y="1688"/>
      <point x="524" y="1676"/>
      <point x="544" y="1663" type="curve" smooth="yes"/>
      <point x="578" y="1643"/>
      <point x="625" y="1612"/>
      <point x="672" y="1612" type="curve" smooth="yes"/>
      <point x="698" y="1612"/>
      <point x="724" y="1622"/>
      <point x="751" y="1643" type="curve" smooth="yes"/>
      <point x="778" y="1664"/>
      <point x="802" y="1698"/>
      <point x="822" y="1746" type="curve"/>
      <point x="758" y="1791" type="line"/>
      <point x="740" y="1764"/>
      <point x="722" y="1744"/>
      <point x="707" y="1730" type="curve" smooth="yes"/>
      <point x="692" y="1716"/>
      <point x="677" y="1709"/>
      <point x="664" y="1709" type="curve" smooth="yes"/>
      <point x="654" y="1709"/>
      <point x="641" y="1714"/>
      <point x="623" y="1724" type="curve" smooth="yes"/>
      <point x="606" y="1734"/>
      <point x="587" y="1745"/>
      <point x="567" y="1758" type="curve" smooth="yes"/>
      <point x="533" y="1778"/>
      <point x="486" y="1808"/>
      <point x="440" y="1808" type="curve" smooth="yes"/>
      <point x="412" y="1808"/>
      <point x="383" y="1798"/>
      <point x="353" y="1778" type="curve" smooth="yes"/>
      <point x="324" y="1758"/>
      <point x="297" y="1724"/>
      <point x="272" y="1675" type="curve" smooth="yes"/>
    </contour>
  </outline>
</glyph>
<glyph name="Adieresis" format="1">
  <advance width="1096"/>
  <unicode hex="00C4"/>
  <outline>
    <contour>
      <point x="561" y="1268" type="line"/>
      <point x="777" y="440" type="line"/>
      <point x="316" y="440" type="line"/>
      <point x="525" y="1214" type="line"/>
    </contour>
    <contour>
      <point x="462" y="1374" type="line"/>
      <point x="70" y="0" type="line"/>
      <point x="193" y="0" type="line"/>
      <point x="285" y="328" type="line"/>
      <point x="809" y="328" type="line"/>
      <point x="899" y="0" type="line"/>
      <point x="1025" y="0" type="line"/>
      <point x="641" y="1374" type="line"/>
    </contour>
    <contour>
      <point x="295" y="1698" type="curve" smooth="yes"/>
      <point x="295" y="1648"/>
      <point x="319" y="1616"/>
      <point x="364" y="1616" type="curve" smooth="yes"/>
      <point x="413" y="1616"/>
      <point x="438" y="1646"/>
      <point x="438" y="1698" type="curve" smooth="yes"/>
      <point x="438" y="1748"/>
      <point x="412" y="1780"/>
      <point x="364" y="1780" type="curve" smooth="yes"/>
      <point x="320" y="1780"/>
      <point x="295" y="1746"/>
    </contour>
    <contour>
      <point x="656" y="1698" type="curve" smooth="yes"/>
      <point x="656" y="1648"/>
      <point x="683" y="1616"/>
      <point x="728" y="1616" type="curve" smooth="yes"/>
      <point x="774" y="1616"/>
      <point x="802" y="1649"/>
      <point x="802" y="1698" type="curve" smooth="yes"/>
      <point x="802" y="1747"/>
      <point x="775" y="1780"/>
      <point x="728" y="1780" type="curve" smooth="yes"/>
      <point x="681" y="1780"/>
      <point x="656" y="1747"/>
    </contour>
  </outline>
</glyph>
<glyph name="Aring" format="1">
  <advance width="1119"/>
  <unicode hex="00C5"/>
  <outline>
    <contour>
      <point x="573" y="1268" type="line"/>
      <point x="789" y="440" type="line"/>
      <point x="328" y="440" type="line"/>
      <point x="537" y="1214" type="line"/>
    </contour>
    <contour>
      <point x="474" y="1374" type="line"/>
      <point x="82" y="0" type="line"/>
      <point x="205" y="0" type="line"/>
      <point x="297" y="328" type="line"/>
      <point x="821" y="328" type="line"/>
      <point x="911" y="0" type="line"/>
      <point x="1037" y="0" type="line"/>
      <point x="653" y="1374" type="line"/>
    </contour>
    <contour>
      <point x="557" y="1513" type="curve" smooth="yes"/>
      <point x="663" y="1513"/>
      <point x="736" y="1582"/>
      <point x="736" y="1698" type="curve" smooth="yes"/>
      <point x="736" y="1814"/>
      <point x="664" y="1880"/>
      <point x="559" y="1880" type="curve" smooth="yes"/>
      <point x="454" y="1880"/>
      <point x="382" y="1814"/>
      <point x="382" y="1698" type="curve" smooth="yes"/>
      <point x="382" y="1581"/>
      <point x="452" y="1513"/>
    </contour>
    <contour>
      <point x="559" y="1804" type="curve" smooth="yes"/>
      <point x="625" y="1804"/>
      <point x="661" y="1769"/>
      <point x="661" y="1698" type="curve" smooth="yes"/>
      <point x="661" y="1629"/>
      <point x="622" y="1591"/>
      <point x="559" y="1591" type="curve" smooth="yes"/>
      <point x="495" y="1591"/>
      <point x="455" y="1629"/>
      <point x="455" y="1698" type="curve" smooth="yes"/>
      <point x="455" y="1769"/>
      <point x="493" y="1804"/>
    </contour>
  </outline>
</glyph>
<glyph name="AE" format="1">
  <advance width="1272"/>
  <unicode hex="00C6"/>
  <outline>
    <contour>
      <point x="601" y="1262" type="line"/>
      <point x="624" y="1262" type="line"/>
      <point x="659" y="442" type="line"/>
      <point x="346" y="442" type="line"/>
    </contour>
    <contour>
      <point x="520" y="1374" type="line"/>
      <point x="82" y="0" type="line"/>
      <point x="208" y="0" type="line"/>
      <point x="311" y="328" type="line"/>
      <point x="664" y="328" type="line"/>
      <point x="682" y="0" type="line"/>
      <point x="1185" y="0" type="line"/>
      <point x="1176" y="111" type="line"/>
      <point x="796" y="111" type="line"/>
      <point x="768" y="649" type="line"/>
      <point x="1109" y="649" type="line"/>
      <point x="1105" y="760" type="line"/>
      <point x="763" y="760" type="line"/>
      <point x="741" y="1262" type="line"/>
      <point x="1133" y="1262" type="line"/>
      <point x="1139" y="1374" type="line"/>
    </contour>
  </outline>
</glyph>
<glyph name="Ccedilla" format="1">
  <advance width="1010"/>
  <unicode hex="00C7"/>
  <outline>
    <contour>
      <point x="922" y="133" type="line"/>
      <point x="867" y="231" type="line"/>
      <point x="830" y="186"/>
      <point x="789" y="151"/>
      <point x="738" y="134" type="curve"/>
      <point x="690" y="112"/>
      <point x="630" y="95"/>
      <point x="559" y="95" type="curve" smooth="yes"/>
      <point x="426" y="95"/>
      <point x="338" y="153"/>
      <point x="288" y="251" type="curve" smooth="yes"/>
      <point x="237" y="355"/>
      <point x="214" y="504"/>
      <point x="214" y="685" type="curve" smooth="yes"/>
      <point x="214" y="894"/>
      <point x="238" y="1063"/>
      <point x="314" y="1165" type="curve"/>
      <point x="363" y="1234"/>
      <point x="445" y="1276"/>
      <point x="560" y="1276" type="curve" smooth="yes"/>
      <point x="645" y="1276"/>
      <point x="714" y="1254"/>
      <point x="767" y="1229" type="curve"/>
      <point x="782" y="1172"/>
      <point x="794" y="1103"/>
      <point x="800" y="1032" type="curve"/>
      <point x="913" y="1057" type="line"/>
      <point x="904" y="1149"/>
      <point x="888" y="1234"/>
      <point x="878" y="1317" type="curve"/>
      <point x="787" y="1358"/>
      <point x="688" y="1395"/>
      <point x="557" y="1395" type="curve" smooth="yes"/>
      <point x="184" y="1395"/>
      <point x="87" y="1093"/>
      <point x="87" y="676" type="curve" smooth="yes"/>
      <point x="87" y="436"/>
      <point x="126" y="234"/>
      <point x="223" y="116" type="curve"/>
      <point x="292" y="24"/>
      <point x="405" y="-28"/>
      <point x="557" y="-28" type="curve" smooth="yes"/>
      <point x="668" y="-28"/>
      <point x="751" y="3"/>
      <point x="830" y="34" type="curve"/>
      <point x="869" y="54"/>
      <point x="897" y="84"/>
      <point x="920" y="131" type="curve"/>
    </contour>
    <contour>
      <point x="522" y="-121" type="line"/>
      <point x="526" y="-107"/>
      <point x="528" y="-95"/>
      <point x="531" y="-82" type="curve"/>
      <point x="496" y="-82"/>
      <point x="461" y="-86"/>
      <point x="430" y="-92" type="curve"/>
      <point x="429" y="-188" type="line"/>
      <point x="454" y="-191"/>
      <point x="475" y="-195"/>
      <point x="496" y="-202" type="curve"/>
      <point x="557" y="-202"/>
      <point x="596" y="-221"/>
      <point x="596" y="-288" type="curve" smooth="yes"/>
      <point x="596" y="-345"/>
      <point x="566" y="-376"/>
      <point x="513" y="-376" type="curve" smooth="yes"/>
      <point x="494" y="-376" type="line"/>
      <point x="461" y="-373"/>
      <point x="432" y="-368"/>
      <point x="408" y="-355" type="curve"/>
      <point x="393" y="-435" type="line"/>
      <point x="431" y="-451"/>
      <point x="465" y="-461"/>
      <point x="510" y="-464" type="curve"/>
      <point x="523" y="-467"/>
      <point x="537" y="-464"/>
      <point x="552" y="-464" type="curve"/>
      <point x="636" y="-453"/>
      <point x="691" y="-388"/>
      <point x="691" y="-284" type="curve" smooth="yes"/>
      <point x="691" y="-174"/>
      <point x="619" y="-122"/>
      <point x="522" y="-122" type="curve"/>
    </contour>
  </outline>
</glyph>
<glyph name="Egrave" format="1">
  <advance width="834"/>
  <unicode hex="00C8"/>
  <outline>
    <contour>
      <point x="106" y="1374" type="line"/>
      <point x="106" y="0" type="line"/>
      <point x="785" y="0" type="line"/>
      <point x="779" y="115" type="line"/>
      <point x="224" y="115" type="line"/>
      <point x="224" y="649" type="line"/>
      <point x="725" y="649" type="line"/>
      <point x="725" y="762" type="line"/>
      <point x="224" y="762" type="line"/>
      <point x="224" y="1260" type="line"/>
      <point x="776" y="1260" type="line"/>
      <point x="781" y="1374" type="line"/>
    </contour>
    <contour>
      <point x="628" y="1632" type="line"/>
      <point x="303" y="1876" type="line"/>
      <point x="228" y="1788" type="line"/>
      <point x="580" y="1565" type="line"/>
    </contour>
  </outline>
</glyph>
<glyph name="Eacute" format="1">
  <advance width="832"/>
  <unicode hex="00C9"/>
  <outline>
    <contour>
      <point x="104" y="1374" type="line"/>
      <point x="104" y="0" type="line"/>
      <point x="783" y="0" type="line"/>
      <point x="777" y="115" type="line"/>
      <point x="222" y="115" type="line"/>
      <point x="222" y="649" type="line"/>
      <point x="723" y="649" type="line"/>
      <point x="723" y="762" type="line"/>
      <point x="222" y="762" type="line"/>
      <point x="222" y="1260" type="line"/>
      <point x="774" y="1260" type="line"/>
      <point x="779" y="1374" type="line"/>
    </contour>
    <contour>
      <point x="241" y="1632" type="line"/>
      <point x="287" y="1563" type="line"/>
      <point x="637" y="1786" type="line"/>
      <point x="563" y="1874" type="line"/>
    </contour>
  </outline>
</glyph>
<glyph name="Ecircumflex" format="1">
  <advance width="844"/>
  <unicode hex="00CA"/>
  <outline>
    <contour>
      <point x="108" y="1374" type="line"/>
      <point x="108" y="0" type="line"/>
      <point x="787" y="0" type="line"/>
      <point x="781" y="115" type="line"/>
      <point x="226" y="115" type="line"/>
      <point x="226" y="649" type="line"/>
      <point x="727" y="649" type="line"/>
      <point x="727" y="762" type="line"/>
      <point x="226" y="762" type="line"/>
      <point x="226" y="1260" type="line"/>
      <point x="778" y="1260" type="line"/>
      <point x="783" y="1374" type="line"/>
    </contour>
    <contour>
      <point x="456" y="1761" type="line"/>
      <point x="597" y="1548" type="line"/>
      <point x="711" y="1548" type="line"/>
      <point x="501" y="1837" type="line"/>
      <point x="409" y="1837" type="line"/>
      <point x="201" y="1548" type="line"/>
      <point x="315" y="1548" type="line"/>
    </contour>
  </outline>
</glyph>
<glyph name="Edieresis" format="1">
  <advance width="833"/>
  <unicode hex="00CB"/>
  <outline>
    <contour>
      <point x="107" y="1374" type="line"/>
      <point x="107" y="0" type="line"/>
      <point x="786" y="0" type="line"/>
      <point x="780" y="115" type="line"/>
      <point x="225" y="115" type="line"/>
      <point x="225" y="649" type="line"/>
      <point x="726" y="649" type="line"/>
      <point x="726" y="762" type="line"/>
      <point x="225" y="762" type="line"/>
      <point x="225" y="1260" type="line"/>
      <point x="777" y="1260" type="line"/>
      <point x="782" y="1374" type="line"/>
    </contour>
    <contour>
      <point x="194" y="1698" type="curve" smooth="yes"/>
      <point x="194" y="1648"/>
      <point x="221" y="1616"/>
      <point x="266" y="1616" type="curve" smooth="yes"/>
      <point x="313" y="1616"/>
      <point x="338" y="1647"/>
      <point x="338" y="1698" type="curve" smooth="yes"/>
      <point x="338" y="1748"/>
      <point x="313" y="1780"/>
      <point x="266" y="1780" type="curve" smooth="yes"/>
      <point x="220" y="1780"/>
      <point x="194" y="1747"/>
    </contour>
    <contour>
      <point x="557" y="1698" type="curve" smooth="yes"/>
      <point x="557" y="1648"/>
      <point x="584" y="1616"/>
      <point x="629" y="1616" type="curve" smooth="yes"/>
      <point x="675" y="1616"/>
      <point x="701" y="1649"/>
      <point x="701" y="1698" type="curve" smooth="yes"/>
      <point x="701" y="1746"/>
      <point x="674" y="1780"/>
      <point x="629" y="1780" type="curve" smooth="yes"/>
      <point x="582" y="1780"/>
      <point x="557" y="1747"/>
    </contour>
  </outline>
</glyph>
<glyph name="Igrave" format="1">
  <advance width="631"/>
  <unicode hex="00CC"/>
  <outline>
    <contour>
      <point x="68" y="1374" type="line"/>
      <point x="68" y="1272" type="line"/>
      <point x="260" y="1272" type="line"/>
      <point x="260" y="102" type="line"/>
      <point x="68" y="102" type="line"/>
      <point x="68" y="0" type="line"/>
      <point x="560" y="0" type="line"/>
      <point x="560" y="102" type="line"/>
      <point x="378" y="102" type="line"/>
      <point x="378" y="1272" type="line"/>
      <point x="562" y="1272" type="line"/>
      <point x="564" y="1374" type="line"/>
    </contour>
    <contour>
      <point x="506" y="1632" type="line"/>
      <point x="181" y="1876" type="line"/>
      <point x="107" y="1788" type="line"/>
      <point x="457" y="1565" type="line"/>
    </contour>
  </outline>
</glyph>
<glyph name="Iacute" format="1">
  <advance width="631"/>
  <unicode hex="00CD"/>
  <outline>
    <contour>
      <point x="67" y="1374" type="line"/>
      <point x="67" y="1272" type="line"/>
      <point x="259" y="1272" type="line"/>
      <point x="259" y="102" type="line"/>
      <point x="67" y="102" type="line"/>
      <point x="67" y="0" type="line"/>
      <point x="559" y="0" type="line"/>
      <point x="559" y="102" type="line"/>
      <point x="377" y="102" type="line"/>
      <point x="377" y="1272" type="line"/>
      <point x="561" y="1272" type="line"/>
      <point x="563" y="1374" type="line"/>
    </contour>
    <contour>
      <point x="119" y="1632" type="line"/>
      <point x="167" y="1563" type="line"/>
      <point x="517" y="1786" type="line"/>
      <point x="442" y="1874" type="line"/>
    </contour>
  </outline>
</glyph>
<glyph name="Icircumflex" format="1">
  <advance width="664"/>
  <unicode hex="00CE"/>
  <outline>
    <contour>
      <point x="82" y="1374" type="line"/>
      <point x="82" y="1272" type="line"/>
      <point x="274" y="1272" type="line"/>
      <point x="274" y="102" type="line"/>
      <point x="82" y="102" type="line"/>
      <point x="82" y="0" type="line"/>
      <point x="574" y="0" type="line"/>
      <point x="574" y="102" type="line"/>
      <point x="392" y="102" type="line"/>
      <point x="392" y="1272" type="line"/>
      <point x="576" y="1272" type="line"/>
      <point x="578" y="1374" type="line"/>
    </contour>
    <contour>
      <point x="333" y="1761" type="line"/>
      <point x="474" y="1548" type="line"/>
      <point x="588" y="1548" type="line"/>
      <point x="379" y="1837" type="line"/>
      <point x="287" y="1837" type="line"/>
      <point x="77" y="1548" type="line"/>
      <point x="193" y="1548" type="line"/>
    </contour>
  </outline>
</glyph>
<glyph name="Idieresis" format="1">
  <advance width="636"/>
  <unicode hex="00CF"/>
  <outline>
    <contour>
      <point x="68" y="1374" type="line"/>
      <point x="68" y="1272" type="line"/>
      <point x="260" y="1272" type="line"/>
      <point x="260" y="102" type="line"/>
      <point x="68" y="102" type="line"/>
      <point x="68" y="0" type="line"/>
      <point x="560" y="0" type="line"/>
      <point x="560" y="102" type="line"/>
      <point x="378" y="102" type="line"/>
      <point x="378" y="1272" type="line"/>
      <point x="562" y="1272" type="line"/>
      <point x="564" y="1374" type="line"/>
    </contour>
    <contour>
      <point x="65" y="1698" type="curve" smooth="yes"/>
      <point x="65" y="1648"/>
      <point x="92" y="1616"/>
      <point x="137" y="1616" type="curve" smooth="yes"/>
      <point x="183" y="1616"/>
      <point x="209" y="1647"/>
      <point x="209" y="1698" type="curve" smooth="yes"/>
      <point x="209" y="1747"/>
      <point x="182" y="1780"/>
      <point x="137" y="1780" type="curve" smooth="yes"/>
      <point x="91" y="1780"/>
      <point x="65" y="1747"/>
    </contour>
    <contour>
      <point x="426" y="1698" type="curve" smooth="yes"/>
      <point x="426" y="1648"/>
      <point x="452" y="1616"/>
      <point x="498" y="1616" type="curve" smooth="yes"/>
      <point x="544" y="1616"/>
      <point x="571" y="1649"/>
      <point x="571" y="1698" type="curve" smooth="yes"/>
      <point x="571" y="1747"/>
      <point x="545" y="1780"/>
      <point x="498" y="1780" type="curve" smooth="yes"/>
      <point x="452" y="1780"/>
      <point x="426" y="1747"/>
    </contour>
  </outline>
</glyph>
<glyph name="Ntilde" format="1">
  <advance width="1045"/>
  <unicode hex="00D1"/>
  <outline>
    <contour>
      <point x="104" y="1374" type="line"/>
      <point x="104" y="0" type="line"/>
      <point x="219" y="0" type="line"/>
      <point x="219" y="1167" type="line"/>
      <point x="222" y="1167" type="line"/>
      <point x="335" y="971" type="line" smooth="yes"/>
      <point x="482" y="713"/>
      <point x="631" y="461"/>
      <point x="779" y="205" type="curve"/>
      <point x="816" y="0" type="line"/>
      <point x="941" y="0" type="line"/>
      <point x="941" y="1374" type="line"/>
      <point x="825" y="1374" type="line"/>
      <point x="825" y="352" type="line"/>
      <point x="822" y="352" type="line"/>
      <point x="629" y="696"/>
      <point x="429" y="1033"/>
      <point x="233" y="1374" type="curve"/>
    </contour>
    <contour>
      <point x="250" y="1679" type="line"/>
      <point x="317" y="1632" type="line"/>
      <point x="336" y="1657"/>
      <point x="353" y="1677"/>
      <point x="368" y="1692" type="curve" smooth="yes"/>
      <point x="383" y="1707"/>
      <point x="399" y="1715"/>
      <point x="414" y="1715" type="curve" smooth="yes"/>
      <point x="426" y="1715"/>
      <point x="440" y="1710"/>
      <point x="458" y="1699" type="curve" smooth="yes"/>
      <point x="476" y="1688"/>
      <point x="496" y="1676"/>
      <point x="517" y="1663" type="curve" smooth="yes"/>
      <point x="551" y="1643"/>
      <point x="599" y="1612"/>
      <point x="645" y="1612" type="curve" smooth="yes"/>
      <point x="672" y="1612"/>
      <point x="699" y="1622"/>
      <point x="725" y="1643" type="curve" smooth="yes"/>
      <point x="752" y="1664"/>
      <point x="775" y="1698"/>
      <point x="796" y="1746" type="curve"/>
      <point x="731" y="1791" type="line"/>
      <point x="712" y="1764"/>
      <point x="696" y="1744"/>
      <point x="681" y="1730" type="curve" smooth="yes"/>
      <point x="667" y="1716"/>
      <point x="653" y="1709"/>
      <point x="639" y="1709" type="curve" smooth="yes"/>
      <point x="629" y="1709"/>
      <point x="616" y="1714"/>
      <point x="599" y="1724" type="curve" smooth="yes"/>
      <point x="581" y="1734"/>
      <point x="563" y="1745"/>
      <point x="542" y="1758" type="curve" smooth="yes"/>
      <point x="508" y="1778"/>
      <point x="460" y="1808"/>
      <point x="413" y="1808" type="curve" smooth="yes"/>
      <point x="329" y="1808"/>
      <point x="282" y="1740"/>
      <point x="251" y="1675" type="curve"/>
    </contour>
  </outline>
</glyph>
<glyph name="Ograve" format="1">
  <advance width="1083"/>
  <unicode hex="00D2"/>
  <outline>
    <contour>
      <point x="868" y="688" type="line"/>
      <point x="868" y="491"/>
      <point x="851" y="330"/>
      <point x="787" y="220" type="curve"/>
      <point x="744" y="141"/>
      <point x="660" y="93"/>
      <point x="542" y="93" type="curve" smooth="yes"/>
      <point x="485" y="93"/>
      <point x="437" y="103"/>
      <point x="399" y="123" type="curve" smooth="yes"/>
      <point x="302" y="173"/>
      <point x="267" y="249"/>
      <point x="241" y="388" type="curve" smooth="yes"/>
      <point x="226" y="472"/>
      <point x="217" y="581"/>
      <point x="217" y="714" type="curve" smooth="yes"/>
      <point x="217" y="823"/>
      <point x="225" y="913"/>
      <point x="239" y="985" type="curve" smooth="yes"/>
      <point x="275" y="1162"/>
      <point x="351" y="1277"/>
      <point x="543" y="1277" type="curve" smooth="yes"/>
      <point x="828" y="1277"/>
      <point x="867" y="1008"/>
      <point x="867" y="687" type="curve"/>
    </contour>
    <contour>
      <point x="541" y="-28" type="curve" smooth="yes"/>
      <point x="679" y="-28"/>
      <point x="779" y="20"/>
      <point x="848" y="95" type="curve"/>
      <point x="963" y="229"/>
      <point x="992" y="463"/>
      <point x="992" y="728" type="curve" smooth="yes"/>
      <point x="992" y="917"/>
      <point x="964" y="1075"/>
      <point x="901" y="1191" type="curve"/>
      <point x="839" y="1318"/>
      <point x="721" y="1396"/>
      <point x="543" y="1396" type="curve" smooth="yes"/>
      <point x="181" y="1396"/>
      <point x="91" y="1111"/>
      <point x="91" y="697" type="curve" smooth="yes"/>
      <point x="91" y="286"/>
      <point x="174" y="-28"/>
    </contour>
    <contour>
      <point x="744" y="1631" type="line"/>
      <point x="420" y="1875" type="line"/>
      <point x="346" y="1787" type="line"/>
      <point x="696" y="1564" type="line"/>
    </contour>
  </outline>
</glyph>
<glyph name="Oacute" format="1">
  <advance width="1083"/>
  <unicode hex="00D3"/>
  <outline>
    <contour>
      <point x="867" y="688" type="line"/>
      <point x="867" y="491"/>
      <point x="850" y="330"/>
      <point x="786" y="220" type="curve"/>
      <point x="743" y="141"/>
      <point x="659" y="93"/>
      <point x="541" y="93" type="curve" smooth="yes"/>
      <point x="484" y="93"/>
      <point x="436" y="103"/>
      <point x="398" y="123" type="curve" smooth="yes"/>
      <point x="301" y="173"/>
      <point x="266" y="249"/>
      <point x="240" y="388" type="curve" smooth="yes"/>
      <point x="225" y="472"/>
      <point x="216" y="581"/>
      <point x="216" y="714" type="curve" smooth="yes"/>
      <point x="216" y="823"/>
      <point x="224" y="913"/>
      <point x="238" y="985" type="curve" smooth="yes"/>
      <point x="274" y="1162"/>
      <point x="350" y="1277"/>
      <point x="542" y="1277" type="curve" smooth="yes"/>
      <point x="827" y="1277"/>
      <point x="866" y="1008"/>
      <point x="866" y="687" type="curve"/>
    </contour>
    <contour>
      <point x="540" y="-28" type="curve" smooth="yes"/>
      <point x="678" y="-28"/>
      <point x="778" y="20"/>
      <point x="847" y="95" type="curve"/>
      <point x="962" y="229"/>
      <point x="991" y="463"/>
      <point x="991" y="728" type="curve" smooth="yes"/>
      <point x="991" y="917"/>
      <point x="963" y="1075"/>
      <point x="900" y="1191" type="curve"/>
      <point x="838" y="1318"/>
      <point x="720" y="1396"/>
      <point x="542" y="1396" type="curve" smooth="yes"/>
      <point x="180" y="1396"/>
      <point x="90" y="1111"/>
      <point x="90" y="697" type="curve" smooth="yes"/>
      <point x="90" y="286"/>
      <point x="173" y="-28"/>
    </contour>
    <contour>
      <point x="361" y="1631" type="line"/>
      <point x="412" y="1562" type="line"/>
      <point x="762" y="1785" type="line"/>
      <point x="688" y="1873" type="line"/>
    </contour>
  </outline>
</glyph>
<glyph name="Ocircumflex" format="1">
  <advance width="1089"/>
  <unicode hex="00D4"/>
  <outline>
    <contour>
      <point x="871" y="688" type="line"/>
      <point x="871" y="491"/>
      <point x="854" y="330"/>
      <point x="790" y="220" type="curve"/>
      <point x="747" y="141"/>
      <point x="663" y="93"/>
      <point x="545" y="93" type="curve" smooth="yes"/>
      <point x="488" y="93"/>
      <point x="440" y="103"/>
      <point x="402" y="123" type="curve" smooth="yes"/>
      <point x="305" y="173"/>
      <point x="270" y="249"/>
      <point x="244" y="388" type="curve" smooth="yes"/>
      <point x="229" y="472"/>
      <point x="220" y="581"/>
      <point x="220" y="714" type="curve" smooth="yes"/>
      <point x="220" y="823"/>
      <point x="228" y="913"/>
      <point x="242" y="985" type="curve" smooth="yes"/>
      <point x="278" y="1162"/>
      <point x="354" y="1277"/>
      <point x="546" y="1277" type="curve" smooth="yes"/>
      <point x="831" y="1277"/>
      <point x="870" y="1008"/>
      <point x="870" y="687" type="curve"/>
    </contour>
    <contour>
      <point x="544" y="-28" type="curve" smooth="yes"/>
      <point x="682" y="-28"/>
      <point x="782" y="20"/>
      <point x="851" y="95" type="curve"/>
      <point x="966" y="229"/>
      <point x="995" y="463"/>
      <point x="995" y="728" type="curve" smooth="yes"/>
      <point x="995" y="917"/>
      <point x="967" y="1075"/>
      <point x="904" y="1191" type="curve"/>
      <point x="842" y="1318"/>
      <point x="724" y="1396"/>
      <point x="546" y="1396" type="curve" smooth="yes"/>
      <point x="184" y="1396"/>
      <point x="94" y="1111"/>
      <point x="94" y="697" type="curve" smooth="yes"/>
      <point x="94" y="286"/>
      <point x="177" y="-28"/>
    </contour>
    <contour>
      <point x="550" y="1760" type="line"/>
      <point x="690" y="1547" type="line"/>
      <point x="805" y="1547" type="line"/>
      <point x="594" y="1836" type="line"/>
      <point x="502" y="1836" type="line"/>
      <point x="293" y="1547" type="line"/>
      <point x="408" y="1547" type="line"/>
    </contour>
  </outline>
</glyph>
<glyph name="Otilde" format="1">
  <advance width="1085"/>
  <unicode hex="00D5"/>
  <outline>
    <contour>
      <point x="869" y="688" type="line"/>
      <point x="869" y="491"/>
      <point x="852" y="330"/>
      <point x="788" y="220" type="curve"/>
      <point x="745" y="141"/>
      <point x="661" y="93"/>
      <point x="543" y="93" type="curve" smooth="yes"/>
      <point x="486" y="93"/>
      <point x="438" y="103"/>
      <point x="400" y="123" type="curve" smooth="yes"/>
      <point x="303" y="173"/>
      <point x="268" y="249"/>
      <point x="242" y="388" type="curve" smooth="yes"/>
      <point x="227" y="472"/>
      <point x="218" y="581"/>
      <point x="218" y="714" type="curve" smooth="yes"/>
      <point x="218" y="823"/>
      <point x="226" y="913"/>
      <point x="240" y="985" type="curve" smooth="yes"/>
      <point x="276" y="1162"/>
      <point x="352" y="1277"/>
      <point x="544" y="1277" type="curve" smooth="yes"/>
      <point x="829" y="1277"/>
      <point x="868" y="1008"/>
      <point x="868" y="687" type="curve"/>
    </contour>
    <contour>
      <point x="542" y="-28" type="curve" smooth="yes"/>
      <point x="680" y="-28"/>
      <point x="780" y="20"/>
      <point x="849" y="95" type="curve"/>
      <point x="964" y="229"/>
      <point x="993" y="463"/>
      <point x="993" y="728" type="curve" smooth="yes"/>
      <point x="993" y="917"/>
      <point x="965" y="1075"/>
      <point x="902" y="1191" type="curve"/>
      <point x="840" y="1318"/>
      <point x="722" y="1396"/>
      <point x="544" y="1396" type="curve" smooth="yes"/>
      <point x="182" y="1396"/>
      <point x="92" y="1111"/>
      <point x="92" y="697" type="curve" smooth="yes"/>
      <point x="92" y="286"/>
      <point x="175" y="-28"/>
    </contour>
    <contour>
      <point x="268" y="1678" type="line"/>
      <point x="334" y="1631" type="line"/>
      <point x="353" y="1656"/>
      <point x="370" y="1676"/>
      <point x="386" y="1691" type="curve" smooth="yes"/>
      <point x="402" y="1706"/>
      <point x="417" y="1714"/>
      <point x="433" y="1714" type="curve" smooth="yes"/>
      <point x="443" y="1714"/>
      <point x="458" y="1709"/>
      <point x="476" y="1698" type="curve" smooth="yes"/>
      <point x="494" y="1687"/>
      <point x="514" y="1675"/>
      <point x="535" y="1662" type="curve" smooth="yes"/>
      <point x="569" y="1642"/>
      <point x="616" y="1611"/>
      <point x="663" y="1611" type="curve" smooth="yes"/>
      <point x="689" y="1611"/>
      <point x="715" y="1621"/>
      <point x="742" y="1642" type="curve" smooth="yes"/>
      <point x="769" y="1663"/>
      <point x="794" y="1697"/>
      <point x="814" y="1745" type="curve"/>
      <point x="749" y="1790" type="line"/>
      <point x="731" y="1763"/>
      <point x="714" y="1743"/>
      <point x="700" y="1729" type="curve" smooth="yes"/>
      <point x="686" y="1715"/>
      <point x="672" y="1708"/>
      <point x="659" y="1708" type="curve" smooth="yes"/>
      <point x="649" y="1708"/>
      <point x="635" y="1713"/>
      <point x="618" y="1723" type="curve" smooth="yes"/>
      <point x="601" y="1733"/>
      <point x="581" y="1744"/>
      <point x="560" y="1757" type="curve" smooth="yes"/>
      <point x="524" y="1778"/>
      <point x="477" y="1807"/>
      <point x="429" y="1807" type="curve" smooth="yes"/>
      <point x="345" y="1807"/>
      <point x="298" y="1739"/>
      <point x="267" y="1674" type="curve"/>
    </contour>
  </outline>
</glyph>
<glyph name="Odieresis" format="1">
  <advance width="1085"/>
  <unicode hex="00D6"/>
  <outline>
    <contour>
      <point x="869" y="688" type="line"/>
      <point x="869" y="491"/>
      <point x="852" y="330"/>
      <point x="788" y="220" type="curve"/>
      <point x="745" y="141"/>
      <point x="661" y="93"/>
      <point x="543" y="93" type="curve" smooth="yes"/>
      <point x="486" y="93"/>
      <point x="438" y="103"/>
      <point x="400" y="123" type="curve" smooth="yes"/>
      <point x="303" y="173"/>
      <point x="268" y="249"/>
      <point x="242" y="388" type="curve" smooth="yes"/>
      <point x="227" y="472"/>
      <point x="218" y="581"/>
      <point x="218" y="714" type="curve" smooth="yes"/>
      <point x="218" y="823"/>
      <point x="226" y="913"/>
      <point x="240" y="985" type="curve" smooth="yes"/>
      <point x="276" y="1162"/>
      <point x="352" y="1277"/>
      <point x="544" y="1277" type="curve" smooth="yes"/>
      <point x="829" y="1277"/>
      <point x="868" y="1008"/>
      <point x="868" y="687" type="curve"/>
    </contour>
    <contour>
      <point x="542" y="-28" type="curve" smooth="yes"/>
      <point x="680" y="-28"/>
      <point x="780" y="20"/>
      <point x="849" y="95" type="curve"/>
      <point x="964" y="229"/>
      <point x="993" y="463"/>
      <point x="993" y="728" type="curve" smooth="yes"/>
      <point x="993" y="917"/>
      <point x="965" y="1075"/>
      <point x="902" y="1191" type="curve"/>
      <point x="840" y="1318"/>
      <point x="722" y="1396"/>
      <point x="544" y="1396" type="curve" smooth="yes"/>
      <point x="182" y="1396"/>
      <point x="92" y="1111"/>
      <point x="92" y="697" type="curve" smooth="yes"/>
      <point x="92" y="286"/>
      <point x="175" y="-28"/>
    </contour>
    <contour>
      <point x="290" y="1697" type="curve" smooth="yes"/>
      <point x="290" y="1647"/>
      <point x="315" y="1615"/>
      <point x="360" y="1615" type="curve" smooth="yes"/>
      <point x="408" y="1615"/>
      <point x="434" y="1645"/>
      <point x="434" y="1697" type="curve" smooth="yes"/>
      <point x="434" y="1747"/>
      <point x="407" y="1779"/>
      <point x="360" y="1779" type="curve" smooth="yes"/>
      <point x="316" y="1779"/>
      <point x="290" y="1745"/>
    </contour>
    <contour>
      <point x="651" y="1697" type="curve" smooth="yes"/>
      <point x="651" y="1646"/>
      <point x="679" y="1615"/>
      <point x="725" y="1615" type="curve" smooth="yes"/>
      <point x="769" y="1615"/>
      <point x="797" y="1649"/>
      <point x="797" y="1697" type="curve" smooth="yes"/>
      <point x="797" y="1745"/>
      <point x="770" y="1779"/>
      <point x="725" y="1779" type="curve" smooth="yes"/>
      <point x="679" y="1779"/>
      <point x="651" y="1747"/>
    </contour>
  </outline>
</glyph>
<glyph name="Oslash" format="1">
  <advance width="865"/>
  <unicode hex="00D8"/>
  <outline>
    <contour>
      <point x="789" y="1280" type="line"/>
      <point x="788" y="1279"/>
      <point x="787" y="1276"/>
      <point x="787" y="1271" type="curve" smooth="yes"/>
      <point x="784" y="1232"/>
      <point x="779" y="1200"/>
      <point x="771" y="1161" type="curve"/>
      <point x="759" y="1137"/>
      <point x="749" y="1115"/>
      <point x="736" y="1092" type="curve"/>
      <point x="670" y="1088"/>
      <point x="612" y="1070"/>
      <point x="547" y="1049" type="curve"/>
      <point x="516" y="1036"/>
      <point x="486" y="1022"/>
      <point x="459" y="1007" type="curve" smooth="yes"/>
      <point x="297" y="917"/>
      <point x="229" y="723"/>
      <point x="168" y="504" type="curve"/>
      <point x="139" y="425"/>
      <point x="120" y="361"/>
      <point x="112" y="312" type="curve" smooth="yes"/>
      <point x="104" y="263"/>
      <point x="106" y="223"/>
      <point x="120" y="193" type="curve"/>
      <point x="104" y="160"/>
      <point x="86" y="128"/>
      <point x="71" y="94" type="curve" smooth="yes"/>
      <point x="72" y="96"/>
      <point x="72" y="99"/>
      <point x="72" y="104" type="curve" smooth="yes"/>
      <point x="72" y="145"/>
      <point x="79" y="177"/>
      <point x="86" y="219" type="curve"/>
      <point x="99" y="244"/>
      <point x="110" y="269"/>
      <point x="124" y="294" type="curve"/>
      <point x="188" y="288"/>
      <point x="248" y="304"/>
      <point x="308" y="323" type="curve" smooth="yes"/>
      <point x="340" y="334"/>
      <point x="371" y="347"/>
      <point x="399" y="363" type="curve" smooth="yes"/>
      <point x="564" y="455"/>
      <point x="638" y="662"/>
      <point x="697" y="890" type="curve"/>
      <point x="726" y="967"/>
      <point x="744" y="1029"/>
      <point x="752" y="1077" type="curve" smooth="yes"/>
      <point x="760" y="1125"/>
      <point x="757" y="1163"/>
      <point x="744" y="1192" type="curve"/>
      <point x="761" y="1221"/>
      <point x="774" y="1250"/>
      <point x="791" y="1279" type="curve"/>
    </contour>
    <contour>
      <point x="84" y="437" type="line"/>
      <point x="81" y="418"/>
      <point x="80" y="403"/>
      <point x="81" y="392" type="curve" smooth="yes"/>
      <point x="83" y="361"/>
      <point x="95" y="357"/>
      <point x="106" y="379" type="curve"/>
      <point x="113" y="407"/>
      <point x="130" y="428"/>
      <point x="148" y="450" type="curve"/>
      <point x="175" y="502"/>
      <point x="208" y="542"/>
      <point x="250" y="583" type="curve"/>
      <point x="319" y="643"/>
      <point x="375" y="727"/>
      <point x="423" y="800" type="curve"/>
      <point x="490" y="895"/>
      <point x="563" y="978"/>
      <point x="622" y="1084" type="curve"/>
      <point x="636" y="1112"/>
      <point x="647" y="1135"/>
      <point x="657" y="1153" type="curve" smooth="yes"/>
      <point x="666" y="1169"/>
      <point x="694" y="1226"/>
      <point x="709" y="1197" type="curve"/>
      <point x="684" y="1176"/>
      <point x="653" y="1156"/>
      <point x="614" y="1137" type="curve" smooth="yes"/>
      <point x="575" y="1118"/>
      <point x="528" y="1093"/>
      <point x="471" y="1062" type="curve" smooth="yes"/>
      <point x="391" y="1017"/>
      <point x="325" y="952"/>
      <point x="273" y="878" type="curve" smooth="yes"/>
      <point x="187" y="755"/>
      <point x="121" y="618"/>
      <point x="86" y="436" type="curve"/>
    </contour>
    <contour>
      <point x="362" y="8" type="curve"/>
      <point x="409" y="55"/>
      <point x="449" y="112"/>
      <point x="483" y="178" type="curve" smooth="yes"/>
      <point x="589" y="387"/>
      <point x="638" y="663"/>
      <point x="664" y="965" type="curve"/>
      <point x="675" y="1060"/>
      <point x="685" y="1145"/>
      <point x="672" y="1229" type="curve"/>
      <point x="262" y="80" type="line"/>
      <point x="279" y="28"/>
      <point x="313" y="4"/>
    </contour>
  </outline>
</glyph>
<glyph name="Ugrave" format="1">
  <advance width="1024"/>
  <unicode hex="00D9"/>
  <outline>
    <contour>
      <point x="513" y="90" type="line"/>
      <point x="330" y="90"/>
      <point x="237" y="177"/>
      <point x="229" y="367" type="curve"/>
      <point x="222" y="466"/>
      <point x="218" y="560"/>
      <point x="218" y="674" type="curve" smooth="yes"/>
      <point x="218" y="1374" type="line"/>
      <point x="99" y="1374" type="line"/>
      <point x="99" y="666" type="line" smooth="yes"/>
      <point x="99" y="501"/>
      <point x="101" y="337"/>
      <point x="136" y="213" type="curve" smooth="yes"/>
      <point x="183" y="49"/>
      <point x="316" y="-30"/>
      <point x="511" y="-30" type="curve" smooth="yes"/>
      <point x="660" y="-30"/>
      <point x="778" y="19"/>
      <point x="841" y="114" type="curve"/>
      <point x="859" y="139"/>
      <point x="873" y="170"/>
      <point x="884" y="207" type="curve" smooth="yes"/>
      <point x="922" y="333"/>
      <point x="927" y="496"/>
      <point x="927" y="666" type="curve" smooth="yes"/>
      <point x="927" y="1372" type="line"/>
      <point x="806" y="1372" type="line"/>
      <point x="806" y="469" type="line" smooth="yes"/>
      <point x="806" y="222"/>
      <point x="735" y="88"/>
      <point x="515" y="88" type="curve"/>
    </contour>
    <contour>
      <point x="702" y="1630" type="line"/>
      <point x="377" y="1874" type="line"/>
      <point x="303" y="1786" type="line"/>
      <point x="653" y="1563" type="line"/>
    </contour>
  </outline>
</glyph>
<glyph name="Uacute" format="1">
  <advance width="1025"/>
  <unicode hex="00DA"/>
  <outline>
    <contour>
      <point x="511" y="90" type="line"/>
      <point x="328" y="90"/>
      <point x="235" y="177"/>
      <point x="227" y="367" type="curve"/>
      <point x="220" y="466"/>
      <point x="216" y="560"/>
      <point x="216" y="674" type="curve" smooth="yes"/>
      <point x="216" y="1374" type="line"/>
      <point x="97" y="1374" type="line"/>
      <point x="97" y="666" type="line" smooth="yes"/>
      <point x="97" y="501"/>
      <point x="99" y="337"/>
      <point x="134" y="213" type="curve" smooth="yes"/>
      <point x="181" y="49"/>
      <point x="314" y="-30"/>
      <point x="509" y="-30" type="curve" smooth="yes"/>
      <point x="658" y="-30"/>
      <point x="776" y="19"/>
      <point x="839" y="114" type="curve"/>
      <point x="857" y="139"/>
      <point x="871" y="170"/>
      <point x="882" y="207" type="curve" smooth="yes"/>
      <point x="920" y="333"/>
      <point x="925" y="496"/>
      <point x="925" y="666" type="curve" smooth="yes"/>
      <point x="925" y="1372" type="line"/>
      <point x="804" y="1372" type="line"/>
      <point x="804" y="469" type="line" smooth="yes"/>
      <point x="804" y="222"/>
      <point x="733" y="88"/>
      <point x="513" y="88" type="curve"/>
    </contour>
    <contour>
      <point x="338" y="1630" type="line"/>
      <point x="386" y="1561" type="line"/>
      <point x="736" y="1784" type="line"/>
      <point x="663" y="1872" type="line"/>
    </contour>
  </outline>
</glyph>
<glyph name="Ucircumflex" format="1">
  <advance width="1032"/>
  <unicode hex="00DB"/>
  <outline>
    <contour>
      <point x="516" y="90" type="line"/>
      <point x="333" y="90"/>
      <point x="240" y="177"/>
      <point x="232" y="367" type="curve"/>
      <point x="225" y="466"/>
      <point x="221" y="560"/>
      <point x="221" y="674" type="curve" smooth="yes"/>
      <point x="221" y="1374" type="line"/>
      <point x="102" y="1374" type="line"/>
      <point x="102" y="666" type="line" smooth="yes"/>
      <point x="102" y="501"/>
      <point x="104" y="337"/>
      <point x="139" y="213" type="curve" smooth="yes"/>
      <point x="186" y="49"/>
      <point x="319" y="-30"/>
      <point x="514" y="-30" type="curve" smooth="yes"/>
      <point x="663" y="-30"/>
      <point x="781" y="19"/>
      <point x="844" y="114" type="curve"/>
      <point x="862" y="139"/>
      <point x="876" y="170"/>
      <point x="887" y="207" type="curve" smooth="yes"/>
      <point x="925" y="333"/>
      <point x="930" y="496"/>
      <point x="930" y="666" type="curve" smooth="yes"/>
      <point x="930" y="1372" type="line"/>
      <point x="809" y="1372" type="line"/>
      <point x="809" y="469" type="line" smooth="yes"/>
      <point x="809" y="222"/>
      <point x="738" y="88"/>
      <point x="518" y="88" type="curve"/>
    </contour>
    <contour>
      <point x="520" y="1759" type="line"/>
      <point x="660" y="1546" type="line"/>
      <point x="775" y="1546" type="line"/>
      <point x="566" y="1835" type="line"/>
      <point x="474" y="1835" type="line"/>
      <point x="264" y="1546" type="line"/>
      <point x="380" y="1546" type="line"/>
    </contour>
  </outline>
</glyph>
<glyph name="Udieresis" format="1">
  <advance width="1028"/>
  <unicode hex="00DC"/>
  <outline>
    <contour>
      <point x="514" y="90" type="line"/>
      <point x="331" y="90"/>
      <point x="238" y="177"/>
      <point x="230" y="367" type="curve"/>
      <point x="223" y="466"/>
      <point x="219" y="560"/>
      <point x="219" y="674" type="curve" smooth="yes"/>
      <point x="219" y="1374" type="line"/>
      <point x="100" y="1374" type="line"/>
      <point x="100" y="666" type="line" smooth="yes"/>
      <point x="100" y="501"/>
      <point x="102" y="337"/>
      <point x="137" y="213" type="curve" smooth="yes"/>
      <point x="184" y="49"/>
      <point x="317" y="-30"/>
      <point x="512" y="-30" type="curve" smooth="yes"/>
      <point x="661" y="-30"/>
      <point x="779" y="19"/>
      <point x="842" y="114" type="curve"/>
      <point x="860" y="139"/>
      <point x="874" y="170"/>
      <point x="885" y="207" type="curve" smooth="yes"/>
      <point x="923" y="333"/>
      <point x="928" y="496"/>
      <point x="928" y="666" type="curve" smooth="yes"/>
      <point x="928" y="1372" type="line"/>
      <point x="807" y="1372" type="line"/>
      <point x="807" y="469" type="line" smooth="yes"/>
      <point x="807" y="222"/>
      <point x="736" y="88"/>
      <point x="516" y="88" type="curve"/>
    </contour>
    <contour>
      <point x="260" y="1696" type="curve" smooth="yes"/>
      <point x="260" y="1646"/>
      <point x="287" y="1614"/>
      <point x="332" y="1614" type="curve" smooth="yes"/>
      <point x="379" y="1614"/>
      <point x="404" y="1645"/>
      <point x="404" y="1696" type="curve" smooth="yes"/>
      <point x="404" y="1746"/>
      <point x="379" y="1778"/>
      <point x="332" y="1778" type="curve" smooth="yes"/>
      <point x="288" y="1778"/>
      <point x="260" y="1744"/>
    </contour>
    <contour>
      <point x="623" y="1696" type="curve" smooth="yes"/>
      <point x="623" y="1646"/>
      <point x="649" y="1614"/>
      <point x="695" y="1614" type="curve" smooth="yes"/>
      <point x="741" y="1614"/>
      <point x="768" y="1647"/>
      <point x="768" y="1696" type="curve" smooth="yes"/>
      <point x="768" y="1744"/>
      <point x="740" y="1778"/>
      <point x="695" y="1778" type="curve" smooth="yes"/>
      <point x="649" y="1778"/>
      <point x="623" y="1745"/>
    </contour>
  </outline>
</glyph>
<glyph name="germandbls" format="1">
  <advance width="990"/>
  <unicode hex="00DF"/>
  <outline>
    <contour>
      <point x="457" y="1286" type="curve"/>
      <point x="504" y="1286"/>
      <point x="543" y="1281"/>
      <point x="573" y="1271" type="curve" smooth="yes"/>
      <point x="665" y="1239"/>
      <point x="686" y="1153"/>
      <point x="686" y="1018" type="curve"/>
      <point x="652" y="991"/>
      <point x="619" y="968"/>
      <point x="589" y="950" type="curve" smooth="yes"/>
      <point x="505" y="902"/>
      <point x="423" y="863"/>
      <point x="383" y="768" type="curve"/>
      <point x="383" y="731" type="line"/>
      <point x="399" y="654"/>
      <point x="443" y="613"/>
      <point x="504" y="584" type="curve" smooth="yes"/>
      <point x="607" y="535"/>
      <point x="745" y="541"/>
      <point x="762" y="401" type="curve"/>
      <point x="775" y="384"/>
      <point x="777" y="358"/>
      <point x="777" y="322" type="curve" smooth="yes"/>
      <point x="777" y="181"/>
      <point x="741" y="106"/>
      <point x="622" y="98" type="curve"/>
      <point x="530" y="87"/>
      <point x="447" y="115"/>
      <point x="387" y="156" type="curve"/>
      <point x="349" y="66" type="line"/>
      <point x="404" y="25"/>
      <point x="460" y="-11"/>
      <point x="544" y="-17" type="curve" smooth="yes"/>
      <point x="789" y="-33"/>
      <point x="895" y="78"/>
      <point x="890" y="338" type="curve" smooth="yes"/>
      <point x="887" y="534"/>
      <point x="755" y="591"/>
      <point x="638" y="661" type="curve" smooth="yes"/>
      <point x="601" y="684"/>
      <point x="554" y="710"/>
      <point x="542" y="754" type="curve"/>
      <point x="588" y="870"/>
      <point x="682" y="919"/>
      <point x="799" y="963" type="curve"/>
      <point x="799" y="1005"/>
      <point x="798" y="1045"/>
      <point x="796" y="1082" type="curve" smooth="yes"/>
      <point x="783" y="1306"/>
      <point x="678" y="1397"/>
      <point x="461" y="1397" type="curve" smooth="yes"/>
      <point x="229" y="1397"/>
      <point x="120" y="1266"/>
      <point x="120" y="1008" type="curve" smooth="yes"/>
      <point x="120" y="0" type="line"/>
      <point x="229" y="0" type="line"/>
      <point x="229" y="997" type="line" smooth="yes"/>
      <point x="229" y="1186"/>
      <point x="288" y="1286"/>
    </contour>
  </outline>
</glyph>
<glyph name="agrave" format="1">
  <advance width="887"/>
  <unicode hex="00E0"/>
  <outline>
    <contour>
      <point x="421" y="588" type="line"/>
      <point x="289" y="584"/>
      <point x="190" y="543"/>
      <point x="135" y="467" type="curve"/>
      <point x="103" y="420"/>
      <point x="85" y="364"/>
      <point x="85" y="278" type="curve" smooth="yes"/>
      <point x="85" y="73"/>
      <point x="194" y="-21"/>
      <point x="383" y="-21" type="curve" smooth="yes"/>
      <point x="414" y="-21"/>
      <point x="443" y="-17"/>
      <point x="472" y="-8" type="curve" smooth="yes"/>
      <point x="547" y="15"/>
      <point x="619" y="58"/>
      <point x="665" y="109" type="curve"/>
      <point x="669" y="56"/>
      <point x="683" y="7"/>
      <point x="712" y="-20" type="curve"/>
      <point x="742" y="-17"/>
      <point x="768" y="-16"/>
      <point x="796" y="-10" type="curve"/>
      <point x="785" y="131" type="line"/>
      <point x="768" y="148"/>
      <point x="769" y="168"/>
      <point x="769" y="208" type="curve" smooth="yes"/>
      <point x="769" y="581" type="line" smooth="yes"/>
      <point x="769" y="723"/>
      <point x="761" y="829"/>
      <point x="712" y="900" type="curve"/>
      <point x="662" y="976"/>
      <point x="564" y="998"/>
      <point x="442" y="998" type="curve" smooth="yes"/>
      <point x="303" y="998"/>
      <point x="176" y="967"/>
      <point x="116" y="876" type="curve"/>
      <point x="171" y="790" type="line"/>
      <point x="192" y="821"/>
      <point x="222" y="844"/>
      <point x="259" y="855" type="curve" smooth="yes"/>
      <point x="316" y="872"/>
      <point x="379" y="887"/>
      <point x="446" y="887" type="curve" smooth="yes"/>
      <point x="505" y="887"/>
      <point x="543" y="881"/>
      <point x="577" y="862" type="curve"/>
      <point x="655" y="826"/>
      <point x="657" y="708"/>
      <point x="657" y="582" type="curve"/>
      <point x="576" y="582"/>
      <point x="507" y="586"/>
      <point x="419" y="586" type="curve"/>
    </contour>
    <contour>
      <point x="199" y="285" type="line"/>
      <point x="199" y="310"/>
      <point x="200" y="331"/>
      <point x="205" y="349" type="curve" smooth="yes"/>
      <point x="244" y="517"/>
      <point x="481" y="481"/>
      <point x="658" y="481" type="curve"/>
      <point x="658" y="246" type="line"/>
      <point x="650" y="229"/>
      <point x="638" y="211"/>
      <point x="620" y="193" type="curve" smooth="yes"/>
      <point x="569" y="141"/>
      <point x="488" y="90"/>
      <point x="394" y="90" type="curve" smooth="yes"/>
      <point x="258" y="90"/>
      <point x="200" y="139"/>
      <point x="200" y="285" type="curve"/>
    </contour>
    <contour>
      <point x="642" y="1245" type="line"/>
      <point x="346" y="1505" type="line"/>
      <point x="266" y="1413" type="line"/>
      <point x="589" y="1180" type="line"/>
    </contour>
  </outline>
</glyph>
<glyph name="aacute" format="1">
  <advance width="886"/>
  <unicode hex="00E1"/>
  <outline>
    <contour>
      <point x="417" y="588" type="line"/>
      <point x="285" y="584"/>
      <point x="186" y="543"/>
      <point x="131" y="467" type="curve"/>
      <point x="99" y="420"/>
      <point x="81" y="364"/>
      <point x="81" y="278" type="curve" smooth="yes"/>
      <point x="81" y="73"/>
      <point x="190" y="-21"/>
      <point x="379" y="-21" type="curve" smooth="yes"/>
      <point x="410" y="-21"/>
      <point x="439" y="-17"/>
      <point x="468" y="-8" type="curve" smooth="yes"/>
      <point x="543" y="15"/>
      <point x="615" y="58"/>
      <point x="661" y="109" type="curve"/>
      <point x="665" y="56"/>
      <point x="679" y="7"/>
      <point x="708" y="-20" type="curve"/>
      <point x="738" y="-17"/>
      <point x="764" y="-16"/>
      <point x="792" y="-10" type="curve"/>
      <point x="781" y="131" type="line"/>
      <point x="764" y="148"/>
      <point x="765" y="168"/>
      <point x="765" y="208" type="curve" smooth="yes"/>
      <point x="765" y="581" type="line" smooth="yes"/>
      <point x="765" y="723"/>
      <point x="757" y="829"/>
      <point x="708" y="900" type="curve"/>
      <point x="658" y="976"/>
      <point x="560" y="998"/>
      <point x="438" y="998" type="curve" smooth="yes"/>
      <point x="299" y="998"/>
      <point x="172" y="967"/>
      <point x="112" y="876" type="curve"/>
      <point x="167" y="790" type="line"/>
      <point x="188" y="821"/>
      <point x="218" y="844"/>
      <point x="255" y="855" type="curve" smooth="yes"/>
      <point x="312" y="872"/>
      <point x="375" y="887"/>
      <point x="442" y="887" type="curve" smooth="yes"/>
      <point x="501" y="887"/>
      <point x="539" y="881"/>
      <point x="573" y="862" type="curve"/>
      <point x="651" y="826"/>
      <point x="653" y="708"/>
      <point x="653" y="582" type="curve"/>
      <point x="572" y="582"/>
      <point x="503" y="586"/>
      <point x="415" y="586" type="curve"/>
    </contour>
    <contour>
      <point x="195" y="285" type="line"/>
      <point x="195" y="310"/>
      <point x="196" y="331"/>
      <point x="201" y="349" type="curve" smooth="yes"/>
      <point x="240" y="517"/>
      <point x="477" y="481"/>
      <point x="654" y="481" type="curve"/>
      <point x="654" y="246" type="line"/>
      <point x="646" y="229"/>
      <point x="634" y="211"/>
      <point x="616" y="193" type="curve" smooth="yes"/>
      <point x="565" y="141"/>
      <point x="484" y="90"/>
      <point x="390" y="90" type="curve" smooth="yes"/>
      <point x="254" y="90"/>
      <point x="196" y="139"/>
      <point x="196" y="285" type="curve"/>
    </contour>
    <contour>
      <point x="246" y="1245" type="line"/>
      <point x="299" y="1180" type="line"/>
      <point x="622" y="1413" type="line"/>
      <point x="543" y="1505" type="line"/>
    </contour>
  </outline>
</glyph>
<glyph name="acircumflex" format="1">
  <advance width="898"/>
  <unicode hex="00E2"/>
  <outline>
    <contour>
      <point x="425" y="588" type="line"/>
      <point x="293" y="584"/>
      <point x="194" y="543"/>
      <point x="139" y="467" type="curve"/>
      <point x="107" y="420"/>
      <point x="89" y="364"/>
      <point x="89" y="278" type="curve" smooth="yes"/>
      <point x="89" y="73"/>
      <point x="198" y="-21"/>
      <point x="387" y="-21" type="curve" smooth="yes"/>
      <point x="418" y="-21"/>
      <point x="447" y="-17"/>
      <point x="476" y="-8" type="curve" smooth="yes"/>
      <point x="551" y="15"/>
      <point x="623" y="58"/>
      <point x="669" y="109" type="curve"/>
      <point x="673" y="56"/>
      <point x="687" y="7"/>
      <point x="716" y="-20" type="curve"/>
      <point x="746" y="-17"/>
      <point x="772" y="-16"/>
      <point x="800" y="-10" type="curve"/>
      <point x="789" y="131" type="line"/>
      <point x="772" y="148"/>
      <point x="773" y="168"/>
      <point x="773" y="208" type="curve" smooth="yes"/>
      <point x="773" y="581" type="line" smooth="yes"/>
      <point x="773" y="723"/>
      <point x="765" y="829"/>
      <point x="716" y="900" type="curve"/>
      <point x="666" y="976"/>
      <point x="568" y="998"/>
      <point x="446" y="998" type="curve" smooth="yes"/>
      <point x="307" y="998"/>
      <point x="180" y="967"/>
      <point x="120" y="876" type="curve"/>
      <point x="175" y="790" type="line"/>
      <point x="196" y="821"/>
      <point x="226" y="844"/>
      <point x="263" y="855" type="curve" smooth="yes"/>
      <point x="320" y="872"/>
      <point x="383" y="887"/>
      <point x="450" y="887" type="curve" smooth="yes"/>
      <point x="509" y="887"/>
      <point x="547" y="881"/>
      <point x="581" y="862" type="curve"/>
      <point x="659" y="826"/>
      <point x="661" y="708"/>
      <point x="661" y="582" type="curve"/>
      <point x="580" y="582"/>
      <point x="511" y="586"/>
      <point x="423" y="586" type="curve"/>
    </contour>
    <contour>
      <point x="203" y="285" type="line"/>
      <point x="203" y="310"/>
      <point x="204" y="331"/>
      <point x="209" y="349" type="curve" smooth="yes"/>
      <point x="248" y="517"/>
      <point x="485" y="481"/>
      <point x="662" y="481" type="curve"/>
      <point x="662" y="246" type="line"/>
      <point x="654" y="229"/>
      <point x="642" y="211"/>
      <point x="624" y="193" type="curve" smooth="yes"/>
      <point x="573" y="141"/>
      <point x="492" y="90"/>
      <point x="398" y="90" type="curve" smooth="yes"/>
      <point x="262" y="90"/>
      <point x="204" y="139"/>
      <point x="204" y="285" type="curve"/>
    </contour>
    <contour>
      <point x="458" y="1438" type="line"/>
      <point x="606" y="1180" type="line"/>
      <point x="720" y="1180" type="line"/>
      <point x="509" y="1514" type="line"/>
      <point x="409" y="1514" type="line"/>
      <point x="197" y="1180" type="line"/>
      <point x="311" y="1180" type="line"/>
    </contour>
  </outline>
</glyph>
<glyph name="atilde" format="1">
  <advance width="901"/>
  <unicode hex="00E3"/>
  <outline>
    <contour>
      <point x="427" y="588" type="line"/>
      <point x="295" y="584"/>
      <point x="196" y="543"/>
      <point x="141" y="467" type="curve"/>
      <point x="109" y="420"/>
      <point x="91" y="364"/>
      <point x="91" y="278" type="curve" smooth="yes"/>
      <point x="91" y="73"/>
      <point x="200" y="-21"/>
      <point x="389" y="-21" type="curve" smooth="yes"/>
      <point x="420" y="-21"/>
      <point x="449" y="-17"/>
      <point x="478" y="-8" type="curve" smooth="yes"/>
      <point x="553" y="15"/>
      <point x="625" y="58"/>
      <point x="671" y="109" type="curve"/>
      <point x="675" y="56"/>
      <point x="689" y="7"/>
      <point x="718" y="-20" type="curve"/>
      <point x="748" y="-17"/>
      <point x="774" y="-16"/>
      <point x="802" y="-10" type="curve"/>
      <point x="791" y="131" type="line"/>
      <point x="774" y="148"/>
      <point x="775" y="168"/>
      <point x="775" y="208" type="curve" smooth="yes"/>
      <point x="775" y="581" type="line" smooth="yes"/>
      <point x="775" y="723"/>
      <point x="767" y="829"/>
      <point x="718" y="900" type="curve"/>
      <point x="668" y="976"/>
      <point x="570" y="998"/>
      <point x="448" y="998" type="curve" smooth="yes"/>
      <point x="309" y="998"/>
      <point x="182" y="967"/>
      <point x="122" y="876" type="curve"/>
      <point x="177" y="790" type="line"/>
      <point x="198" y="821"/>
      <point x="228" y="844"/>
      <point x="265" y="855" type="curve" smooth="yes"/>
      <point x="322" y="872"/>
      <point x="385" y="887"/>
      <point x="452" y="887" type="curve" smooth="yes"/>
      <point x="511" y="887"/>
      <point x="549" y="881"/>
      <point x="583" y="862" type="curve"/>
      <point x="661" y="826"/>
      <point x="663" y="708"/>
      <point x="663" y="582" type="curve"/>
      <point x="582" y="582"/>
      <point x="513" y="586"/>
      <point x="425" y="586" type="curve"/>
    </contour>
    <contour>
      <point x="205" y="285" type="line"/>
      <point x="205" y="310"/>
      <point x="206" y="331"/>
      <point x="211" y="349" type="curve" smooth="yes"/>
      <point x="250" y="517"/>
      <point x="487" y="481"/>
      <point x="664" y="481" type="curve"/>
      <point x="664" y="246" type="line"/>
      <point x="656" y="229"/>
      <point x="644" y="211"/>
      <point x="626" y="193" type="curve" smooth="yes"/>
      <point x="575" y="141"/>
      <point x="494" y="90"/>
      <point x="400" y="90" type="curve" smooth="yes"/>
      <point x="264" y="90"/>
      <point x="206" y="139"/>
      <point x="206" y="285" type="curve"/>
    </contour>
    <contour>
      <point x="717" y="1378" type="line"/>
      <point x="654" y="1425" type="line"/>
      <point x="635" y="1398"/>
      <point x="618" y="1378"/>
      <point x="603" y="1364" type="curve" smooth="yes"/>
      <point x="589" y="1350"/>
      <point x="574" y="1343"/>
      <point x="561" y="1343" type="curve" smooth="yes"/>
      <point x="551" y="1343"/>
      <point x="538" y="1348"/>
      <point x="520" y="1358" type="curve" smooth="yes"/>
      <point x="503" y="1368"/>
      <point x="484" y="1379"/>
      <point x="464" y="1392" type="curve" smooth="yes"/>
      <point x="430" y="1412"/>
      <point x="382" y="1442"/>
      <point x="335" y="1442" type="curve" smooth="yes"/>
      <point x="308" y="1442"/>
      <point x="280" y="1432"/>
      <point x="251" y="1411" type="curve" smooth="yes"/>
      <point x="223" y="1390"/>
      <point x="196" y="1356"/>
      <point x="171" y="1309" type="curve"/>
      <point x="240" y="1260" type="line"/>
      <point x="259" y="1287"/>
      <point x="276" y="1308"/>
      <point x="291" y="1323" type="curve" smooth="yes"/>
      <point x="306" y="1338"/>
      <point x="322" y="1346"/>
      <point x="337" y="1346" type="curve" smooth="yes"/>
      <point x="349" y="1346"/>
      <point x="363" y="1340"/>
      <point x="381" y="1329" type="curve" smooth="yes"/>
      <point x="399" y="1318"/>
      <point x="419" y="1306"/>
      <point x="439" y="1293" type="curve" smooth="yes"/>
      <point x="473" y="1272"/>
      <point x="520" y="1240"/>
      <point x="566" y="1240" type="curve" smooth="yes"/>
      <point x="642" y="1240"/>
      <point x="687" y="1304"/>
      <point x="717" y="1375" type="curve"/>
    </contour>
  </outline>
</glyph>
